<svg width="87" height="86" viewBox="0 0 87 86" fill="none" xmlns="http://www.w3.org/2000/svg">
<path d="M86.6086 11.0311C86.6086 8.10545 85.4399 5.29965 83.3595 3.23093C81.2792 1.1622 78.4576 0 75.5156 0L11.2167 0C8.27501 0.000534785 5.45398 1.16297 3.37408 3.23164C1.29418 5.30031 0.125732 8.1058 0.125732 11.0311V74.9689C0.125732 77.8942 1.29418 80.6997 3.37408 82.7684C5.45398 84.837 8.27501 85.9995 11.2167 86H75.5156C78.4576 86 81.2792 84.8378 83.3595 82.7691C85.4399 80.7003 86.6086 77.8945 86.6086 74.9689V11.0311ZM85.6777 74.9689C85.678 76.2962 85.4154 77.6104 84.9048 78.8367C84.3942 80.063 83.6457 81.1773 82.702 82.1158C81.7584 83.0544 80.638 83.799 79.4049 84.3069C78.1719 84.8149 76.8503 85.0764 75.5156 85.0764H11.2167C8.52135 85.0758 5.93657 84.0107 4.03085 82.1152C2.12513 80.2198 1.05454 77.6492 1.05454 74.9689V11.0311C1.05454 8.35094 2.1252 5.78059 4.03097 3.88545C5.93675 1.99032 8.52154 0.925642 11.2167 0.925642H75.5156C76.8502 0.925377 78.1717 1.18658 79.4048 1.69433C80.6378 2.20208 81.7582 2.94643 82.7019 3.88486C83.6456 4.82329 84.3941 5.93741 84.9047 7.16358C85.4153 8.38974 85.678 9.70393 85.6777 11.0311V74.9689Z" fill="#512303"/>
<path d="M76.0693 11.7571C76.0682 11.4194 75.9324 11.0959 75.6917 10.8577C75.451 10.6195 75.1251 10.486 74.7855 10.4866H12.2591C12.0904 10.4863 11.9232 10.5191 11.7672 10.5832C11.6112 10.6472 11.4695 10.7412 11.3501 10.8597C11.2307 10.9783 11.1359 11.1191 11.0713 11.2741C11.0066 11.4291 10.9734 11.5953 10.9734 11.7631V73.9344C10.972 74.1031 11.0043 74.2703 11.0683 74.4265C11.1324 74.5826 11.2269 74.7247 11.3465 74.8443C11.466 74.9639 11.6082 75.0588 11.7649 75.1235C11.9215 75.1881 12.0895 75.2213 12.2591 75.221H74.7855C74.9542 75.2213 75.1213 75.1884 75.2771 75.1244C75.433 75.0603 75.5746 74.9663 75.6939 74.8477C75.8131 74.7291 75.9077 74.5883 75.9721 74.4333C76.0365 74.2783 76.0695 74.1122 76.0693 73.9445V11.7571ZM75.1384 73.9344C75.1387 73.9806 75.1298 74.0265 75.1121 74.0693C75.0945 74.1121 75.0686 74.151 75.0358 74.1838C75.003 74.2166 74.964 74.2426 74.9211 74.2604C74.8781 74.2782 74.8321 74.2873 74.7855 74.2873H12.2591C12.165 74.2873 12.0747 74.2501 12.0082 74.1839C11.9416 74.1178 11.9042 74.028 11.9042 73.9344V11.7571C11.9042 11.6635 11.9416 11.5737 12.0082 11.5075C12.0747 11.4413 12.165 11.4041 12.2591 11.4041H74.7855C74.8793 11.4047 74.9691 11.4421 75.0352 11.5082C75.1013 11.5744 75.1384 11.6638 75.1384 11.7571V73.9344Z" fill="#3D1900"/>
<path d="M86.2983 10.8758C86.2983 8.07317 85.1787 5.38535 83.1859 3.40361C81.193 1.42186 78.4901 0.308533 75.6718 0.308533H11.3729C8.55434 0.308533 5.85122 1.4218 3.85803 3.40348C1.86483 5.38517 0.7448 8.07298 0.744263 10.8758V74.8176C0.7448 77.6204 1.86483 80.3083 3.85803 82.2899C5.85122 84.2716 8.55434 85.3849 11.3729 85.3849H75.6718C78.4901 85.3849 81.193 84.2716 83.1859 82.2898C85.1787 80.3081 86.2983 77.6203 86.2983 74.8176V10.8758ZM75.7529 73.7811C75.7529 73.995 75.6674 74.2002 75.5153 74.3515C75.3632 74.5028 75.1568 74.5878 74.9417 74.5878H12.4132C12.1981 74.5878 11.9917 74.5028 11.8396 74.3515C11.6875 74.2002 11.602 73.995 11.602 73.7811V11.6038C11.602 11.3898 11.6875 11.1847 11.8396 11.0334C11.9917 10.8821 12.1981 10.7971 12.4132 10.7971H74.9397C75.1548 10.7971 75.3611 10.8821 75.5132 11.0334C75.6654 11.1847 75.7508 11.3898 75.7508 11.6038L75.7529 73.7811Z" fill="#723609"/>
<path opacity="0.38" d="M75.0958 74.5959H12.5734C12.4454 74.5962 12.3192 74.5664 12.205 74.5089C12.0908 74.4514 11.9919 74.3679 11.9164 74.2651L9.07721 77.0219C9.07721 77.0219 20.0425 78.7179 21.9812 79.0264C23.9199 79.335 76.2254 78.3126 76.7689 78.6231C77.3124 78.9337 78.0769 76.3141 78.0769 76.3141L75.6677 74.3559C75.5166 74.5081 75.3109 74.5944 75.0958 74.5959Z" fill="#9F5E26"/>
<path d="M81.7881 4.86621H5.15106V81.0754H81.7881V4.86621Z" fill="#3D1900"/>
<path d="M84.7489 74.8177C84.7489 77.2117 83.7926 79.5076 82.0903 81.2004C80.388 82.8932 78.0792 83.8442 75.6717 83.8442H11.3729C8.96543 83.8442 6.65661 82.8932 4.95431 81.2004C3.252 79.5076 2.29565 77.2117 2.29565 74.8177V10.8758C2.29565 8.48184 3.252 6.18591 4.95431 4.49311C6.65661 2.80031 8.96543 1.8493 11.3729 1.8493H75.6717C78.0792 1.8493 80.388 2.80031 82.0903 4.49311C83.7926 6.18591 84.7489 8.48184 84.7489 10.8758V74.8177ZM80.5652 7.78027C80.5655 7.46822 80.5039 7.15919 80.3839 6.87085C80.264 6.58251 80.088 6.32051 79.8661 6.09987C79.6442 5.87922 79.3808 5.70424 79.0908 5.58495C78.8008 5.46566 78.4901 5.40439 78.1763 5.40466L8.25789 4.79966C7.94417 4.79966 7.63352 4.86111 7.34368 4.98049C7.05384 5.09988 6.79048 5.27487 6.56865 5.49546C6.34681 5.71606 6.17084 5.97794 6.05079 6.26617C5.93073 6.55439 5.86894 6.8633 5.86894 7.17527L5.26055 78.1129C5.26055 78.743 5.51224 79.3472 5.96026 79.7927C6.40827 80.2382 7.01591 80.4885 7.6495 80.4885L78.3791 79.8835C78.6929 79.8838 79.0036 79.8225 79.2936 79.7032C79.5836 79.5839 79.847 79.409 80.0689 79.1883C80.2908 78.9677 80.4668 78.7057 80.5867 78.4173C80.7067 78.129 80.7683 77.82 80.768 77.5079L80.5652 7.78027Z" fill="#9F5E26"/>
<path d="M84.6597 48.9783C85.3005 51.237 86.057 62.2338 85.9556 64.3472C85.8724 66.0493 86.3612 70.2419 86.4017 72.4138L86.6045 75.8804C86.6045 75.8804 86.5031 65.525 86.5477 62.7037C86.5924 59.8824 86.5477 42.2125 86.5477 39.8691C86.5477 37.6407 86.6208 12.5052 86.6005 10.1478C86.3977 10.172 86.2111 12.2874 85.9292 13.1546C85.3087 15.0543 84.5948 26.5794 84.6516 28.8945C84.7084 31.2097 84.0189 46.7217 84.6597 48.9783Z" fill="#512303"/>
<path opacity="0.42" d="M83.3091 78.0221C83.3091 78.0221 85.7549 70.6613 85.5216 68.3059C85.2331 65.7585 84.7662 63.2343 84.1244 60.7515C83.5423 58.4848 81.2954 52.9733 81.488 50.396C81.6807 47.8188 81.2163 40.575 81.2163 40.575C81.2163 40.575 80.3422 51.2854 80.4578 52.9289C80.5734 54.5725 83.4815 62.3951 83.804 64.9724C84.1264 67.5496 83.0191 68.804 82.7291 70.8832C82.4391 72.9623 82.5385 79.0526 82.5385 79.0526L83.3091 78.0221Z" fill="#512303"/>
<path d="M81.9178 77.8729C81.9178 77.8729 83.8992 71.0284 83.8404 69.9837C83.7816 68.9391 82.7939 65.9847 82.8811 66.2065C82.9683 66.4284 82.8162 70.1168 82.3823 71.1836C81.9483 72.2504 81.9178 77.8729 81.9178 77.8729Z" fill="#512303"/>
<path d="M83.5159 75.9914C83.5159 75.9914 83.9073 71.9581 84.5887 69.7761C85.2701 67.5941 84.5482 65.9061 84.1304 64.4945C83.7126 63.0828 81.6624 56.3593 81.6624 56.3593C81.6624 56.3593 82.7169 62.5565 83.0657 63.7907C83.4145 65.0248 84.5502 67.5235 84.2825 68.4915C84.0148 69.4595 83.5159 75.9914 83.5159 75.9914Z" fill="#E6B554"/>
<path d="M82.145 74.5797C82.145 74.5797 82.4066 71.9036 82.8588 70.4537C83.311 69.0037 82.8304 67.8865 82.5546 66.9487C82.2788 66.011 80.916 61.5482 80.916 61.5482C80.916 61.5482 81.6157 65.6641 81.8469 66.4809C82.078 67.2976 82.8324 68.9593 82.658 69.6006C82.4836 70.2419 82.145 74.5797 82.145 74.5797Z" fill="#E6B554"/>
<path d="M83.8445 60.0599C83.8445 60.0599 83.5829 57.3838 83.1307 55.9338C82.6784 54.4838 84.1609 53.6247 83.4349 52.4289C82.9279 51.594 85.0735 47.0283 85.0735 47.0283C85.0735 47.0283 84.3738 51.1442 84.1426 51.961C83.9114 52.7777 83.157 54.4394 83.3314 55.0807C83.5059 55.722 83.8445 60.0599 83.8445 60.0599Z" fill="#E6B554"/>
<path d="M81.6563 36.5457C81.6563 36.5457 79.9772 25.4178 81.3846 22.5985C82.792 19.7793 80.8695 7.29016 80.8695 7.29016C80.8695 7.29016 82.3621 10.5168 82.4696 12.0394C82.577 13.5619 83.1327 20.9308 83.1976 22.3626C83.3497 25.7324 81.7841 32.1373 81.6563 36.5457Z" fill="#512303"/>
<path d="M80.7377 7.23975L82.5385 11.636C82.5385 11.636 83.1631 20.5879 83.1773 20.9126C83.1915 21.2373 82.3033 28.6646 82.3033 28.6646L81.6543 36.5457C81.6543 36.5457 84.0007 25.1718 84.1974 23.2358C84.3941 21.2998 83.3112 10.6741 83.3112 10.6741L80.7377 7.23975Z" fill="#E6B554"/>
<path d="M2.47003 36.213C1.82514 33.9563 1.07276 22.9575 1.17416 20.8441C1.25731 19.142 0.768564 14.9514 0.728005 12.7775L0.525208 9.31085C0.525208 9.31085 0.624578 19.6663 0.579963 22.4876C0.535347 25.3089 0.579963 42.9788 0.579963 45.3242C0.579963 47.5425 0.508984 72.6861 0.529263 75.0435C0.732061 75.0193 0.918634 72.9039 1.20052 72.0387C1.82108 70.137 2.53493 58.6119 2.47815 56.2968C2.42136 53.9816 3.11087 38.4696 2.47003 36.213Z" fill="#512303"/>
<path opacity="0.42" d="M3.37254 7.62093C3.37254 7.62093 0.928831 18.3515 1.16002 21.7798C1.39121 25.2081 1.97121 29.4854 2.55729 32.7867C3.14338 36.088 5.39645 44.1203 5.19366 47.8753C4.99086 51.6303 5.46743 62.1935 5.46743 62.1935C6.33743 46.629 6.33946 46.5826 6.22387 44.1929C6.10827 41.8031 3.20219 30.401 2.87771 26.648C2.55324 22.895 3.66254 21.08 3.95254 18.0369C4.24254 14.9938 4.14519 6.12054 4.14519 6.12054L3.37254 7.62093Z" fill="#512303"/>
<path d="M6.1833 9.89569C6.1833 9.89569 4.204 19.868 4.26078 21.3906C4.31756 22.9132 5.30721 27.2187 5.22204 26.894C5.13686 26.5693 5.28491 21.197 5.71889 19.6341C6.15288 18.0712 6.1833 9.89569 6.1833 9.89569Z" fill="#512303"/>
<path d="M3.77609 13.2252C3.77609 13.2252 3.38266 19.0997 2.70126 22.2819C2.01987 25.4642 2.74385 27.9285 3.15959 29.9754C3.57532 32.0223 5.62763 41.8313 5.62763 41.8313C5.62763 41.8313 4.57308 32.7987 4.22427 31.0019C3.87546 29.2051 2.7398 25.557 3.00749 24.1453C3.27518 22.7337 3.77609 13.2252 3.77609 13.2252Z" fill="#E6B554"/>
<path d="M2.74182 34.9546C2.74182 34.9546 4.30944 48.3088 3.91399 55.109C3.51853 61.9091 3.99105 60.1324 3.62399 64.0508C3.25693 67.9691 3.07846 72.2949 3.16972 73.765C3.26098 75.2351 3.67266 78.488 3.67266 78.488C3.67266 78.488 3.68483 70.2964 4.14721 68.4047C4.60958 66.5131 4.7556 53.0379 4.42301 49.6499C4.09042 46.2619 2.74182 34.9546 2.74182 34.9546Z" fill="#512303"/>
<path opacity="0.42" d="M0.971402 33.0448C0.971402 33.0448 0.565807 43.1684 0.971402 45.6952C1.377 48.2221 1.11539 59.9449 1.11539 59.9449C1.11539 59.9449 1.43784 56.8453 1.43784 55.4296C1.43784 54.0139 1.49462 47.1089 1.43784 45.7961C1.38105 44.4832 0.84364 38.0118 0.971402 33.0448Z" fill="#512303"/>
<path d="M1.08294 59.9994L1.46419 55.8007C1.46419 55.8007 1.46419 47.4457 1.46419 47.1432C1.46419 46.8407 1.10119 40.0002 1.10119 40.0002L0.788879 32.7262C0.788879 32.7262 1.60007 43.1341 1.67916 44.9189C1.75825 46.7036 1.67916 56.6437 1.67916 56.6437L1.08294 59.9994Z" fill="#E6B554"/>
<path opacity="0.42" d="M3.08657 37.9473C3.08657 37.9473 2.45384 53.5138 3.08657 57.3978C3.7193 61.2819 3.30762 79.3087 3.30762 79.3087C3.30762 79.3087 3.80447 74.5434 3.80447 72.3674C3.80447 70.1915 3.89168 59.5738 3.80447 57.5531C3.71727 55.5324 2.89189 45.5762 3.08657 37.9473Z" fill="#512303"/>
<path d="M3.25694 79.3934L3.84506 72.9402C3.84506 72.9402 3.84506 60.0941 3.84506 59.6303C3.84506 59.1664 3.28534 48.6476 3.28534 48.6476L2.81079 37.4633C2.81079 37.4633 4.04988 53.4674 4.1817 56.2181C4.31352 58.9688 4.1817 74.2429 4.1817 74.2429L3.25694 79.3934Z" fill="#E6B554"/>
<g opacity="0.42">
<g style="mix-blend-mode:multiply" opacity="0.5">
<path d="M16.0717 81.5715C16.9275 81.5715 21.5127 80.5631 25.1975 80.6156C33.5426 80.7204 33.2912 81.8356 37.1889 81.8356H47.4971C47.4971 81.8356 35.5057 82.3297 30.2776 82.1986C25.0495 82.0676 24.0761 81.8477 22.4517 82.2208C20.8273 82.5939 13.1473 81.6037 12.0826 81.5049C11.018 81.4061 8.98187 81.271 8.98187 81.271C8.98187 81.271 15.2098 81.5715 16.0717 81.5715Z" fill="#512303"/>
</g>
<path opacity="0.42" d="M9.12585 82.6604C9.24348 82.6262 16.1264 83.09 18.1057 83.2533C20.085 83.4167 20.7421 83.6829 21.5533 83.9793C22.3645 84.2758 23.5021 84.2778 25.0961 83.9793C26.6901 83.6809 33.1898 83.4086 35.9661 83.4308C38.7424 83.453 42.3156 83.4086 42.4941 83.4308C42.6726 83.453 36.0553 83.7151 33.5447 83.814C31.034 83.9128 27.5196 84.2435 26.102 84.3746C24.6845 84.5057 23.06 85.0018 21.5817 84.6065C20.1033 84.2112 18.6573 83.8644 17.6535 83.7071C16.6496 83.5498 9.12585 82.6604 9.12585 82.6604Z" fill="#512303"/>
<path opacity="0.42" d="M16.2826 81.5553C16.2826 81.5553 18.0956 81.7852 19.1218 81.6703C20.1479 81.5553 24.5851 81.2085 26.1365 81.1258C27.6879 81.0431 31.1578 81.7308 31.6303 81.7852C32.1028 81.8397 27.2154 81.7852 26.3292 81.6864C24.9656 81.5709 23.5932 81.6108 22.2387 81.8054C20.7015 82.0333 20.9692 82.2087 19.1218 82.0998C17.2743 81.9909 16.2826 81.5553 16.2826 81.5553Z" fill="#512303"/>
</g>
<g style="mix-blend-mode:overlay" opacity="0.5">
<path d="M43.0072 80.7063C43.0072 80.7063 30.1783 81.0148 26.5056 81.7146C22.833 82.4144 22.3037 82.2329 20.7381 81.7146C19.1725 81.1963 15.078 80.7486 13.6097 80.5732C12.1415 80.3977 8.80548 80.0347 8.80548 80.0347C8.80548 80.0347 19.3793 81.8497 20.5677 82.1321C21.7561 82.4144 23.5509 82.8802 24.4675 82.5838C25.3842 82.2873 43.0072 80.7063 43.0072 80.7063Z" fill="white"/>
</g>
<g style="mix-blend-mode:overlay" opacity="0.5">
<path d="M68.9166 83.6163C68.9166 83.6163 56.4994 84.0539 54.1672 84.1205C51.835 84.187 45.021 83.4893 44.3315 83.7817C43.642 84.0741 41.4924 84.1951 39.2819 83.9511C37.0714 83.7071 29.0305 82.8056 29.0305 82.9428C29.0305 83.0799 40.669 84.5379 41.9101 84.4815C43.1512 84.425 44.8933 83.9954 45.7186 84.1285C46.544 84.2616 51.9506 84.425 60.8717 84.1285C69.7927 83.8321 68.9166 83.6163 68.9166 83.6163Z" fill="white"/>
</g>
<path d="M35.2299 85.0764C32.628 85.4373 31.3403 84.8747 25.5098 84.8364C19.6794 84.7981 14.1694 84.5762 12.2408 84.5762C10.3122 84.5762 6.01899 82.4265 6.06766 82.3277C6.08186 82.2954 5.17941 81.4746 5.17535 81.2629C6.37186 81.6803 11.097 83.2513 13.6928 83.2513C16.6212 83.2513 27.4445 83.8986 29.7564 83.824C31.8431 83.7394 33.9229 83.5299 35.9843 83.1968C37.3228 82.973 42.271 82.8742 44.7938 83.1968C47.3166 83.5195 55.5624 83.7776 59.1762 83.6304C62.79 83.4832 74.2238 83.213 75.0532 83.213C75.6231 83.213 78.3689 83.8422 78.3689 83.8422C78.3689 83.8422 68.4035 84.1366 66.5235 84.1366C64.6436 84.1366 50.4296 84.9271 44.7918 84.8283C39.154 84.7295 37.8318 84.7134 35.2299 85.0764Z" fill="#512303"/>
<path opacity="0.42" d="M46.692 82.245C46.692 82.245 57.5559 82.1885 60.2652 82.5475C62.9746 82.9064 75.5541 82.6725 75.5541 82.6725C75.5541 82.6725 72.2282 82.9528 70.7113 82.9528C69.1944 82.9528 61.7882 83.0153 60.3687 82.9528C50.8656 82.5434 52.0215 82.1341 46.692 82.245Z" fill="#512303"/>
<path opacity="0.42" d="M76.783 79.5145C76.783 79.5145 67.9999 80.1457 65.9395 80.1699C63.879 80.1941 54.52 79.823 49.7846 80.1699C45.0493 80.5167 42.6279 80.5893 42.6279 80.5893C42.6279 80.5893 55.4589 80.2183 59.7055 80.3675C63.952 80.5167 68.3974 80.2929 70.1333 80.2687C71.8692 80.2445 76.783 79.5145 76.783 79.5145Z" fill="#512303"/>
<g style="mix-blend-mode:overlay" opacity="0.5">
<path d="M76.7141 79.5245L70.1334 80.2626L61.3401 80.4018C61.3401 80.4018 69.8069 80.6579 70.7478 80.5833C71.6888 80.5087 76.7141 79.5245 76.7141 79.5245Z" fill="white"/>
</g>
<g style="mix-blend-mode:overlay" opacity="0.5">
<path d="M78.3628 82.3781L71.1088 82.9831H61.8207C61.4942 82.9831 54.157 82.6665 54.157 82.6665L46.3513 82.3983C46.3513 82.3983 57.5194 83.0981 59.4338 83.1727C61.3482 83.2473 72.0072 83.1727 72.0072 83.1727L78.3628 82.3781Z" fill="white"/>
</g>
<path opacity="0.42" d="M78.8982 80.9745C78.6812 80.9322 63.3498 80.1921 53.4229 80.5893C43.4959 80.9866 40.9914 81.8881 33.3764 82.3438C25.7613 82.7996 23.3541 82.9811 23.3541 82.9811C23.3541 82.9811 38.4361 82.9327 41.038 82.604C43.6399 82.2753 46.2296 82.245 57.3896 82.8056C68.5495 83.3663 78.8982 80.9745 78.8982 80.9745Z" fill="#512303"/>
<path d="M64.3618 81.3597C63.9765 81.4807 60.0726 80.6902 53.1349 81.0854C46.1972 81.4807 42.3055 81.9909 42.3055 81.9909C42.3055 81.9909 50.6202 81.7207 55.7368 82.245C60.8534 82.7693 67.9756 81.5694 67.9756 81.5694L64.3618 81.3597Z" fill="#512303"/>
<g opacity="0.42">
<g style="mix-blend-mode:multiply" opacity="0.5">
<path d="M68.7483 4.63832C67.9229 4.63832 63.506 5.64664 59.955 5.59421C51.9161 5.48935 52.1595 4.38422 48.3956 4.38422H38.4585C38.4585 4.38422 50.0179 3.89014 55.0473 4.02123C60.0767 4.15231 61.0217 4.37212 62.5873 3.99904C64.1529 3.62596 71.5509 4.61614 72.5751 4.71495C73.5992 4.81377 75.5623 4.94687 75.5623 4.94687C75.5623 4.94687 69.5595 4.63832 68.7483 4.63832Z" fill="#512303"/>
</g>
<path opacity="0.42" d="M75.4406 3.54933C75.327 3.58361 68.6976 3.1218 66.7892 2.95643C64.8809 2.79107 64.2583 2.52688 63.4613 2.23044C62.6643 1.93399 61.5834 1.93399 60.0462 2.23044C58.509 2.52688 52.2507 2.80115 49.5758 2.77897C46.9009 2.75678 43.4574 2.80115 43.2891 2.77897C43.1208 2.75678 49.4927 2.49462 51.91 2.3958C54.3274 2.29699 57.7161 1.96626 59.0809 1.83517C60.4457 1.70409 61.9992 1.21001 63.4228 1.61334C64.6683 1.97598 65.9313 2.27617 67.207 2.51277C68.1744 2.65998 75.4406 3.54933 75.4406 3.54933Z" fill="#512303"/>
<path opacity="0.42" d="M68.5454 4.65446C68.5454 4.65446 66.7994 4.42456 65.8036 4.53951C64.8079 4.65446 60.5411 5.00132 59.0464 5.084C57.5518 5.16669 54.2097 4.47901 53.7534 4.42456C53.2971 4.37011 58.0122 4.42456 58.8619 4.52338C60.1754 4.63989 61.4982 4.59995 62.8022 4.40439C64.2827 4.17651 64.019 4.00106 65.8036 4.11198C67.5882 4.2229 68.5454 4.65446 68.5454 4.65446Z" fill="#512303"/>
</g>
<g style="mix-blend-mode:overlay" opacity="0.5">
<path d="M42.7902 2.88178C42.7902 2.88178 55.1487 2.57324 58.6875 1.87346C62.2263 1.17368 62.7434 1.35518 64.2441 1.87346C65.7448 2.39174 69.6953 2.83943 71.1108 3.0169C72.5264 3.19436 75.7407 3.55333 75.7407 3.55333C75.7407 3.55333 65.5542 1.73834 64.4145 1.45601C63.2748 1.17368 61.5449 0.70582 60.6627 1.00832C59.7806 1.31081 42.7902 2.88178 42.7902 2.88178Z" fill="white"/>
</g>
<g style="mix-blend-mode:overlay" opacity="0.5">
<path d="M38.5436 4.40842C38.5436 4.40842 50.5087 3.97081 52.7516 3.90628C54.9945 3.84174 61.5712 4.54555 62.2283 4.24306C62.8854 3.94056 64.958 3.82964 67.0954 4.07568C69.2329 4.32171 76.9696 5.21912 76.9696 5.084C76.9696 4.94888 65.757 3.48883 64.5625 3.5453C63.368 3.60176 61.6889 4.03131 60.8919 3.90023C60.0949 3.76914 54.8891 3.60378 46.2905 3.90023C37.6919 4.19667 38.5436 4.40842 38.5436 4.40842Z" fill="white"/>
</g>
<path opacity="0.42" d="M39.2433 1.34307C39.2433 1.34307 28.779 1.41164 26.1608 1.04259C23.5427 0.673542 11.4337 0.91554 11.4337 0.91554C11.4337 0.91554 14.6359 0.635226 16.0981 0.635226C17.5602 0.635226 24.7007 0.574727 26.0574 0.635226C35.2218 1.04461 34.1085 1.45399 39.2433 1.34307Z" fill="#512303"/>
<path opacity="0.42" d="M10.2555 4.07567C10.2555 4.07567 18.7162 3.44446 20.6996 3.41824C22.6829 3.39203 31.7033 3.76511 36.2642 3.41824C40.8251 3.07138 43.1593 2.99878 43.1593 2.99878C43.1593 2.99878 30.7989 3.36984 26.7064 3.22061C22.614 3.07138 18.3329 3.29523 16.6619 3.31943C14.9908 3.34363 10.2555 4.07567 10.2555 4.07567Z" fill="#512303"/>
<g style="mix-blend-mode:overlay" opacity="0.5">
<path d="M10.3204 4.06558L16.6618 3.31942L25.1327 3.18228C25.1327 3.18228 16.9741 2.92415 16.0697 2.99877C15.1652 3.07338 10.3204 4.06558 10.3204 4.06558Z" fill="white"/>
</g>
<g style="mix-blend-mode:overlay" opacity="0.5">
<path d="M8.73242 1.20996L15.7208 0.604968H24.6703C24.9846 0.604968 32.0521 0.921582 32.0521 0.921582L39.5718 1.20996C39.5718 1.20996 28.8235 0.508169 26.9679 0.433553C25.1124 0.358937 14.8508 0.433553 14.8508 0.433553L8.73242 1.20996Z" fill="white"/>
</g>
<path opacity="0.42" d="M8.21735 2.62163C8.42014 2.66398 23.1959 3.40409 32.7558 3.00681C42.3157 2.60953 44.733 1.70809 52.0682 1.25232C59.4034 0.796562 61.7274 0.60498 61.7274 0.60498C61.7274 0.60498 47.197 0.65338 44.6925 0.982094C42.1879 1.31081 39.6915 1.34307 28.9412 0.780429C18.1909 0.217784 8.21735 2.62163 8.21735 2.62163Z" fill="#512303"/>
<path d="M22.2205 2.23042C22.5916 2.10741 26.3535 2.89793 33.0377 2.50267C39.7219 2.10741 43.4696 1.59719 43.4696 1.59719C43.4696 1.59719 35.453 1.86742 30.5311 1.3431C25.6092 0.818767 18.7385 2.01666 18.7385 2.01666L22.2205 2.23042Z" fill="#512303"/>
<g opacity="0.66">
<path opacity="0.66" d="M75.6717 80.2848H11.3729C8.96543 80.2848 6.65661 79.3338 4.95431 77.641C3.252 75.9482 2.29565 73.6523 2.29565 71.2583V72.801C2.29565 75.195 3.252 77.4909 4.95431 79.1837C6.65661 80.8765 8.96543 81.8276 11.3729 81.8276H75.6717C78.0792 81.8276 80.388 80.8765 82.0903 79.1837C83.7926 77.4909 84.7489 75.195 84.7489 72.801V71.2603C84.7484 73.6539 83.7918 75.9494 82.0896 77.6417C80.3873 79.3341 78.0788 80.2848 75.6717 80.2848Z" fill="#512303"/>
<path opacity="0.66" d="M77.7768 5.14045L9.83974 5.00735C9.18167 4.99327 8.54483 5.23927 8.06887 5.6914C7.59292 6.14353 7.31667 6.7649 7.30072 7.41926V8.9862C7.30072 7.65117 8.44044 6.56622 9.83974 6.16289L77.7768 6.29599C79.1761 6.69932 80.3077 7.79234 80.3057 9.11929V7.55236C80.2897 6.89978 80.0149 6.27996 79.5411 5.82812C79.0674 5.37627 78.4332 5.12907 77.7768 5.14045Z" fill="#512303"/>
</g>
<g style="mix-blend-mode:overlay" opacity="0.5">
<g style="mix-blend-mode:overlay" opacity="0.5">
<path d="M7.90907 82.0595H78.6853C80.1434 82.0595 81.3217 80.4179 81.3217 78.3912V76.0095C81.3217 78.0262 80.1394 79.6798 78.6853 79.6798H7.90907C6.45096 79.6798 5.27271 78.0362 5.27271 76.0095V78.3912C5.27271 80.4179 6.45501 82.0595 7.90907 82.0595Z" fill="white"/>
</g>
<g style="mix-blend-mode:overlay" opacity="0.5">
<path d="M75.6717 0.840942H11.3729C8.96543 0.840942 6.65661 1.79195 4.95431 3.48475C3.252 5.17755 2.29565 7.47348 2.29565 9.86746V11.4102C2.29539 10.2247 2.52998 9.05066 2.98603 7.95528C3.44209 6.8599 4.11067 5.86459 4.95359 5.02618C5.79651 4.18778 6.79726 3.52271 7.89869 3.06896C9.00012 2.61521 10.1807 2.38166 11.3729 2.38166H75.6717C76.8639 2.38166 78.0445 2.61521 79.1459 3.06896C80.2473 3.52271 81.2481 4.18778 82.091 5.02618C82.9339 5.86459 83.6025 6.8599 84.0586 7.95528C84.5146 9.05066 84.7492 10.2247 84.7489 11.4102V9.86746C84.7489 7.47348 83.7926 5.17755 82.0903 3.48475C80.388 1.79195 78.0792 0.840942 75.6717 0.840942Z" fill="white"/>
</g>
</g>
<path d="M0.162238 9.59727C-0.332587 8.24208 0.427903 7.19745 0.799022 7.02805L0.979511 6.94739L1.12147 7.07645C1.87564 7.67867 2.74599 8.12068 3.67874 8.37518C4.21116 8.52977 4.75825 8.62912 5.31126 8.67162C7.45077 8.83296 8.00644 8.55667 8.09769 8.49819L8.31469 8.13116L8.58035 8.49617C8.60266 8.52642 9.11371 9.2504 8.81965 10.0248C8.58441 10.6439 7.91923 11.0755 6.84441 11.3034C5.38348 11.605 3.87123 11.5552 2.43357 11.1582C1.71972 10.9545 0.486714 10.4866 0.162238 9.59727ZM5.24434 9.323C4.65169 9.279 4.0652 9.17425 3.4942 9.01042C2.56529 8.7511 1.69178 8.32533 0.916644 7.75405C0.755173 7.98249 0.654814 8.24803 0.625013 8.52569C0.595211 8.80334 0.636948 9.08396 0.746294 9.34115C0.908532 9.78683 1.62441 10.2386 2.61203 10.5229C3.96124 10.8904 5.37854 10.9367 6.74909 10.658C7.58056 10.4826 8.09769 10.1861 8.24574 9.80296C8.31474 9.58811 8.30174 9.3555 8.20923 9.14957C7.7793 9.323 6.92755 9.44803 5.24434 9.323Z" fill="#593C12"/>
<path d="M0.912615 7.32849C0.912615 7.32849 2.53499 8.79056 5.27681 8.99424C8.01863 9.19792 8.33499 8.70183 8.33499 8.70183C8.33499 8.70183 9.55178 10.3958 6.79982 10.9806C4.04786 11.5655 0.904503 10.7003 0.454293 9.47824C0.00408348 8.25615 0.728069 7.41319 0.912615 7.32849Z" fill="#D39D3B"/>
<path d="M0.567789 7.71973C0.503428 8.09949 0.542646 8.48948 0.681356 8.84905C1.13157 10.0792 4.27289 10.9464 7.02688 10.3595C7.88674 10.178 8.35926 9.88762 8.60261 9.57504C8.58436 10.0832 8.22135 10.6782 6.79975 10.9867C4.0559 11.5675 0.904433 10.7003 0.454223 9.47825C0.338085 9.19569 0.287964 8.89061 0.307636 8.586C0.327308 8.28138 0.416261 7.98518 0.567789 7.71973Z" fill="#91671E"/>
<path d="M4.24251 9.1415C5.52334 9.2901 6.81789 9.2779 8.09566 9.1052C8.36538 9.07293 8.38566 9.81103 7.40615 10.0671C6.42664 10.3233 3.67062 10.5975 2.11517 9.47828C0.559714 8.35904 2.37475 8.90152 4.24251 9.1415Z" fill="#F5C15E"/>
<path d="M5.17536 11.4949C5.21997 11.4667 6.29885 10.7629 6.69634 10.0833C6.92003 9.70557 7.16584 9.34127 7.43249 8.99225L7.14857 8.74622C6.86926 9.10868 6.61257 9.48785 6.37997 9.88159C6.03116 10.4725 4.9969 11.148 4.98676 11.1541L5.17536 11.4949Z" fill="#593C12"/>
<path d="M2.25105 11.0915C2.46739 11.0231 2.66182 10.8993 2.81482 10.7326C2.88377 10.662 2.95678 10.5995 3.04196 10.5309C3.32925 10.295 3.58545 10.024 3.80447 9.72426C4.06588 9.38529 4.38756 9.09684 4.75356 8.87323L4.58727 8.52637C4.17149 8.77888 3.8075 9.10732 3.51447 9.49436C3.31279 9.76941 3.07704 10.0181 2.81279 10.2345C2.724 10.3063 2.63936 10.383 2.5593 10.4644C2.4553 10.5786 2.32425 10.6653 2.17804 10.7164L2.25105 11.0915Z" fill="#593C12"/>
<path d="M0.405595 9.56699C0.405595 9.56699 0.870001 8.86116 1.16406 8.49211C1.37602 8.26487 1.63954 8.09132 1.93266 7.98593L1.82518 7.61285C1.46457 7.74291 1.14197 7.95977 0.886224 8.24407C0.58 8.62723 0.125735 9.32297 0.107483 9.35121L0.405595 9.56699Z" fill="#593C12"/>
<path d="M0.673291 4.19867C0.92476 2.78702 2.10707 2.25059 2.51469 2.29092L2.71749 2.30907L2.7763 2.49259C3.12689 3.38929 3.65909 4.20476 4.33986 4.88837C4.72435 5.28457 5.14911 5.64006 5.60735 5.94912C7.38182 7.15911 7.99833 7.18936 8.10986 7.18331L8.48504 6.98165L8.51749 7.42934C8.51749 7.46766 8.60063 8.34692 7.95777 8.87125C7.44266 9.29273 6.64972 9.33508 5.60532 9.00031C4.18634 8.53324 2.89959 7.73689 1.85154 6.67713C1.34049 6.15079 0.509026 5.12835 0.673291 4.19867ZM5.21392 6.48555C4.72234 6.15379 4.26635 5.77265 3.85315 5.34816C3.17936 4.66085 2.63715 3.85719 2.25308 2.97658C1.99801 3.09381 1.77731 3.27391 1.61191 3.49979C1.44651 3.72568 1.34192 3.98985 1.30805 4.26724C1.2249 4.7351 1.6163 5.47723 2.32203 6.21734C3.30889 7.20722 4.51638 7.95198 5.84665 8.39128C6.65784 8.64942 7.25203 8.65143 7.57245 8.39128C7.74076 8.24051 7.84636 8.03266 7.86854 7.80847C7.41021 7.74394 6.60917 7.42934 5.21392 6.48555Z" fill="#593C12"/>
<path d="M2.46194 2.60752C2.46194 2.60752 3.12509 4.67459 5.40656 6.21733C7.68803 7.76006 8.20313 7.48176 8.20313 7.48176C8.20313 7.48176 8.40593 9.55488 5.72901 8.69175C3.05208 7.82863 0.762503 5.5236 0.989636 4.23496C1.21677 2.94632 2.25915 2.58937 2.46194 2.60752Z" fill="#D39D3B"/>
<path d="M1.96712 2.7749C1.72036 3.07165 1.55854 3.42902 1.49866 3.80944C1.27152 5.1001 3.55705 7.40916 6.23803 8.26825C7.07355 8.53647 7.62719 8.52033 7.99628 8.36909C7.72453 8.80065 7.11208 9.13743 5.72901 8.69377C3.04194 7.83467 0.762503 5.52359 0.989636 4.23496C1.03149 3.9341 1.14113 3.64653 1.31039 3.39372C1.47965 3.1409 1.70414 2.92936 1.96712 2.7749Z" fill="#91671E"/>
<path d="M4.4352 5.83216C5.47291 6.59986 6.60401 7.23408 7.80164 7.71975C8.05108 7.82461 7.70024 8.47397 6.72073 8.20979C5.74122 7.94561 3.21031 6.79814 2.4194 5.0739C1.62849 3.34967 2.93856 4.69477 4.4352 5.83216Z" fill="#F5C15E"/>
<path d="M4.05597 8.33077C4.11072 8.33077 5.39646 8.25212 6.08394 7.86694C6.46757 7.65091 6.86372 7.45764 7.27031 7.28816L7.14863 6.93323C6.72426 7.10963 6.31113 7.31167 5.91156 7.53822C5.30317 7.87904 4.08639 7.94155 4.06611 7.94155L4.05597 8.33077Z" fill="#593C12"/>
<path d="M1.72986 6.53599C1.95185 6.58463 2.18287 6.57349 2.39909 6.50372C2.4944 6.47751 2.58972 6.45936 2.69923 6.43919C3.06602 6.37722 3.42365 6.27019 3.76391 6.12056C4.16103 5.95314 4.58605 5.86081 5.0172 5.84831L5.04559 5.46515C4.55727 5.47626 4.07552 5.5796 3.62601 5.76966C3.31273 5.90695 2.98381 6.00582 2.6465 6.06409C2.5331 6.0825 2.42074 6.10673 2.30986 6.13669C2.16244 6.18321 2.00589 6.19359 1.85356 6.16694L1.72986 6.53599Z" fill="#593C12"/>
<path d="M0.904506 4.29747C0.904506 4.29747 1.66094 3.91633 2.10101 3.74289C2.39696 3.65206 2.71018 3.63134 3.01562 3.6824L3.11094 3.3073C2.73289 3.23962 2.34381 3.26735 1.97933 3.38796C1.52101 3.56745 0.778772 3.94254 0.748352 3.95868L0.904506 4.29747Z" fill="#593C12"/>
<path opacity="0.39" d="M44.9338 2.65792L45.8444 2.63776L47.8602 1.64758L45.6132 0.945787C45.6132 0.945787 45.7065 0.542457 45.6456 0.490025C45.5848 0.437592 44.9257 0.0665283 44.9257 0.0665283L44.7006 0.0947614L44.295 0.147194L44.3842 1.2745L44.806 1.8795L44.1206 1.58305L43.1289 2.9947L44.7269 2.34131L44.9338 2.65792Z" fill="#512303"/>
<path opacity="0.39" d="M45.4894 5.71517C45.8808 5.41469 45.9701 3.41417 45.9721 3.35367C45.9741 3.29317 44.9135 3.07739 44.9135 3.07739C44.9135 3.07739 44.5748 3.42426 44.4592 3.52509C44.3436 3.62592 42.2122 4.10185 42.1149 4.14017C42.0175 4.17848 44.0313 4.19663 44.0313 4.19663C44.0313 4.19663 43.4087 5.72122 43.4391 5.78575C43.4696 5.85029 44.5991 5.13437 44.5991 5.13437C44.5991 5.13437 45.098 6.01565 45.4894 5.71517Z" fill="#512303"/>
<path d="M44.9845 0.102835C44.9845 0.102835 45.1163 1.51449 45.1711 1.56692C45.2258 1.61936 47.3025 1.66372 47.3025 1.66372L45.0534 2.16385C45.0534 2.16385 44.9622 2.52281 45.0149 2.56718C45.0676 2.61155 45.8768 2.58936 45.8444 2.62768C45.8119 2.666 44.9115 3.11974 44.8811 3.38392C44.8506 3.6481 45.3678 5.87045 45.4895 5.82003C45.6111 5.76962 43.5223 5.78373 43.4392 5.77567C43.356 5.7676 44.2727 5.11219 44.4207 4.78953C44.5688 4.46686 44.7067 2.58735 44.5708 2.666C44.0944 2.79996 43.6102 2.90435 43.1208 2.97858C43.1634 2.95639 44.7067 1.8674 44.7634 1.8069C44.8202 1.7464 44.7006 0.0846856 44.7006 0.0846856L44.9804 0.0604858L44.9845 0.102835Z" fill="#512303"/>
<path d="M45.6436 0.542463L45.6131 0.945792L47.8297 1.63952C47.8297 1.63952 45.9863 0.917559 45.9011 0.891343C45.8159 0.865126 45.9011 0.629179 45.9153 0.562629C45.9295 0.49608 45.8524 0.419447 45.7125 0.346848C45.5091 0.270123 45.3003 0.208117 45.0879 0.161316C45.2853 0.269794 45.4715 0.397467 45.6436 0.542463Z" fill="#E6B554"/>
<path d="M47.8094 3.26895C47.8094 3.26895 46.6778 4.27728 46.3229 4.2914C45.968 4.30551 45.7673 4.23493 45.8585 4.03327C45.9498 3.8316 46.4933 3.58355 46.7954 3.5654C46.9725 3.55526 47.1487 3.53303 47.3227 3.49885C47.3227 3.49885 46.329 3.48272 46.2438 3.3839C46.1191 3.25678 45.9729 3.15236 45.8119 3.07536C45.6861 3.02696 45.8443 2.64783 45.8443 2.64783C45.8443 2.64783 45.0575 3.11771 45.1467 3.13586C45.4385 3.20652 45.7251 3.29681 46.0045 3.40609C45.815 3.82767 45.6031 4.23897 45.3698 4.63826C45.3961 4.63826 46.0654 4.48903 46.5054 4.36601C46.9455 4.243 47.8094 3.26895 47.8094 3.26895Z" fill="#E6B554"/>
<path d="M44.1814 1.61332C44.2503 1.64357 44.7736 1.78473 44.7736 1.78473L44.4247 1.27452L44.295 0.250061C44.295 0.250061 44.2057 0.637258 44.0739 0.681624C43.9421 0.72599 42.0723 0.740107 42.0723 0.740107C42.0723 0.740107 42.4596 0.740107 43.2546 0.838923C44.0496 0.937738 44.2118 0.909505 44.228 1.1152C44.2443 1.3209 44.2422 1.28662 43.863 1.31687C43.4838 1.34712 41.3098 1.7202 41.904 1.79078C42.4982 1.86136 43.8691 1.57903 43.8508 1.63752C43.8326 1.696 43.1654 2.92414 43.1208 2.98665C43.0761 3.04917 44.1124 1.57702 44.1814 1.61332Z" fill="#E6B554"/>
<path d="M44.6154 2.72451C44.5809 2.58335 44.3923 2.7346 44.147 2.79308C43.9016 2.85156 42.8754 3.09356 42.9525 3.07944C44.5404 2.783 44.3842 3.35976 44.3842 3.35976L42.123 4.1402L44.5566 3.50294C44.6154 3.47874 44.6438 2.86366 44.6154 2.72451Z" fill="#E6B554"/>
<path d="M46.475 3.44649L47.489 3.46666C47.489 3.46666 48.6855 2.10542 48.503 2.25667C47.9656 2.67815 47.633 2.92821 47.633 2.92821L47.3815 3.17827L47.0692 2.90401H46.6636C46.6636 2.90401 46.8928 3.13592 46.8867 3.16617C46.7555 3.26807 46.618 3.36169 46.475 3.44649Z" fill="#512303"/>
<path d="M46.7975 2.93018C46.8552 2.84582 46.9369 2.78038 47.032 2.74212C47.1272 2.70386 47.2316 2.6945 47.3321 2.71523C47.4326 2.73595 47.5246 2.78583 47.5966 2.85857C47.6686 2.9313 47.7173 3.02362 47.7366 3.12387C47.7558 3.22412 47.7448 3.32779 47.7048 3.42179C47.6648 3.51579 47.5977 3.5959 47.512 3.652C47.4263 3.7081 47.3257 3.73767 47.2231 3.73698C47.1205 3.73629 47.0204 3.70536 46.9354 3.64811C46.8787 3.6102 46.83 3.56149 46.7924 3.50478C46.7547 3.44808 46.7287 3.38451 46.7158 3.31775C46.703 3.25099 46.7036 3.18236 46.7176 3.11584C46.7317 3.04931 46.7588 2.98621 46.7975 2.93018Z" fill="#512303"/>
<path d="M47.2944 3.56742C47.2254 3.58051 47.1542 3.57299 47.0895 3.54582C47.0249 3.51864 46.9698 3.47302 46.9313 3.41473C46.8927 3.35643 46.8724 3.28808 46.8729 3.21831C46.8734 3.14853 46.8946 3.08047 46.934 3.02272C46.9734 2.96496 47.0291 2.92012 47.0941 2.89384C47.1591 2.86756 47.2305 2.86104 47.2992 2.87509C47.368 2.88914 47.431 2.92313 47.4803 2.97278C47.5296 3.02242 47.563 3.08549 47.5762 3.154C47.5851 3.19956 47.5848 3.24639 47.5754 3.29184C47.566 3.33728 47.5477 3.38043 47.5215 3.41883C47.4953 3.45723 47.4618 3.49011 47.4228 3.51561C47.3838 3.54111 47.3402 3.55871 47.2944 3.56742Z" fill="#6D717E"/>
<path d="M47.5762 3.28914L46.9333 3.02496L46.8907 3.10966L47.5519 3.36376L47.5762 3.28914Z" fill="#242833"/>
<path opacity="0.39" d="M47.5133 3.22662L47.0145 3.01487C47.0414 2.97351 47.0809 2.94169 47.1271 2.92395C47.1734 2.9062 47.2241 2.90344 47.272 2.91605C47.4647 2.94025 47.6208 3.2367 47.5133 3.22662Z" fill="white"/>
<path opacity="0.39" d="M47.4546 3.38191L47.0652 3.22662C47.0652 3.22662 47.1118 3.54324 47.268 3.52307C47.4241 3.5029 47.5458 3.40409 47.4546 3.38191Z" fill="white"/>
<path d="M47.4809 3.1722C47.4809 3.1722 47.2781 3.09557 47.2781 3.02902C47.2781 2.96247 47.3511 2.93021 47.4363 3.02902C47.5214 3.12784 47.5458 3.20044 47.4809 3.1722Z" fill="white"/>
<path d="M46.2033 0.885313L47.2173 0.903463C47.2173 0.903463 48.6146 0.403334 48.3813 0.403334C46.7468 0.4356 47.3674 0.350901 47.3674 0.350901L47.1098 0.604999L46.7955 0.342834H46.3899C46.3899 0.342834 46.619 0.574749 46.613 0.604999C46.4829 0.707444 46.346 0.801093 46.2033 0.885313Z" fill="#512303"/>
<path d="M46.5237 0.367044C46.5815 0.282163 46.6633 0.216217 46.7587 0.177542C46.8542 0.138866 46.959 0.129197 47.06 0.149758C47.1609 0.170319 47.2535 0.220186 47.326 0.293055C47.3984 0.365924 47.4475 0.458524 47.4671 0.559149C47.4867 0.659774 47.4758 0.763906 47.4358 0.858382C47.3959 0.952857 47.3287 1.03344 47.2427 1.08993C47.1567 1.14642 47.0558 1.1763 46.9527 1.17577C46.8497 1.17525 46.7491 1.14435 46.6637 1.08699C46.6069 1.04887 46.5583 1.00001 46.5205 0.94319C46.4828 0.886371 46.4567 0.822713 46.4437 0.755852C46.4307 0.688991 46.4311 0.620238 46.4448 0.553525C46.4585 0.486811 46.4854 0.423443 46.5237 0.367044Z" fill="#512303"/>
<path d="M47.2517 0.857111C47.2122 0.914652 47.1565 0.959274 47.0915 0.985353C47.0265 1.01143 46.9552 1.0178 46.8866 1.00365C46.818 0.989509 46.7551 0.955484 46.7059 0.905867C46.6567 0.85625 46.6234 0.793262 46.6102 0.724842C46.5969 0.656421 46.6043 0.58563 46.6315 0.521391C46.6586 0.457152 46.7043 0.40234 46.7627 0.363863C46.8211 0.325386 46.8897 0.304967 46.9597 0.305177C47.0298 0.305388 47.0982 0.32622 47.1564 0.365048C47.1953 0.391008 47.2287 0.424369 47.2545 0.463207C47.2804 0.502046 47.2983 0.545593 47.3071 0.591337C47.316 0.637082 47.3157 0.684118 47.3062 0.729733C47.2967 0.775348 47.2782 0.81864 47.2517 0.857111Z" fill="#6D717E"/>
<path d="M47.2497 0.461792L46.6069 0.72799L46.6373 0.816722L47.2862 0.530358L47.2497 0.461792Z" fill="#242833"/>
<path opacity="0.39" d="M47.1585 0.457795L46.6555 0.65946C46.6429 0.610515 46.6471 0.558797 46.6672 0.512436C46.6874 0.466076 46.7226 0.427702 46.7671 0.403346C46.9232 0.294447 47.2517 0.403346 47.1585 0.457795Z" fill="white"/>
<path opacity="0.39" d="M47.2314 0.605019L46.8461 0.772401C46.8461 0.772401 47.1017 0.963983 47.1949 0.842984C47.2882 0.721985 47.3105 0.564686 47.2314 0.605019Z" fill="white"/>
<path d="M47.0996 0.445675C47.0996 0.445675 46.907 0.528358 46.8482 0.494075C46.7893 0.459792 46.8299 0.371059 46.9617 0.385175C47.0935 0.399292 47.1665 0.421475 47.0996 0.445675Z" fill="white"/>
<path d="M41.906 4.26318L42.92 4.28335C42.92 4.28335 44.3173 3.78322 44.0861 3.78725C42.4495 3.81952 43.0721 3.73684 43.0721 3.73684L42.8206 3.9869L42.5083 3.7207L42.1027 3.73079C42.1857 3.80984 42.2604 3.89699 42.3258 3.99093C42.1922 4.09099 42.0519 4.18195 41.906 4.26318Z" fill="#512303"/>
<path d="M42.2264 3.74491C42.2842 3.66003 42.366 3.59409 42.4614 3.55541C42.5569 3.51673 42.6617 3.50707 42.7627 3.52763C42.8636 3.54819 42.9562 3.59805 43.0287 3.67092C43.1011 3.74379 43.1503 3.83639 43.1698 3.93702C43.1894 4.03764 43.1785 4.14177 43.1385 4.23625C43.0986 4.33073 43.0314 4.4113 42.9454 4.4678C42.8594 4.52429 42.7585 4.55417 42.6554 4.55364C42.5524 4.55312 42.4518 4.52222 42.3664 4.46486C42.2522 4.38753 42.1734 4.26844 42.1472 4.13356C42.121 3.99869 42.1495 3.85898 42.2264 3.74491Z" fill="#512303"/>
<path d="M42.9525 4.23498C42.9258 4.27338 42.8919 4.30619 42.8525 4.33153C42.8131 4.35687 42.7691 4.37425 42.7229 4.38268C42.6768 4.39111 42.6295 4.39041 42.5836 4.38064C42.5377 4.37087 42.4942 4.35221 42.4556 4.32573C42.417 4.29924 42.384 4.26546 42.3585 4.22629C42.333 4.18713 42.3156 4.14336 42.3071 4.09748C42.2986 4.0516 42.2993 4.00451 42.3091 3.9589C42.319 3.91329 42.3377 3.87005 42.3644 3.83165C42.4181 3.7541 42.5007 3.70097 42.5939 3.68395C42.6871 3.66693 42.7832 3.68741 42.8612 3.7409C42.9392 3.79438 42.9926 3.87649 43.0097 3.96914C43.0269 4.0618 43.0063 4.15742 42.9525 4.23498Z" fill="#6D717E"/>
<path d="M42.9545 3.83966L42.3096 4.10586L42.34 4.19459L42.9889 3.90823L42.9545 3.83966Z" fill="#242833"/>
<path opacity="0.39" d="M42.8612 3.83164L42.3583 4.0333C42.3473 3.98552 42.3522 3.93548 42.3723 3.89073C42.3924 3.84599 42.4267 3.80897 42.4698 3.78525C42.626 3.67232 42.9484 3.77114 42.8612 3.83164Z" fill="white"/>
<path opacity="0.39" d="M42.9362 3.98893L42.5489 4.15429C42.5489 4.15429 42.8044 4.34587 42.8977 4.22487C42.991 4.10388 43.0133 3.94254 42.9362 3.98893Z" fill="white"/>
<path d="M42.8024 3.83161C42.8024 3.83161 42.6097 3.91429 42.5509 3.88001C42.4921 3.84572 42.5327 3.75901 42.6645 3.77111C42.7963 3.78321 42.8693 3.79934 42.8024 3.83161Z" fill="white"/>
<path d="M42.3542 1.36731L43.3682 1.38546C43.3682 1.38546 44.0617 1.06078 43.8934 1.04061C43.7604 0.986571 43.6333 0.91899 43.5142 0.838948L43.2607 1.08901L42.9484 0.822815H42.5428C42.5428 0.822815 42.774 1.05473 42.7659 1.08498C42.6352 1.18819 42.4976 1.28252 42.3542 1.36731Z" fill="#512303"/>
<path d="M42.6767 0.849018C42.7346 0.764244 42.8166 0.698465 42.9121 0.660001C43.0077 0.621536 43.1125 0.612113 43.2135 0.632924C43.3144 0.653734 43.4069 0.703843 43.4792 0.776914C43.5515 0.849985 43.6004 0.942735 43.6197 1.04343C43.639 1.14413 43.6278 1.24826 43.5876 1.34264C43.5473 1.43703 43.4799 1.51743 43.3937 1.57368C43.3075 1.62994 43.2065 1.65951 43.1034 1.65867C43.0003 1.65783 42.8998 1.62661 42.8146 1.56896C42.7003 1.49167 42.6216 1.3724 42.5957 1.23739C42.5698 1.10237 42.599 0.962677 42.6767 0.849018Z" fill="#512303"/>
<path d="M43.3986 1.33906C43.3589 1.39649 43.303 1.44095 43.2379 1.46682C43.1728 1.49268 43.1015 1.49881 43.0329 1.48441C42.9643 1.47002 42.9015 1.43575 42.8525 1.38594C42.8035 1.33612 42.7704 1.27298 42.7574 1.20449C42.7444 1.13599 42.7521 1.06521 42.7796 1.00106C42.807 0.936915 42.8529 0.882277 42.9115 0.844039C42.9701 0.805802 43.0388 0.785678 43.1089 0.786204C43.1789 0.78673 43.2473 0.807884 43.3053 0.846997C43.3441 0.873113 43.3772 0.906591 43.4029 0.945502C43.4286 0.984414 43.4463 1.02799 43.4549 1.07373C43.4636 1.11946 43.4631 1.16645 43.4534 1.21199C43.4438 1.25752 43.4251 1.30071 43.3986 1.33906Z" fill="#6D717E"/>
<path d="M43.4027 0.943787L42.7598 1.20998L42.7902 1.29872L43.4392 1.01235L43.4027 0.943787Z" fill="#242833"/>
<path opacity="0.39" d="M43.3114 0.939782L42.8064 1.14145C42.796 1.09339 42.8011 1.04327 42.8212 0.998319C42.8412 0.953371 42.8751 0.915922 42.918 0.891382C43.0762 0.776433 43.3986 0.875249 43.3114 0.939782Z" fill="white"/>
<path opacity="0.39" d="M43.3844 1.09096L42.9991 1.25835C42.9991 1.25835 43.2546 1.46001 43.3459 1.32893C43.4371 1.19785 43.4635 1.0466 43.3844 1.09096Z" fill="white"/>
<path d="M43.2526 0.927669C43.2526 0.927669 43.0599 1.01035 42.9991 0.976069C42.9382 0.941786 42.9808 0.853054 43.1126 0.86717C43.2445 0.881287 43.3175 0.901453 43.2526 0.927669Z" fill="white"/>
<path opacity="0.39" d="M3.71727 43.6282L3.69699 42.6683L2.63636 40.5488L1.89412 42.9123C1.89412 42.9123 1.45608 42.8135 1.40944 42.878C1.36279 42.9425 0.959229 43.6363 0.959229 43.6363L0.98762 43.8722L1.0444 44.3078L2.24496 44.217L2.88377 43.7714L2.56741 44.4933L4.07014 45.538L3.37657 43.8541L3.71727 43.6282Z" fill="#512303"/>
<path opacity="0.39" d="M6.97422 43.0434C6.6538 42.64 4.52443 42.5352 4.45954 42.5331C4.39464 42.5311 4.16345 43.6484 4.16345 43.6484C4.16345 43.6484 4.53457 44.0073 4.64205 44.1283C4.74954 44.2493 5.25045 46.4959 5.29709 46.5947C5.34373 46.6935 5.3559 44.578 5.3559 44.578C5.3559 44.578 6.97828 45.2355 7.04926 45.2032C7.12024 45.1709 6.35569 43.9811 6.35569 43.9811C6.35569 43.9811 7.30073 43.4548 6.97422 43.0434Z" fill="#512303"/>
<path d="M0.995738 43.5738C0.995738 43.5738 2.48833 43.4346 2.55525 43.3721C2.62217 43.3096 2.6607 41.1276 2.6607 41.1276L3.19203 43.4951C3.19203 43.4951 3.57532 43.5919 3.6321 43.5354C3.68888 43.479 3.65644 42.628 3.697 42.6622C3.73756 42.6965 4.22021 43.6443 4.50819 43.6706C4.79616 43.6968 7.15672 43.1604 7.10399 43.0313C7.05126 42.9022 7.06343 45.1024 7.05532 45.1911C7.04721 45.2799 6.34958 44.3119 6.00483 44.1546C5.66007 43.9973 3.66049 43.8541 3.74364 43.9973C3.88635 44.4994 3.99743 45.01 4.07623 45.5259C4.05189 45.4795 2.89189 43.8541 2.82902 43.7956C2.76616 43.7371 1.00385 43.8601 1.00385 43.8601L0.967346 43.5677L0.995738 43.5738Z" fill="#512303"/>
<path d="M4.36822 40.5992C4.36822 40.5992 5.45116 41.791 5.45927 42.1641C5.46738 42.5372 5.38626 42.751 5.1713 42.6521C4.95633 42.5533 4.69269 41.9846 4.67444 41.666C4.6643 41.4803 4.64057 41.2957 4.60346 41.1134C4.60346 41.1134 4.58724 42.1581 4.48179 42.2488C4.34554 42.3795 4.23363 42.5331 4.15123 42.7026C4.10053 42.8357 3.69696 42.6683 3.69696 42.6683C3.69696 42.6683 4.19584 43.4971 4.21612 43.4023C4.29198 43.0959 4.38818 42.7947 4.50409 42.5009C4.95796 42.6995 5.4007 42.9223 5.83039 43.1684C5.83039 43.1402 5.67221 42.4343 5.54039 41.9725C5.40857 41.5107 4.36822 40.5992 4.36822 40.5992Z" fill="#E6B554"/>
<path d="M3.78826 43.9629C3.64021 44.0013 3.80042 44.1969 3.86329 44.455C3.92616 44.7131 4.18371 45.7961 4.16749 45.7154C3.85315 44.0497 4.46154 44.217 4.46154 44.217L5.29301 46.5947C5.29301 46.5947 4.63798 44.1283 4.61364 44.0416C4.5893 43.9549 3.93833 43.9327 3.78826 43.9629Z" fill="#E6B554"/>
<path d="M4.55892 42.0048L4.5792 40.936C4.5792 40.936 3.1292 39.6756 3.28332 39.8692C3.7315 40.4338 3.99717 40.7847 3.99717 40.7847L4.25878 41.0489L3.97689 41.3796L3.98703 41.8051C3.98703 41.8051 4.23444 41.5631 4.26486 41.5712C4.37266 41.7089 4.47091 41.8538 4.55892 42.0048Z" fill="#512303"/>
<path d="M4.00727 41.666C3.91709 41.605 3.84713 41.5187 3.80623 41.4182C3.76533 41.3176 3.75533 41.2073 3.7775 41.1011C3.79967 40.9948 3.85301 40.8976 3.93077 40.8215C4.00853 40.7454 4.10723 40.694 4.21439 40.6737C4.32154 40.6534 4.43234 40.6651 4.53278 40.7075C4.63322 40.7498 4.71879 40.8208 4.77867 40.9114C4.83855 41.0021 4.87005 41.1084 4.86919 41.2168C4.86833 41.3253 4.83515 41.4311 4.77384 41.5208C4.69124 41.6408 4.56427 41.7234 4.42066 41.7506C4.27704 41.7778 4.12844 41.7474 4.00727 41.666Z" fill="#512303"/>
<path d="M4.68666 41.1396C4.70053 41.212 4.69251 41.2869 4.6636 41.3548C4.6347 41.4227 4.58622 41.4806 4.52427 41.5211C4.46232 41.5616 4.38969 41.583 4.31555 41.5825C4.24141 41.582 4.16908 41.5596 4.10769 41.5183C4.0463 41.4769 3.99862 41.4184 3.97065 41.3501C3.94268 41.2819 3.93568 41.2069 3.95055 41.1346C3.96541 41.0624 4.00146 40.9962 4.05415 40.9443C4.10684 40.8924 4.1738 40.8572 4.24659 40.8432C4.34444 40.8248 4.44561 40.8457 4.52805 40.9012C4.61049 40.9568 4.6675 41.0424 4.68666 41.1396Z" fill="#6D717E"/>
<path d="M4.39053 40.8452L4.10864 41.5228L4.1999 41.5672L4.46962 40.8694L4.39053 40.8452Z" fill="#242833"/>
<path opacity="0.39" d="M4.31757 40.9098L4.09246 41.4361C4.04815 41.4082 4.01399 41.3669 3.99501 41.3183C3.97604 41.2696 3.97323 41.2162 3.98701 41.1659C4.01946 40.9622 4.33582 40.7989 4.31757 40.9098Z" fill="white"/>
<path opacity="0.39" d="M4.48792 40.9702L4.32568 41.3736C4.32568 41.3736 4.6603 41.3252 4.64002 41.1719C4.61974 41.0186 4.51226 40.8775 4.48792 40.9702Z" fill="white"/>
<path d="M4.25874 40.938C4.25874 40.938 4.17762 41.1396 4.10664 41.1598C4.03566 41.18 4.00118 41.0832 4.10664 40.9944C4.21209 40.9057 4.29727 40.8775 4.25874 40.938Z" fill="white"/>
<path d="M2.20643 43.358L2.22671 42.2891C2.22671 42.2891 1.69538 40.817 1.69944 41.061C1.73391 42.7852 1.64468 42.1359 1.64468 42.1359L1.91035 42.4021L1.62238 42.7388L1.6386 43.1563C1.6386 43.1563 1.88601 42.9143 1.91643 42.9224C2.02292 43.0608 2.11981 43.2064 2.20643 43.358Z" fill="#512303"/>
<path d="M1.65482 43.0252C1.56453 42.9644 1.4944 42.8783 1.45329 42.7778C1.41218 42.6774 1.40193 42.5671 1.42385 42.4608C1.44577 42.3546 1.49886 42.2572 1.57642 42.1809C1.65398 42.1047 1.75253 42.053 1.85961 42.0325C1.96669 42.0119 2.0775 42.0234 2.17803 42.0654C2.27856 42.1075 2.36431 42.1782 2.42443 42.2687C2.48455 42.3592 2.51635 42.4653 2.51581 42.5738C2.51527 42.6822 2.48241 42.7881 2.42139 42.878C2.38082 42.9377 2.32879 42.989 2.26829 43.0287C2.20779 43.0685 2.14 43.096 2.0688 43.1096C1.9976 43.1233 1.92439 43.1229 1.85335 43.1084C1.78232 43.0939 1.71485 43.0656 1.65482 43.0252Z" fill="#512303"/>
<path d="M2.17603 42.2609C2.23792 42.3024 2.28604 42.3612 2.31431 42.4299C2.34258 42.4985 2.34972 42.574 2.33484 42.6467C2.31995 42.7195 2.2837 42.7862 2.23068 42.8384C2.17766 42.8906 2.11025 42.9261 2.03698 42.9402C1.96371 42.9543 1.88788 42.9465 1.81907 42.9177C1.75027 42.889 1.69159 42.8406 1.65046 42.7786C1.60933 42.7167 1.5876 42.644 1.58802 42.5698C1.58844 42.4956 1.61099 42.4232 1.65281 42.3617C1.68036 42.3208 1.7158 42.2856 1.75707 42.2584C1.79834 42.2311 1.84464 42.2122 1.89329 42.2029C1.94194 42.1935 1.99197 42.1938 2.0405 42.2037C2.08903 42.2137 2.13509 42.2331 2.17603 42.2609Z" fill="#6D717E"/>
<path d="M1.75623 42.2609L2.03811 42.9365L2.13343 42.9042L1.82923 42.2226L1.75623 42.2609Z" fill="#242833"/>
<path opacity="0.39" d="M1.75017 42.3497L1.96513 42.88C1.91387 42.8914 1.8603 42.8859 1.81242 42.8645C1.76454 42.843 1.72491 42.8067 1.69947 42.7611C1.57576 42.6038 1.68325 42.267 1.75017 42.3497Z" fill="white"/>
<path opacity="0.39" d="M1.91241 42.2791L2.09087 42.6824C2.09087 42.6824 2.29366 42.4122 2.1659 42.3154C2.03814 42.2186 1.86576 42.1964 1.91241 42.2791Z" fill="white"/>
<path d="M1.73795 42.4182C1.73795 42.4182 1.82718 42.6199 1.78865 42.6844C1.75012 42.7489 1.65886 42.7026 1.67306 42.5654C1.68725 42.4283 1.71159 42.3496 1.73795 42.4182Z" fill="white"/>
<path d="M5.42684 46.8165L5.44914 45.7497C5.44914 45.7497 4.91781 44.2756 4.92187 44.5216C4.95432 46.2438 4.86711 45.5965 4.86711 45.5965L5.13278 45.8627L4.85089 46.1914V46.6189C4.85089 46.6189 5.09628 46.3769 5.12872 46.383C5.23729 46.521 5.33687 46.6658 5.42684 46.8165Z" fill="#512303"/>
<path d="M4.87725 46.4777C4.78678 46.4169 4.7165 46.3307 4.67532 46.2301C4.63413 46.1296 4.62389 46.0191 4.6459 45.9127C4.6679 45.8064 4.72116 45.7089 4.79892 45.6327C4.87668 45.5564 4.97545 45.5048 5.08271 45.4845C5.18998 45.4641 5.30091 45.4758 5.40145 45.5182C5.50199 45.5606 5.58763 45.6317 5.6475 45.7225C5.70737 45.8133 5.73879 45.9198 5.73778 46.0284C5.73676 46.137 5.70336 46.2428 5.64179 46.3325C5.60125 46.392 5.54929 46.443 5.4889 46.4826C5.4285 46.5221 5.36085 46.5494 5.28983 46.5629C5.2188 46.5764 5.1458 46.5758 5.075 46.5612C5.0042 46.5466 4.937 46.5182 4.87725 46.4777Z" fill="#512303"/>
<path d="M5.39846 45.7154C5.47483 45.7738 5.52587 45.8589 5.54112 45.9535C5.55638 46.0481 5.53468 46.1448 5.48049 46.224C5.42629 46.3031 5.34371 46.3587 5.24965 46.3793C5.1556 46.3998 5.0572 46.3838 4.97462 46.3345C4.89263 46.2782 4.83623 46.192 4.81764 46.0947C4.79904 45.9973 4.81974 45.8966 4.87525 45.8143C4.90295 45.7735 4.9385 45.7385 4.97985 45.7114C5.0212 45.6844 5.06753 45.6657 5.11617 45.6565C5.1648 45.6473 5.21479 45.6478 5.26324 45.6579C5.31169 45.668 5.35765 45.6876 5.39846 45.7154Z" fill="#6D717E"/>
<path d="M4.97662 45.7134L5.26054 46.391L5.35585 46.3588L5.05166 45.6751L4.97662 45.7134Z" fill="#242833"/>
<path opacity="0.39" d="M4.97258 45.8102L5.18551 46.3405C5.13447 46.3521 5.08106 46.3469 5.0332 46.3258C4.98535 46.3047 4.9456 46.2689 4.91985 46.2236C4.79817 46.0582 4.90566 45.7194 4.97258 45.8102Z" fill="white"/>
<path opacity="0.39" d="M5.13482 45.7315L5.31328 46.1349C5.31328 46.1349 5.51608 45.8646 5.38832 45.7678C5.26055 45.671 5.08615 45.6509 5.13482 45.7315Z" fill="white"/>
<path d="M4.9604 45.8727C4.9604 45.8727 5.0476 46.0744 5.01109 46.1369C4.97459 46.1994 4.8813 46.157 4.8955 46.0179C4.9097 45.8787 4.93403 45.8021 4.9604 45.8727Z" fill="white"/>
<path d="M2.99533 46.4737L3.01561 45.4069C3.01561 45.4069 2.67086 44.6789 2.64855 44.8543C2.59045 44.9955 2.51845 45.1306 2.43358 45.2576L2.70127 45.5238L2.41736 45.8526L2.4275 46.2801C2.4275 46.2801 2.67491 46.0381 2.70533 46.0462C2.81154 46.182 2.90843 46.3249 2.99533 46.4737Z" fill="#512303"/>
<path d="M2.4437 46.1369C2.35341 46.076 2.28328 45.99 2.24217 45.8895C2.20106 45.7891 2.19081 45.6787 2.21273 45.5725C2.23465 45.4663 2.28774 45.3689 2.3653 45.2926C2.44286 45.2164 2.54141 45.1647 2.64849 45.1442C2.75557 45.1236 2.86638 45.1351 2.96691 45.1771C3.06744 45.2191 3.15319 45.2899 3.21331 45.3804C3.27343 45.4708 3.30523 45.577 3.30469 45.6855C3.30415 45.7939 3.27129 45.8998 3.21027 45.9897C3.12798 46.1099 3.00116 46.1929 2.85752 46.2205C2.71389 46.2481 2.56511 46.218 2.4437 46.1369Z" fill="#512303"/>
<path d="M2.96489 45.3746C3.02608 45.4161 3.07355 45.4747 3.10133 45.5429C3.1291 45.6112 3.13593 45.6861 3.12096 45.7582C3.106 45.8304 3.0699 45.8965 3.01721 45.9482C2.96453 46 2.89762 46.0351 2.82491 46.0491C2.75221 46.0631 2.67696 46.0554 2.60864 46.027C2.54033 45.9985 2.48201 45.9506 2.44103 45.8893C2.40005 45.8279 2.37824 45.7559 2.37836 45.6823C2.37847 45.6086 2.4005 45.5366 2.44168 45.4754C2.46922 45.4345 2.50466 45.3993 2.54593 45.3721C2.58721 45.3448 2.6335 45.3259 2.68215 45.3166C2.7308 45.3072 2.78083 45.3075 2.82936 45.3175C2.87789 45.3274 2.92395 45.3468 2.96489 45.3746Z" fill="#6D717E"/>
<path d="M2.5451 45.3706L2.82699 46.0482L2.92231 46.0159L2.61811 45.3343L2.5451 45.3706Z" fill="#242833"/>
<path opacity="0.39" d="M2.54108 45.4694L2.75401 45.9997C2.70275 46.0111 2.64918 46.0056 2.6013 45.9841C2.55342 45.9627 2.51379 45.9264 2.48835 45.8807C2.36667 45.7154 2.47213 45.3746 2.54108 45.4694Z" fill="white"/>
<path opacity="0.39" d="M2.70326 45.3907L2.87969 45.7941C2.87969 45.7941 3.08249 45.5238 2.95473 45.427C2.82696 45.3302 2.65459 45.308 2.70326 45.3907Z" fill="white"/>
<path d="M2.52889 45.5299C2.52889 45.5299 2.61609 45.7316 2.57958 45.7961C2.54308 45.8606 2.4498 45.8163 2.46196 45.6771C2.47413 45.538 2.50049 45.4613 2.52889 45.5299Z" fill="white"/>
<path opacity="0.39" d="M83.0677 42.7348L83.0434 43.846L81.8367 46.3002L80.9809 43.5596C80.9809 43.5596 80.48 43.6746 80.4253 43.5999C80.3705 43.5253 79.9102 42.7207 79.9102 42.7207L79.9446 42.4464L80.0075 41.9422L81.3825 42.0491L82.1125 42.5654L81.7515 41.7285L83.4692 40.5185L82.6763 42.4706L83.0677 42.7348Z" fill="#512303"/>
<path opacity="0.39" d="M86.3714 43.4407C86.0043 43.9186 83.9885 43.9993 83.9155 44.0013C83.8425 44.0033 83.5789 42.7106 83.5789 42.7106C83.5789 42.7106 84.0007 42.3073 84.1244 42.1561C84.2481 42.0048 84.8281 39.4134 84.8727 39.2985C84.9173 39.1835 84.9417 41.6358 84.9417 41.6358C84.9417 41.6358 86.3775 40.9037 86.4566 40.94C86.5357 40.9763 86.0834 42.3255 86.0834 42.3255C86.0834 42.3255 86.7385 42.9547 86.3714 43.4407Z" fill="#512303"/>
<path d="M79.9548 42.7973C79.9548 42.7973 81.6624 42.9586 81.7374 43.0232C81.8125 43.0877 81.8571 45.6247 81.8571 45.6247L82.4655 42.882C82.4655 42.882 82.9035 42.7711 82.9704 42.8336C83.0374 42.8961 82.9968 43.8843 83.0434 43.8419C83.0901 43.7996 83.6417 42.7045 83.9641 42.6662C84.2866 42.6279 86.5721 43.2894 86.5113 43.4366C86.4504 43.5838 86.4667 41.0388 86.4565 40.9359C86.4464 40.8331 86.0712 41.9241 85.6778 42.1056C85.2843 42.2871 82.9948 42.4545 83.0901 42.2891C83.2534 41.7073 83.3801 41.116 83.4693 40.5185C83.443 40.5729 82.1167 42.4545 82.0497 42.523C81.9828 42.5916 79.9508 42.4464 79.9508 42.4464L79.9082 42.7872L79.9548 42.7973Z" fill="#512303"/>
<path d="M80.4902 43.6L80.981 43.5637L81.8266 46.268C81.8266 46.268 80.9465 44.0194 80.9161 43.9145C80.8856 43.8097 80.5956 43.9145 80.5105 43.9307C80.4253 43.9468 80.3361 43.8561 80.2489 43.6867C80.1549 43.4383 80.079 43.1836 80.0217 42.9244C80.0217 42.9244 80.4253 43.604 80.4902 43.6Z" fill="#E6B554"/>
<path d="M83.8121 46.2438C83.8121 46.2438 85.0491 44.8624 85.0593 44.4288C85.0694 43.9952 84.9761 43.7512 84.7307 43.8641C84.4853 43.977 84.1832 44.6365 84.1609 45.0055C84.1486 45.2209 84.1215 45.4352 84.0798 45.6468C84.0798 45.6468 84.0615 44.4368 83.9398 44.332C83.7845 44.1799 83.6575 44.0017 83.5646 43.8056C83.5058 43.6524 83.0435 43.846 83.0435 43.846C83.0435 43.846 83.6154 42.886 83.6377 42.9949C83.7242 43.3505 83.834 43.7002 83.9662 44.0416C84.4852 43.8102 84.9915 43.5517 85.4831 43.2672C85.4831 43.2995 85.3006 44.1162 85.1526 44.6506C85.0045 45.185 83.8121 46.2438 83.8121 46.2438Z" fill="#E6B554"/>
<path d="M81.7881 41.8173C81.8246 41.902 81.9909 42.5392 81.9909 42.5392L81.3683 42.1137L80.1211 41.9564C80.1211 41.9564 80.5936 41.8475 80.6463 41.6862C80.6991 41.5248 80.7193 39.244 80.7193 39.244C80.7193 39.244 80.7315 39.7179 80.837 40.6859C80.9424 41.6539 80.9242 41.8556 81.1756 41.8737C81.4271 41.8919 81.3784 41.8919 81.4312 41.4301C81.4839 40.9682 81.9098 38.3143 82.0071 39.0403C82.1044 39.7663 81.7516 41.4361 81.8205 41.4159C81.8895 41.3958 83.3882 40.577 83.4632 40.5226C83.5382 40.4681 81.7516 41.7326 81.7881 41.8173Z" fill="#E6B554"/>
<path d="M83.1468 42.3375C82.9745 42.2932 83.161 42.0653 83.232 41.7668C83.303 41.4684 83.5971 40.216 83.5808 40.3088C83.2178 42.2468 83.9195 42.0532 83.9195 42.0532L84.8706 39.2985C84.8706 39.2985 84.1223 42.156 84.0939 42.2549C84.0655 42.3537 83.3192 42.3819 83.1468 42.3375Z" fill="#E6B554"/>
<path d="M84.029 44.6143L84.0534 45.8505C84.0534 45.8505 82.3945 47.3106 82.5689 47.0887C83.082 46.4333 83.3801 46.028 83.3801 46.028L83.6863 45.7215L83.3618 45.3383L83.374 44.8442C83.374 44.8442 83.6559 45.1245 83.6924 45.1165C83.8148 44.9561 83.9272 44.7884 84.029 44.6143Z" fill="#512303"/>
<path d="M83.3983 45.0076C83.2594 45.1031 83.1641 45.2492 83.1329 45.4142C83.1018 45.5792 83.1374 45.7498 83.232 45.8889C83.2778 45.9579 83.3369 46.0171 83.406 46.0631C83.4751 46.1091 83.5527 46.1409 83.6343 46.1567C83.7159 46.1724 83.7998 46.1719 83.8812 46.155C83.9625 46.1381 84.0397 46.1052 84.1081 46.0583C84.2466 45.9624 84.3416 45.8163 84.3727 45.6515C84.4038 45.4866 84.3685 45.3162 84.2744 45.177C84.2286 45.108 84.1695 45.0487 84.1004 45.0028C84.0314 44.9568 83.9538 44.925 83.8722 44.9092C83.7906 44.8934 83.7066 44.894 83.6253 44.9109C83.5439 44.9278 83.4667 44.9606 83.3983 45.0076Z" fill="#512303"/>
<path d="M84.1751 45.6146C84.1904 45.5315 84.1807 45.4458 84.1471 45.3683C84.1135 45.2907 84.0575 45.2248 83.9863 45.1788C83.915 45.1328 83.8317 45.1088 83.7468 45.1099C83.6619 45.111 83.5792 45.137 83.5091 45.1848C83.4391 45.2325 83.3848 45.2998 83.3532 45.3782C83.3216 45.4566 83.314 45.5425 83.3314 45.6252C83.3489 45.7078 83.3905 45.7835 83.4512 45.8426C83.5118 45.9018 83.5887 45.9417 83.6721 45.9574C83.7278 45.9679 83.785 45.9674 83.8405 45.9558C83.8959 45.9442 83.9485 45.9219 83.9953 45.89C84.042 45.8582 84.082 45.8174 84.1128 45.7702C84.1437 45.7229 84.1648 45.67 84.1751 45.6146Z" fill="#6D717E"/>
<path d="M83.8364 45.9574L83.5139 45.1729L83.6173 45.1225L83.9276 45.9292L83.8364 45.9574Z" fill="#242833"/>
<path opacity="0.39" d="M83.7553 45.8828L83.4977 45.2778C83.4466 45.3102 83.4074 45.3581 83.3859 45.4144C83.3643 45.4707 83.3616 45.5324 83.3781 45.5904C83.4125 45.8203 83.7735 46.0118 83.7553 45.8828Z" fill="white"/>
<path opacity="0.39" d="M83.958 45.8143L83.7694 45.3363C83.7694 45.3363 84.1547 45.3908 84.1283 45.5743C84.102 45.7578 83.9762 45.9211 83.958 45.8143Z" fill="white"/>
<path d="M83.6944 45.8405C83.6944 45.8405 83.6012 45.6045 83.52 45.5823C83.4389 45.5601 83.3984 45.6711 83.52 45.7739C83.6417 45.8768 83.7289 45.9191 83.6944 45.8405Z" fill="white"/>
<path d="M80.9161 44.2836L80.9405 45.5198C80.9405 45.5198 80.3321 47.2238 80.3321 46.9415C80.3706 44.945 80.2692 45.6972 80.2692 45.6972L80.5755 45.3887L80.251 45.0075L80.2611 44.5135C80.2611 44.5135 80.545 44.7938 80.5815 44.7857C80.7033 44.6253 80.815 44.4576 80.9161 44.2836Z" fill="#512303"/>
<path d="M80.2772 44.6749C80.1389 44.7707 80.0438 44.9166 80.0123 45.0814C79.9808 45.2461 80.0155 45.4165 80.1089 45.5561C80.1546 45.6251 80.2138 45.6844 80.2829 45.7304C80.3519 45.7763 80.4295 45.8082 80.5111 45.8239C80.5927 45.8397 80.6767 45.8391 80.758 45.8222C80.8394 45.8053 80.9165 45.7725 80.985 45.7255C81.1237 45.63 81.2192 45.4841 81.2507 45.3192C81.2822 45.1543 81.2472 44.9837 81.1533 44.8443C81.1074 44.7755 81.0481 44.7164 80.979 44.6706C80.9099 44.6248 80.8324 44.5931 80.7509 44.5773C80.6694 44.5616 80.5855 44.5621 80.5042 44.5788C80.4229 44.5956 80.3457 44.6282 80.2772 44.6749Z" fill="#512303"/>
<path d="M80.8735 45.5581C80.9691 45.4928 81.0348 45.3924 81.0561 45.279C81.0774 45.1656 81.0526 45.0484 80.9871 44.9531C80.9556 44.9048 80.9146 44.8633 80.8666 44.8311C80.8186 44.799 80.7645 44.7769 80.7076 44.7661C80.6507 44.7554 80.5922 44.7562 80.5357 44.7686C80.4792 44.781 80.4257 44.8047 80.3787 44.8382C80.283 44.9035 80.2173 45.0039 80.196 45.1173C80.1747 45.2307 80.1996 45.3479 80.2651 45.4432C80.2965 45.4915 80.3375 45.533 80.3855 45.5652C80.4336 45.5973 80.4877 45.6194 80.5445 45.6302C80.6014 45.6409 80.6599 45.6401 80.7164 45.6277C80.773 45.6153 80.8264 45.5916 80.8735 45.5581Z" fill="#6D717E"/>
<path d="M80.3928 45.5601L80.7153 44.7756L80.8248 44.814L80.476 45.6045L80.3928 45.5601Z" fill="#242833"/>
<path opacity="0.39" d="M80.3868 45.4472L80.6301 44.8422C80.5718 44.8288 80.5107 44.8348 80.4561 44.8592C80.4016 44.8836 80.3565 44.9251 80.3279 44.9773C80.188 45.1608 80.3077 45.5541 80.3868 45.4472Z" fill="white"/>
<path opacity="0.39" d="M80.5713 45.5379L80.7741 45.066C80.7741 45.066 81.0053 45.3806 80.8592 45.4916C80.7132 45.6025 80.5104 45.6347 80.5713 45.5379Z" fill="white"/>
<path d="M80.3726 45.3746C80.3726 45.3746 80.474 45.1407 80.4314 45.0681C80.3888 44.9955 80.2834 45.0459 80.2976 45.2052C80.3118 45.3645 80.3422 45.4573 80.3726 45.3746Z" fill="white"/>
<path d="M85.0228 39.0424L85.0471 40.2786C85.0471 40.2786 84.4387 41.9846 84.4387 41.7003C84.4752 39.7058 84.3759 40.456 84.3759 40.456L84.6801 40.1475L84.3556 39.7663L84.3678 39.2723C84.3678 39.2723 84.6496 39.5526 84.6861 39.5445C84.8092 39.3846 84.9217 39.2168 85.0228 39.0424Z" fill="#512303"/>
<path d="M84.392 39.4335C84.2534 39.5297 84.1583 39.6762 84.1272 39.8414C84.0961 40.0066 84.1315 40.1773 84.2257 40.3168C84.2718 40.3855 84.3311 40.4443 84.4003 40.4899C84.4694 40.5356 84.547 40.5671 84.6285 40.5827C84.71 40.5982 84.7938 40.5975 84.8751 40.5806C84.9563 40.5637 85.0334 40.531 85.1018 40.4842C85.2406 40.3887 85.336 40.2426 85.3671 40.0776C85.3983 39.9126 85.3627 39.742 85.268 39.6029C85.2221 39.5341 85.1629 39.4751 85.0938 39.4293C85.0247 39.3835 84.9472 39.3517 84.8656 39.336C84.7841 39.3202 84.7003 39.3207 84.619 39.3375C84.5376 39.3542 84.4605 39.3869 84.392 39.4335Z" fill="#512303"/>
<path d="M84.9883 40.3168C85.0838 40.2515 85.1495 40.1513 85.1712 40.038C85.1928 39.9247 85.1686 39.8075 85.1039 39.7118C85.0724 39.6649 85.0319 39.6247 84.9847 39.5935C84.9375 39.5622 84.8846 39.5406 84.8289 39.5299C84.7732 39.5192 84.716 39.5197 84.6605 39.5312C84.605 39.5426 84.5524 39.565 84.5056 39.5969C84.41 39.6622 84.3443 39.7626 84.323 39.876C84.3017 39.9895 84.3265 40.1066 84.392 40.2019C84.4231 40.249 84.4633 40.2894 84.5103 40.3207C84.5573 40.3521 84.6102 40.3738 84.6658 40.3845C84.7213 40.3952 84.7785 40.3947 84.8339 40.3831C84.8893 40.3715 84.9418 40.349 84.9883 40.3168Z" fill="#6D717E"/>
<path d="M84.5076 40.3209L84.8321 39.5344L84.9395 39.5727L84.5927 40.3632L84.5076 40.3209Z" fill="#242833"/>
<path opacity="0.39" d="M84.5035 40.2079L84.7469 39.603C84.6883 39.5898 84.627 39.5958 84.5721 39.6202C84.5173 39.6445 84.4719 39.6859 84.4427 39.7381C84.3027 39.9297 84.4244 40.3128 84.5035 40.2079Z" fill="white"/>
<path opacity="0.39" d="M84.6882 40.2967L84.891 39.8268C84.891 39.8268 85.1242 40.1394 84.9761 40.2503C84.8281 40.3612 84.6334 40.3935 84.6882 40.2967Z" fill="white"/>
<path d="M84.4873 40.1313C84.4873 40.1313 84.5887 39.8974 84.5461 39.8248C84.5035 39.7522 84.3981 39.8006 84.4143 39.9619C84.4305 40.1232 84.4569 40.216 84.4873 40.1313Z" fill="white"/>
<path d="M81.494 39.5908L81.5183 40.827C81.5183 40.827 81.1127 41.67 81.0986 41.4663C81.0315 41.304 80.9486 41.1487 80.8511 41.0025L81.1574 40.6959L80.8329 40.3148L80.8451 39.8207C80.8451 39.8207 81.1269 40.099 81.1634 40.0909C81.2849 39.9319 81.3953 39.7648 81.494 39.5908Z" fill="#512303"/>
<path d="M80.8634 39.9821C80.7245 40.0776 80.6292 40.2237 80.598 40.3887C80.5669 40.5537 80.6025 40.7243 80.6971 40.8633C80.7429 40.9323 80.802 40.9916 80.8711 41.0376C80.9402 41.0835 81.0178 41.1154 81.0994 41.1311C81.181 41.1469 81.2649 41.1463 81.3463 41.1294C81.4276 41.1125 81.5048 41.0797 81.5732 41.0327C81.7116 40.9369 81.8067 40.7908 81.8378 40.626C81.8689 40.4611 81.8336 40.2907 81.7395 40.1515C81.6937 40.0825 81.6346 40.0232 81.5655 39.9772C81.4965 39.9313 81.4189 39.8994 81.3373 39.8837C81.2557 39.8679 81.1717 39.8685 81.0904 39.8854C81.009 39.9023 80.9318 39.9351 80.8634 39.9821Z" fill="#512303"/>
<path d="M81.4596 40.8654C81.5552 40.8001 81.6209 40.6997 81.6422 40.5863C81.6635 40.4728 81.6387 40.3556 81.5731 40.2604C81.5419 40.2135 81.5016 40.1733 81.4546 40.1421C81.4076 40.1109 81.3548 40.0894 81.2993 40.0787C81.2438 40.068 81.1867 40.0684 81.1313 40.0798C81.076 40.0913 81.0235 40.1136 80.9769 40.1454C80.8814 40.2108 80.8156 40.311 80.794 40.4243C80.7723 40.5376 80.7965 40.6548 80.8613 40.7504C80.8927 40.7974 80.9332 40.8376 80.9804 40.8688C81.0276 40.9001 81.0806 40.9216 81.1363 40.9323C81.1919 40.943 81.2492 40.9426 81.3047 40.9311C81.3602 40.9196 81.4128 40.8973 81.4596 40.8654Z" fill="#6D717E"/>
<path d="M80.979 40.8674L81.3014 40.0829L81.411 40.1212L81.0642 40.9117L80.979 40.8674Z" fill="#242833"/>
<path opacity="0.39" d="M80.9729 40.7545L81.2162 40.1495C81.1579 40.1364 81.097 40.1425 81.0425 40.1669C80.988 40.1913 80.9429 40.2326 80.914 40.2846C80.7741 40.4681 80.8958 40.8593 80.9729 40.7545Z" fill="white"/>
<path opacity="0.39" d="M81.1595 40.8452L81.3623 40.3733C81.3623 40.3733 81.5955 40.6879 81.4474 40.7988C81.2994 40.9097 81.1047 40.9379 81.1595 40.8452Z" fill="white"/>
<path d="M80.9587 40.6839C80.9587 40.6839 81.0601 40.45 81.0175 40.3774C80.9749 40.3048 80.8695 40.3532 80.8857 40.5145C80.9019 40.6758 80.9283 40.7646 80.9587 40.6839Z" fill="white"/>
<path d="M2.70734 84.0942C1.62238 83.465 1.55343 82.3599 1.70553 82.0433L1.77853 81.8921H1.94483C2.77539 81.8764 3.59393 81.6918 4.35 81.3496C4.78388 81.1638 5.19767 80.9348 5.58504 80.6659C7.08371 79.5991 7.29664 79.1151 7.32504 79.0264L7.27028 78.6493L7.64951 78.7461C7.67993 78.7461 8.41609 78.9478 8.65133 79.6213C8.83993 80.1598 8.65133 80.8051 8.05916 81.5432C7.26419 82.5464 6.2392 83.3458 5.06993 83.8744C4.48588 84.1285 3.41105 84.4976 2.70734 84.0942ZM5.90343 81.1338C5.48859 81.4254 5.04486 81.6741 4.57916 81.8759C3.82319 82.2137 3.01151 82.4112 2.18413 82.4587C2.20404 82.6978 2.28487 82.9278 2.41899 83.1272C2.55311 83.3265 2.73611 83.4886 2.9507 83.5981C3.30357 83.7998 4.02553 83.7091 4.83469 83.3561C5.92732 82.8599 6.88684 82.1144 7.63532 81.1802C8.08553 80.6095 8.26196 80.1315 8.14636 79.7988C8.07277 79.6221 7.93633 79.4785 7.76308 79.3955C7.57448 79.7363 7.08168 80.2868 5.90343 81.1257V81.1338Z" fill="#593C12"/>
<path d="M1.94686 82.1805C3.31594 82.1502 4.64207 81.6994 5.74322 80.8898C7.66979 79.5205 7.59678 79.0244 7.59678 79.0244C7.59678 79.0244 9.33881 79.4721 7.84623 81.3657C6.35364 83.2594 3.80651 84.4068 2.83916 83.8422C1.87182 83.2775 1.87182 82.3378 1.94686 82.1805Z" fill="#D39D3B"/>
<path d="M1.93469 82.6281C2.10401 82.9124 2.34614 83.1469 2.63637 83.3077C3.61385 83.8724 6.16301 82.7249 7.65357 80.8313C8.11798 80.2424 8.26197 79.7927 8.26197 79.4539C8.53169 79.7988 8.62295 80.3896 7.85637 81.3657C6.36581 83.2593 3.81665 84.4068 2.83917 83.8422C2.60644 83.7203 2.40429 83.5479 2.24772 83.3377C2.09114 83.1275 1.98415 82.885 1.93469 82.6281Z" fill="#91671E"/>
<path d="M5.14294 81.5533C6.07203 80.9489 6.92098 80.2307 7.6698 79.4156C7.83001 79.2462 8.2498 79.7201 7.74889 80.4239C7.24798 81.1278 5.57084 82.8238 3.93224 82.9427C2.29364 83.0617 3.78014 82.4164 5.14294 81.5533Z" fill="#F5C15E"/>
<path d="M7.05935 82.5919C7.07152 82.5475 7.39397 81.4948 7.28243 80.8313C7.22067 80.4603 7.18139 80.0858 7.1648 79.7101H6.84033C6.85881 80.102 6.90011 80.4926 6.96404 80.8797C7.06138 81.4605 6.76124 82.4709 6.7511 82.481L7.05935 82.5919Z" fill="#593C12"/>
<path d="M4.91377 83.9309C5.01915 83.7673 5.07866 83.5786 5.08615 83.3844C5.08615 83.3017 5.10643 83.219 5.12265 83.1263C5.18039 82.8131 5.19946 82.4942 5.17943 82.1764C5.16055 81.8093 5.21147 81.4419 5.3295 81.0935L5.02734 80.9564C4.89303 81.35 4.83455 81.7653 4.85496 82.1805C4.87518 82.4719 4.85746 82.7647 4.80223 83.0517C4.78415 83.1477 4.77129 83.2446 4.7637 83.3421C4.75803 83.4743 4.71972 83.6031 4.65216 83.7172L4.91377 83.9309Z" fill="#593C12"/>
<path d="M2.85541 83.9289C2.85541 83.9289 2.77024 83.211 2.7601 82.8077C2.77305 82.5437 2.84881 82.2866 2.98115 82.0575L2.70534 81.876C2.53931 82.156 2.44592 82.4727 2.43359 82.7976C2.43359 83.2191 2.52688 83.9249 2.53094 83.9552L2.85541 83.9289Z" fill="#593C12"/>
<path d="M0.563759 80.1578C-0.0568004 79.085 0.429913 78.0907 0.721941 77.8931L0.859843 77.7983L0.999773 77.8871C1.72773 78.2846 2.52958 78.5302 3.35628 78.609C3.82823 78.6573 4.30391 78.6573 4.77586 78.609C6.61117 78.4316 7.03908 78.117 7.10803 78.0524L7.24187 77.7136L7.52173 77.9859C7.54404 78.0081 8.08348 78.5445 7.94964 79.2422C7.84418 79.8009 7.34124 80.2627 6.47124 80.6136C5.2776 81.0854 3.9876 81.2659 2.70935 81.1399C2.08271 81.0794 0.969354 80.8677 0.563759 80.1578ZM4.8225 79.1818C4.31548 79.2333 3.80449 79.2333 3.29747 79.1818C2.47268 79.099 1.66999 78.8673 0.928794 78.4981C0.826199 78.7137 0.780202 78.9516 0.795097 79.1896C0.809991 79.4277 0.885291 79.6581 1.01397 79.8593C1.21677 80.2123 1.89005 80.4885 2.76817 80.5833C3.96376 80.6958 5.16917 80.5265 6.2867 80.0892C6.96404 79.817 7.35747 79.4842 7.42642 79.1454C7.45227 78.9539 7.40683 78.7595 7.29866 78.5989C6.96404 78.8087 6.26236 79.0406 4.82047 79.1818H4.8225Z" fill="#593C12"/>
<path d="M0.861919 78.131C2.06311 78.7842 3.43785 79.0526 4.79821 78.8994C7.15674 78.6675 7.34129 78.2016 7.34129 78.2016C7.34129 78.2016 8.625 79.454 6.38206 80.3534C4.13912 81.2528 1.35472 80.9826 0.79094 80.0085C0.227163 79.0345 0.717933 78.2299 0.861919 78.131Z" fill="#D39D3B"/>
<path d="M0.626678 78.5121C0.628263 78.8448 0.720041 79.1708 0.892343 79.4559C1.45612 80.43 4.24052 80.7022 6.48346 79.8028C7.18108 79.5225 7.53801 79.2079 7.70025 78.9074C7.75906 79.339 7.54206 79.8956 6.38409 80.3614C4.14115 81.2608 1.35675 80.9886 0.792972 80.0145C0.653724 79.7925 0.566477 79.5423 0.537691 79.2822C0.508905 79.0221 0.539319 78.7589 0.626678 78.5121Z" fill="#91671E"/>
<path d="M3.94642 79.1756C5.05486 79.1126 6.15069 78.9093 7.2074 78.5706C7.43048 78.5041 7.55824 79.1232 6.76936 79.4862C5.98048 79.8492 3.67873 80.4824 2.19831 79.7726C0.717889 79.0627 2.33013 79.2543 3.94642 79.1756Z" fill="#F5C15E"/>
<path d="M5.08413 81.0249C5.1186 80.9927 5.92371 80.2405 6.16098 79.6133C6.29414 79.2618 6.44785 78.9184 6.62133 78.5848L6.34552 78.4174C6.16313 78.7648 6.00261 79.1231 5.86489 79.4903C5.6621 80.0428 4.88336 80.7648 4.87524 80.7729L5.08413 81.0249Z" fill="#593C12"/>
<path d="M2.55324 81.1197C2.72627 81.0299 2.87245 80.8963 2.97709 80.7325C3.02711 80.6627 3.08058 80.5954 3.1373 80.5308C3.34557 80.2892 3.52207 80.0222 3.66254 79.7363C3.83102 79.4089 4.06014 79.116 4.33786 78.8731L4.1452 78.6029C3.83095 78.8776 3.57158 79.2087 3.38066 79.579C3.25199 79.8408 3.0905 80.0855 2.90003 80.307C2.83474 80.3814 2.7738 80.4595 2.71751 80.5409C2.64632 80.652 2.54884 80.7441 2.43359 80.8091L2.55324 81.1197Z" fill="#593C12"/>
<path d="M0.770652 80.0973C0.770652 80.0973 1.0566 79.4318 1.25128 79.0768C1.3968 78.854 1.59351 78.6687 1.8252 78.5364L1.67513 78.246C1.3894 78.4094 1.14898 78.6408 0.975477 78.9195C0.77268 79.2886 0.490792 79.942 0.480652 79.9702L0.770652 80.0973Z" fill="#593C12"/>
<path d="M84.6253 12.9671C83.2204 13.3861 81.7306 13.4382 80.2996 13.1183C79.2491 12.8783 78.5981 12.4246 78.3689 11.7692C78.081 10.9625 78.5819 10.1902 78.6022 10.1559L78.8617 9.76867L79.0909 10.1559C79.1801 10.2184 79.7216 10.5088 81.8165 10.3394C82.3583 10.2962 82.8935 10.1934 83.4125 10.0329C84.3304 9.76001 85.1793 9.29598 85.9029 8.67161L86.0428 8.5365L86.2172 8.6212C86.5822 8.80068 87.3265 9.90177 86.8398 11.3316C86.5234 12.2552 85.3168 12.7533 84.6253 12.9671ZM78.9713 10.8496C78.8798 11.0678 78.8669 11.3107 78.9348 11.5373C79.0808 11.9406 79.5857 12.2552 80.399 12.4407C81.7376 12.7363 83.1299 12.6885 84.4448 12.3016C85.4101 12.0031 86.1097 11.5252 86.2699 11.0553C86.3774 10.7831 86.4184 10.4895 86.3895 10.1985C86.3606 9.90748 86.2626 9.62747 86.1036 9.38147C85.3552 9.97875 84.4989 10.4284 83.5808 10.7064C83.0248 10.8782 82.4515 10.9891 81.8713 11.0371C80.2245 11.1642 79.391 11.0311 78.9713 10.8496Z" fill="#593C12"/>
<path d="M86.1077 8.92975C84.9133 9.95931 83.4155 10.5763 81.8389 10.6883C79.1477 10.904 78.8496 10.3797 78.8496 10.3797C78.8496 10.3797 77.6552 12.1645 80.3483 12.7836C83.0415 13.4027 86.1159 12.4871 86.5559 11.1884C86.996 9.88967 86.2882 9.01848 86.1077 8.92975Z" fill="#D39D3B"/>
<path d="M86.4444 9.34113C86.5078 9.74077 86.4695 10.1498 86.3328 10.5309C85.8928 11.8297 82.8204 12.7493 80.1272 12.1261C79.2877 11.9245 78.8253 11.628 78.588 11.2993C78.6042 11.8337 78.9591 12.4629 80.3483 12.7815C83.0435 13.3986 86.1159 12.4851 86.5559 11.1864C86.6686 10.8882 86.7169 10.5699 86.6977 10.2519C86.6785 9.93401 86.5922 9.62368 86.4444 9.34113Z" fill="#91671E"/>
<path d="M82.8508 10.8415C81.5955 10.9996 80.3244 10.9867 79.0727 10.8032C78.809 10.7689 78.7888 11.5453 79.746 11.8115C80.7032 12.0777 83.4105 12.3701 84.9315 11.2065C86.4525 10.0429 84.678 10.5874 82.8508 10.8415Z" fill="#F5C15E"/>
<path d="M81.93 13.32C81.8854 13.2877 80.8329 12.5476 80.4435 11.8357C80.2259 11.4387 79.9849 11.0549 79.7216 10.6862L79.9994 10.4261C80.2736 10.8111 80.5248 11.2117 80.7518 11.626C81.0945 12.2491 82.1044 12.961 82.1146 12.9671L81.93 13.32Z" fill="#593C12"/>
<path d="M84.7977 12.9066C84.583 12.8327 84.3929 12.7015 84.2481 12.5274C84.1791 12.4528 84.1081 12.3863 84.025 12.3116C83.7416 12.0599 83.491 11.774 83.2787 11.4606C83.0292 11.1046 82.7148 10.7982 82.3519 10.5572L82.5142 10.1901C82.9266 10.4605 83.2832 10.8068 83.5647 11.2105C83.7585 11.4983 83.9881 11.7605 84.2481 11.991C84.3362 12.0672 84.4195 12.1486 84.4975 12.235C84.5977 12.3537 84.7259 12.4458 84.8707 12.5032L84.7977 12.9066Z" fill="#593C12"/>
<path d="M86.5944 11.2932C86.5944 11.2932 86.1422 10.5491 85.8542 10.1619C85.6546 9.92415 85.3979 9.74034 85.1079 9.62745L85.2113 9.22412C85.5701 9.36449 85.8865 9.59437 86.13 9.89163C86.4301 10.295 86.8763 11.027 86.8946 11.0593L86.5944 11.2932Z" fill="#593C12"/>
<path d="M85.189 8.24207C84.1837 9.34498 82.9211 10.1851 81.5123 10.6883C80.4983 11.0412 79.7155 10.9948 79.2106 10.5531C78.5819 9.99857 78.661 9.07091 78.665 9.0326L78.7076 8.55667L79.0747 8.77043C79.1822 8.77043 79.7865 8.73816 81.5224 7.46969C81.9739 7.14103 82.3893 6.76587 82.7615 6.35045C83.4331 5.61923 83.9528 4.76323 84.2906 3.83166L84.3474 3.62999L84.5401 3.61184C84.9457 3.56949 86.0955 4.1281 86.3409 5.62849C86.5011 6.60858 85.6879 7.68547 85.189 8.24207ZM79.3079 9.43592C79.3283 9.66863 79.431 9.8866 79.5979 10.051C79.9102 10.3232 80.4943 10.3232 81.2852 10.051C82.6046 9.57751 83.788 8.79114 84.7327 7.76009C85.4303 6.98368 85.8136 6.19517 85.7345 5.70311C85.5926 4.83998 85.0896 4.46892 84.8098 4.34187C84.4402 5.2605 83.9094 6.10652 83.2422 6.8405C82.8436 7.28938 82.3984 7.69498 81.9138 8.05049C80.5369 9.03663 79.752 9.36736 79.3038 9.43592H79.3079Z" fill="#593C12"/>
<path d="M84.5907 3.95062C84.0376 5.4777 83.0348 6.80375 81.713 7.75604C79.4822 9.38549 78.9773 9.09106 78.9773 9.09106C78.9773 9.09106 78.7745 11.2771 81.3966 10.3696C84.0188 9.46212 86.2536 7.02399 86.0326 5.66477C85.8115 4.30555 84.7894 3.92844 84.5907 3.95062Z" fill="#D39D3B"/>
<path d="M85.0775 4.1261C85.3205 4.44526 85.4775 4.82077 85.5338 5.21711C85.7569 6.57834 83.5221 9.01446 80.8999 9.92195C80.0887 10.2063 79.5412 10.1881 79.1802 10.0288C79.4438 10.4826 80.0441 10.8355 81.3968 10.3696C84.0189 9.46215 86.2538 7.02402 86.0327 5.6648C85.9962 5.3545 85.8918 5.05591 85.7268 4.79007C85.5618 4.52423 85.3401 4.29758 85.0775 4.1261Z" fill="#91671E"/>
<path d="M82.6622 7.3487C81.6569 8.15249 80.5504 8.8223 79.3708 9.34115C79.1254 9.45206 79.4701 10.1357 80.4253 9.85943C81.3805 9.58314 83.8607 8.37921 84.6334 6.5501C85.406 4.721 84.1264 6.15081 82.6622 7.3487Z" fill="#F5C15E"/>
<path d="M83.0252 9.98643C82.9724 9.98643 81.7131 9.90375 81.0459 9.49639C80.6726 9.27028 80.2851 9.0682 79.8859 8.89139L80.0055 8.5163C80.4248 8.70171 80.8313 8.9146 81.2223 9.15356C81.8104 9.5105 83.0171 9.58512 83.0272 9.58714L83.0252 9.98643Z" fill="#593C12"/>
<path d="M85.3087 8.09281C85.0915 8.14383 84.8642 8.13194 84.6536 8.05853C84.5603 8.0303 84.4671 8.01215 84.3596 7.98996C83.9996 7.92801 83.6497 7.81812 83.3192 7.66327C82.9366 7.48877 82.5231 7.39144 82.1024 7.3769L82.072 6.97357C82.5507 6.98648 83.0219 7.09555 83.4571 7.29422C83.7608 7.4399 84.0827 7.54436 84.4143 7.60478C84.5252 7.62435 84.6348 7.64993 84.7429 7.68142C84.8863 7.73029 85.04 7.74141 85.189 7.71368L85.3087 8.09281Z" fill="#593C12"/>
<path d="M86.1158 5.7333C86.1158 5.7333 85.3756 5.32997 84.9456 5.14646C84.6578 5.04993 84.3499 5.0284 84.0513 5.08394L83.958 4.68061C84.3275 4.60958 84.7095 4.63955 85.0633 4.76733C85.5114 4.95689 86.2375 5.35215 86.2679 5.37232L86.1158 5.7333Z" fill="#593C12"/>
<path d="M81.3217 82.8842C80.1526 82.3581 79.127 81.5616 78.3304 80.5611C77.7484 79.825 77.5496 79.1776 77.7382 78.6412C77.9715 77.9717 78.7076 77.7761 78.7401 77.768L79.1173 77.6712L79.0625 78.0302C79.0909 78.1209 79.3038 78.6049 80.8005 79.6697C81.1873 79.9439 81.6011 80.1783 82.0355 80.3695C82.7901 80.7119 83.6073 80.8966 84.4366 80.912H84.6009L84.6759 81.0632C84.826 81.3778 84.7489 82.4749 83.6741 83.102C82.9745 83.4892 81.8996 83.1303 81.3217 82.8842ZM78.6265 78.4032C78.453 78.4867 78.3161 78.63 78.2412 78.8066C78.1276 79.1393 78.304 79.6132 78.7522 80.188C79.5017 81.1194 80.4602 81.8632 81.5508 82.3599C82.362 82.7128 83.0779 82.8056 83.4328 82.5999C83.6465 82.4905 83.8287 82.3289 83.9624 82.1303C84.0961 81.9317 84.177 81.7026 84.1973 81.4645C83.3708 81.4159 82.56 81.2184 81.8043 80.8817C81.3389 80.6773 80.8959 80.4259 80.4821 80.1315C79.3079 79.2946 78.8151 78.7461 78.6285 78.3972L78.6265 78.4032Z" fill="#593C12"/>
<path d="M84.4346 81.1862C83.0677 81.156 81.7437 80.7059 80.6443 79.8976C78.7198 78.5283 78.7928 78.0342 78.7928 78.0342C78.7928 78.0342 77.0548 78.4799 78.5434 80.3715C80.0319 82.2631 82.579 83.4086 83.5524 82.8439C84.5259 82.2793 84.5117 81.3435 84.4346 81.1862Z" fill="#D39D3B"/>
<path d="M84.4468 81.632C84.2792 81.9161 84.0384 82.1507 83.7492 82.3116C82.7717 82.8762 80.2266 81.7308 78.7361 79.8392C78.2717 79.2503 78.1277 78.8006 78.1277 78.4618C77.86 78.8066 77.7687 79.3975 78.5333 80.3716C80.0218 82.2632 82.5689 83.4086 83.5444 82.846C83.7772 82.7245 83.9793 82.5521 84.1356 82.3419C84.2919 82.1316 84.3983 81.8889 84.4468 81.632Z" fill="#91671E"/>
<path d="M81.2446 80.5591C80.3153 79.9567 79.4668 79.239 78.7198 78.4235C78.5616 78.2561 78.1398 78.73 78.6428 79.4318C79.1457 80.1336 80.8167 81.8276 82.4533 81.9465C84.0899 82.0655 82.6054 81.4222 81.2446 80.5591Z" fill="#F5C15E"/>
<path d="M79.3302 81.5957C79.318 81.5513 78.9976 80.5006 79.1071 79.8392C79.1687 79.4687 79.208 79.095 79.2247 78.7199H79.5472C79.5313 79.1113 79.4906 79.5013 79.4255 79.8876C79.3282 80.4684 79.6283 81.4767 79.6385 81.4868L79.3302 81.5957Z" fill="#593C12"/>
<path d="M81.4738 82.9327C81.3687 82.7696 81.3092 82.5817 81.3015 82.3882C81.3015 82.3055 81.2812 82.2228 81.265 82.13C81.2062 81.8177 81.1872 81.4993 81.2082 81.1822C81.2268 80.8151 81.1759 80.4477 81.0581 80.0993L81.3603 79.9622C81.4945 80.3558 81.5523 80.7712 81.5306 81.1863C81.5126 81.477 81.5303 81.7689 81.5833 82.0554C81.5996 82.1542 81.6158 82.245 81.6239 82.3458C81.6289 82.4779 81.6666 82.6067 81.7334 82.7209L81.4738 82.9327Z" fill="#593C12"/>
<path d="M83.5281 82.9326C83.5281 82.9326 83.6153 82.2147 83.6234 81.8114C83.6101 81.5475 83.5343 81.2905 83.4023 81.0612L83.6781 80.8737C83.8441 81.1565 83.9361 81.4761 83.9458 81.8033C83.9458 82.2228 83.8525 82.9286 83.8485 82.9568L83.5281 82.9326Z" fill="#593C12"/>
<path d="M83.6741 80.1517C82.3972 80.2756 81.109 80.0952 79.9163 79.6254C79.0442 79.2745 78.5474 78.8187 78.4399 78.2541C78.306 77.5583 78.8455 77.0219 78.8698 76.9997L79.1477 76.7295L79.2815 77.0683C79.3504 77.1308 79.7784 77.4454 81.6096 77.6229C82.0816 77.6711 82.5573 77.6711 83.0292 77.6229C83.8548 77.5448 84.6554 77.299 85.3816 76.9009L85.5216 76.8122L85.6595 76.907C85.9495 77.1086 86.4362 78.0988 85.8177 79.1696C85.4121 79.8593 84.3007 80.0852 83.6741 80.1517ZM79.0909 77.6087C78.9825 77.7692 78.9377 77.9639 78.9651 78.1553C79.0321 78.5001 79.4255 78.8248 80.1008 79.097C81.2171 79.5334 82.4212 79.702 83.6153 79.5891C84.4914 79.4943 85.1626 79.218 85.3675 78.8651C85.4978 78.6639 85.5746 78.433 85.5905 78.1942C85.6065 77.9554 85.5611 77.7164 85.4587 77.4998C84.7189 77.8688 83.9176 78.1005 83.0941 78.1835C82.5878 78.2359 82.0774 78.2359 81.5711 78.1835C80.1272 78.0443 79.4255 77.8185 79.0909 77.6087Z" fill="#593C12"/>
<path d="M85.5196 77.1409C84.3199 77.794 82.9462 78.0617 81.5873 77.9072C79.2328 77.6773 79.0483 77.2115 79.0483 77.2115C79.0483 77.2115 77.7666 78.4638 80.0055 79.3612C82.2444 80.2586 85.0268 79.9884 85.5905 79.0163C86.1543 78.0443 85.6635 77.2377 85.5196 77.1409Z" fill="#D39D3B"/>
<path d="M85.7548 77.522C85.7521 77.8519 85.6604 78.1751 85.4892 78.4577C84.9274 79.4317 82.1451 79.702 79.9062 78.8046C79.2086 78.5242 78.8516 78.2096 78.6894 77.9112C78.6306 78.3407 78.8476 78.8973 80.0015 79.3612C82.2424 80.2606 85.0227 79.9883 85.5865 79.0163C85.7251 78.7956 85.8122 78.5468 85.8413 78.2881C85.8705 78.0295 85.8409 77.7677 85.7548 77.522Z" fill="#91671E"/>
<path d="M82.439 78.1835C81.3321 78.119 80.2378 77.9157 79.1821 77.5785C78.959 77.512 78.8313 78.1311 79.6202 78.492C80.409 78.853 82.7067 79.4883 84.1851 78.7784C85.6635 78.0685 84.0533 78.246 82.439 78.1835Z" fill="#F5C15E"/>
<path d="M81.3034 80.0327C81.269 80.0004 80.4639 79.2482 80.2266 78.621C80.0944 78.2692 79.9407 77.9257 79.7662 77.5926L80.0441 77.4252C80.2253 77.7728 80.3851 78.1311 80.5227 78.498C80.7255 79.0486 81.5042 79.7705 81.5103 79.7766L81.3034 80.0327Z" fill="#593C12"/>
<path d="M83.8324 80.1255C83.6589 80.0372 83.5125 79.9042 83.4085 79.7404C83.3598 79.6698 83.3071 79.6073 83.2463 79.5387C83.0394 79.2972 82.8636 79.0309 82.723 78.7461C82.5532 78.4196 82.3243 78.127 82.0477 77.883L82.2404 77.6148C82.554 77.8888 82.8127 78.2193 83.0029 78.5889C83.1321 78.8509 83.2943 79.0955 83.4856 79.3169C83.5484 79.3935 83.6093 79.4661 83.6661 79.5488C83.7373 79.6604 83.8347 79.7531 83.95 79.819L83.8324 80.1255Z" fill="#593C12"/>
<path d="M85.6108 79.1051C85.6108 79.1051 85.3249 78.4396 85.1302 78.0867C84.9864 77.8646 84.7918 77.6794 84.5624 77.5462L84.7064 77.2457C84.9925 77.4086 85.233 77.6402 85.406 77.9193C85.6088 78.2863 85.8887 78.9397 85.9008 78.9679L85.6108 79.1051Z" fill="#593C12"/>
</svg>
