<svg id="Слой_1" data-name="Слой 1" xmlns="http://www.w3.org/2000/svg" viewBox="0 0 54.21 54.19"><defs><style>.cls-1{fill:#632a02;}.cls-1,.cls-20{opacity:0.5;}.cls-1,.cls-15,.cls-17,.cls-18,.cls-19,.cls-20,.cls-6{isolation:isolate;}.cls-2{fill:#e6b554;}.cls-18,.cls-19,.cls-20,.cls-3{fill:#512303;}.cls-4{fill:#6d717e;}.cls-5{fill:#242833;}.cls-6,.cls-7{fill:#fff;}.cls-19,.cls-6{opacity:0.39;}.cls-8{fill:#593c12;}.cls-9{fill:#d39d3b;}.cls-10{fill:#91671e;}.cls-11{fill:#f5c15e;}.cls-12{fill:#3d1900;}.cls-13{fill:#723609;}.cls-14,.cls-15{fill:#9f5e26;}.cls-15{opacity:0.38;}.cls-16,.cls-17{opacity:0.3;}.cls-17{fill:#260503;}.cls-18{opacity:0.25;}.cls-21{fill:#ffe800;}</style></defs><title>56</title><path class="cls-1" d="M139.43,97.3s-2.29,14.74-2.36,18.61-2.49,21-2.49,21,.88-4.44,1.16-6.52,1.58-12.2,1.79-14.17S138.37,104.56,139.43,97.3Z" transform="translate(-95.89 -85.06)"/><path class="cls-2" d="M134.54,137l1.16-6s1.55-12.27,1.58-12.73.95-10.64.95-10.64l1.05-10.82s-1.12,15.58-1.37,18.26-2.17,17.24-2.17,17.24Z" transform="translate(-95.89 -85.06)"/><path class="cls-1" d="M146.23,119.33s-16.32-.42-24.85.6a119.41,119.41,0,0,1-17.9.5s29.2,2.22,29.66,2.18C141.53,121.94,146.23,119.33,146.23,119.33Z" transform="translate(-95.89 -85.06)"/><path class="cls-2" d="M134.33,124.34c-5.79.21-34.82-3.77-34.82-3.77s33.42,2,36.44,1.72,10.88-2.92,10.88-2.92S140.09,124.16,134.33,124.34Z" transform="translate(-95.89 -85.06)"/><path class="cls-3" d="M131.28,125.85l3.65,1.17s2.84-.46,2.25-.71a7,7,0,0,1-1.16-1.13l-1.19.64-.85-1.31-1.47-.38a5.3,5.3,0,0,1,.53,1.2A13.28,13.28,0,0,1,131.28,125.85Z" transform="translate(-95.89 -85.06)"/><path class="cls-3" d="M133,124.34a1.91,1.91,0,0,1,2.74.28,1.93,1.93,0,0,1-.28,2.75,1.91,1.91,0,0,1-2.74-.28A2,2,0,0,1,133,124.34Z" transform="translate(-95.89 -85.06)"/><path class="cls-4" d="M135.07,126.88a1.35,1.35,0,1,1,.18-1.91A1.32,1.32,0,0,1,135.07,126.88Z" transform="translate(-95.89 -85.06)"/><path class="cls-5" d="M135.53,125.43l-2.63.28,0,.36,2.63-.36Z" transform="translate(-95.89 -85.06)"/><path class="cls-6" d="M135.18,125.33l-2,.21s0-.53.67-.78S135.56,125.18,135.18,125.33Z" transform="translate(-95.89 -85.06)"/><path class="cls-6" d="M135.28,126l-1.58.21s.74,1,1.2.64S135.63,125.89,135.28,126Z" transform="translate(-95.89 -85.06)"/><path class="cls-7" d="M135,125.22s-.77.11-.95-.11.07-.45.53-.28S135.25,125.18,135,125.22Z" transform="translate(-95.89 -85.06)"/><path class="cls-8" d="M138.34,117.75A17.71,17.71,0,0,1,130,117c-2-.67-3.09-1.66-3.41-2.89a3.19,3.19,0,0,1,.81-2.82l.6-.64.31.74c.18.14,1.13.78,5.2,1a15.44,15.44,0,0,0,3.12-.18,13.16,13.16,0,0,0,5.09-1.87l.28-.21.32.18a4.1,4.1,0,0,1,.59,5C142.13,116.94,139.71,117.53,138.34,117.75ZM128,112.63a1.76,1.76,0,0,0-.21,1.24c.17.77,1.08,1.44,2.59,2a16.75,16.75,0,0,0,7.8.71c1.93-.32,3.36-1,3.75-1.8a3.11,3.11,0,0,0,0-3,15.37,15.37,0,0,1-8.46,2C130.3,113.48,128.72,113.06,128,112.63Z" transform="translate(-95.89 -85.06)"/><path class="cls-9" d="M142.06,110.87a14.57,14.57,0,0,1-8.57,2.15c-5.19-.24-5.65-1.27-5.65-1.27s-2.67,2.93,2.35,4.66,11.13.81,12.25-1.41A3.5,3.5,0,0,0,142.06,110.87Z" transform="translate(-95.89 -85.06)"/><path class="cls-10" d="M142.62,111.68a4,4,0,0,1-.49,2.12c-1.13,2.22-7.23,3.14-12.25,1.41a4.93,4.93,0,0,1-2.78-1.83c-.07,1,.46,2.18,3.06,3.06,5,1.73,11.13.81,12.25-1.41A4,4,0,0,0,142.62,111.68Z" transform="translate(-95.89 -85.06)"/><path class="cls-11" d="M135.39,113.52a28.89,28.89,0,0,1-7.23-1c-.49-.14-.71,1.27,1.05,2s6.92,1.87,10.07.1S139,113.48,135.39,113.52Z" transform="translate(-95.89 -85.06)"/><path class="cls-8" d="M133.11,117.75a11.72,11.72,0,0,1-2.53-3,23.62,23.62,0,0,0-1.12-2.22l.59-.39a21.93,21.93,0,0,1,1.19,2.33,10.53,10.53,0,0,0,2.32,2.71Z" transform="translate(-95.89 -85.06)"/><path class="cls-8" d="M138.69,117.68a2.92,2.92,0,0,1-1-.81,3,3,0,0,0-.38-.43,8.08,8.08,0,0,1-1.23-1.69,6.36,6.36,0,0,0-1.58-1.83l.39-.64a8.19,8.19,0,0,1,1.79,2.08,6,6,0,0,0,1.16,1.55c.14.18.28.32.42.5a1.72,1.72,0,0,0,.66.56Z" transform="translate(-95.89 -85.06)"/><path class="cls-8" d="M142.48,115.21s-.7-1.45-1.16-2.22a3.88,3.88,0,0,0-1.3-1.13l.28-.67a4.38,4.38,0,0,1,1.62,1.41,22.18,22.18,0,0,1,1.19,2.29Z" transform="translate(-95.89 -85.06)"/><path class="cls-8" d="M142.44,109.25a21.23,21.23,0,0,1-9.58,3.17c-2.49.18-4.21-.31-5.16-1.55a4,4,0,0,1-.46-3.52l.35-1,.74.67c.25.07,1.62.32,6.21-1.41a18.63,18.63,0,0,0,3.37-1.69,17.58,17.58,0,0,0,4.78-4.51l.24-.39.46.07c.91.14,3.27,1.94,3.06,5.25C146.27,106.5,143.88,108.33,142.44,109.25Zm-13.93-.7a2.14,2.14,0,0,0,.35,1.48c.56.74,1.89,1,3.82.91a20.38,20.38,0,0,0,9-3c2-1.27,3.26-2.71,3.33-3.81a3.81,3.81,0,0,0-1.4-3.38,18.45,18.45,0,0,1-4.85,4.44,19.78,19.78,0,0,1-3.61,1.84C131.49,108.37,129.56,108.65,128.51,108.55Z" transform="translate(-95.89 -85.06)"/><path class="cls-9" d="M143.29,99.8a17.73,17.73,0,0,1-8.46,6.49c-5.9,2.22-6.89,1.34-6.89,1.34s-1.57,4.51,4.85,4.05,12.71-4.44,12.92-7.44A4.3,4.3,0,0,0,143.29,99.8Z" transform="translate(-95.89 -85.06)"/><path class="cls-10" d="M144.3,100.44a5,5,0,0,1,.49,2.57c-.17,3-6.49,6.95-12.91,7.44a6.06,6.06,0,0,1-4-.71c.35,1.1,1.55,2.19,4.85,1.94,6.42-.49,12.7-4.44,12.91-7.44A4.59,4.59,0,0,0,144.3,100.44Z" transform="translate(-95.89 -85.06)"/><path class="cls-11" d="M137.18,106a33.93,33.93,0,0,1-8.5,2.4c-.59.11-.17,1.73,2.14,1.69s8.53-1.23,11.24-4.72S141.11,104.21,137.18,106Z" transform="translate(-95.89 -85.06)"/><path class="cls-8" d="M136.65,111.75a13.48,13.48,0,0,1-4.25-2.11,25.32,25.32,0,0,0-2.31-1.94l.45-.74a31,31,0,0,1,2.42,2,12,12,0,0,0,3.87,1.9Z" transform="translate(-95.89 -85.06)"/><path class="cls-8" d="M142.79,109a3.3,3.3,0,0,1-1.47-.42c-.21-.1-.39-.21-.63-.32a10.44,10.44,0,0,1-2.18-1.3,7.86,7.86,0,0,0-2.63-1.27l.14-.88a9,9,0,0,1,3,1.44,10.8,10.8,0,0,0,2,1.2,3.94,3.94,0,0,1,.71.36,2.23,2.23,0,0,0,1,.31Z" transform="translate(-95.89 -85.06)"/><path class="cls-8" d="M145.85,104.42s-1.48-1.27-2.35-1.9a4.28,4.28,0,0,0-2-.64V101a5.16,5.16,0,0,1,2.45.78c.92.63,2.35,1.9,2.43,1.94Z" transform="translate(-95.89 -85.06)"/><path class="cls-12" d="M139,96.29a22,22,0,0,1,0,31,21.69,21.69,0,0,1-30.84,0,22,22,0,0,1,0-31A21.69,21.69,0,0,1,139,96.29Z" transform="translate(-95.89 -85.06)"/><path class="cls-12" d="M123.52,138.59a26.77,26.77,0,1,1,26.58-26.77A26.71,26.71,0,0,1,123.52,138.59Zm0-45.47a18.71,18.71,0,1,0,18.58,18.7A18.67,18.67,0,0,0,123.52,93.12Z" transform="translate(-95.89 -85.06)"/><path class="cls-13" d="M123.52,138.35a26.54,26.54,0,1,1,26.36-26.54A26.48,26.48,0,0,1,123.52,138.35Zm0-45.45a18.93,18.93,0,1,0,18.8,18.93A18.89,18.89,0,0,0,123.52,92.9Z" transform="translate(-95.89 -85.06)"/><path class="cls-14" d="M123.52,137.56a25.74,25.74,0,1,1,25.56-25.74A25.69,25.69,0,0,1,123.52,137.56Zm0-46a20.3,20.3,0,1,0,20.16,20.29A20.24,20.24,0,0,0,123.52,91.52Z" transform="translate(-95.89 -85.06)"/><path class="cls-15" d="M142.29,119.09a17.21,17.21,0,0,0-.55-2.68A18.8,18.8,0,0,0,108.08,101c-.82.24-1.62.5-2.41.8a20.24,20.24,0,0,1,38,9.85A20.69,20.69,0,0,1,142.29,119.09Z" transform="translate(-95.89 -85.06)"/><path class="cls-2" d="M123.52,137.58A25.68,25.68,0,0,1,98,111.85v-.46a25.57,25.57,0,0,0,51.13,0v.46A25.68,25.68,0,0,1,123.52,137.58Z" transform="translate(-95.89 -85.06)"/><path class="cls-2" d="M123.52,91.54a20.25,20.25,0,0,0-20.16,19.84v-.46a20.16,20.16,0,1,1,40.32,0v.46A20.26,20.26,0,0,0,123.52,91.54Z" transform="translate(-95.89 -85.06)"/><g class="cls-16"><path class="cls-17" d="M123.52,133a20.24,20.24,0,0,1-20.16-20.29v-.45a20.16,20.16,0,0,0,40.32,0v.45A20.24,20.24,0,0,1,123.52,133Z" transform="translate(-95.89 -85.06)"/><path class="cls-17" d="M123.52,87A25.69,25.69,0,0,0,98,112.25v-.45a25.57,25.57,0,1,1,51.13,0v.45A25.68,25.68,0,0,0,123.52,87Z" transform="translate(-95.89 -85.06)"/></g><path class="cls-3" d="M143.69,109.9a2.45,2.45,0,0,0,.71-1.67c.11-1.19-1-7.68-3.8-11.1a17.35,17.35,0,0,0-8.37-5.6c-1.74-.41-7.14-2.71-7.51-2.76a51.57,51.57,0,0,0,7.73,2.12c2.07.2,7.19,3.6,8.15,4.63s2.34,4.62,3.08,5.82,1.58,6,1.57,6.9-1.57,2.51-1.57,2.51Z" transform="translate(-95.89 -85.06)"/><path class="cls-2" d="M123.93,88.57s5.73,1.83,7.28,2.11a9.27,9.27,0,0,1,2.93.73,29.91,29.91,0,0,1,6.66,4.36c.35.54,1.84,4,2.56,5a10.54,10.54,0,0,1,1.13,3S142,97,141.41,96.12s-4.81-3.58-5.72-4.34a8.2,8.2,0,0,0-3.89-1.69C130.43,90,123.93,88.57,123.93,88.57Z" transform="translate(-95.89 -85.06)"/><path class="cls-18" d="M115.12,132.58s-6.69-1.6-9-4.29-3-4.88-3.76-7.46,2.91,5.52,4.94,6.18,1.71,1.78,3.16,2.8S115.12,132.58,115.12,132.58Z" transform="translate(-95.89 -85.06)"/><path class="cls-3" d="M110.68,130.56a26.76,26.76,0,0,1-4.37-2.62c-1.46-1.21-2.56-4.32-2.65-4.64s1.22,2.49,2.18,3.17,2,.79,2.54,1.35S110,130.31,110.68,130.56Z" transform="translate(-95.89 -85.06)"/><path class="cls-2" d="M115.81,133s-5.17-2.75-6.1-3.86-1.18-1.65-1.82-1.91-1-.37-2.34-1.93a54.83,54.83,0,0,1-3.49-5.38s3.51,5.57,4.34,5.88,2.32,1,2.74,1.67a9.72,9.72,0,0,0,2.17,2.39C112,130.32,115.81,133,115.81,133Z" transform="translate(-95.89 -85.06)"/><path class="cls-3" d="M130.45,136.62A29.68,29.68,0,0,0,134.1,135a8.19,8.19,0,0,0,1.79-2.05s0-2.54,0-2.54a11,11,0,0,0,.35,2.33c.25.48.79.82.66.94s-1.17,1.34-1.17,1.34S132.39,136.16,130.45,136.62Z" transform="translate(-95.89 -85.06)"/><path class="cls-2" d="M135.86,130c0,.06-.09,2.17.37,2.75a8.86,8.86,0,0,1,.65.94,36.79,36.79,0,0,0,5-3.92c1.6-1.71-3.3,2.58-3.92,2.91s-1,.48-1.25.07A18.88,18.88,0,0,1,135.86,130Z" transform="translate(-95.89 -85.06)"/><path class="cls-3" d="M100,113.51s.11-8.52,2.06-11.22,3.75-4.07,4.87-6.37,5-4.56,6.88-5.44a54.28,54.28,0,0,1,7.43-2s-9.62,3.25-11.15,4.66S107.54,97,106.73,98a28.56,28.56,0,0,1-2.91,2.65,17,17,0,0,0-2.48,5.14C100.94,107.5,100,113.51,100,113.51Z" transform="translate(-95.89 -85.06)"/><path class="cls-2" d="M100.3,107.15s.63-3.69,2.4-5.78a39.19,39.19,0,0,0,4.18-5.45,10.48,10.48,0,0,1,4.78-4.31,33.35,33.35,0,0,1,3.76-1.73,67.78,67.78,0,0,0-6.7,3.09,19.64,19.64,0,0,0-3,3.6,6.28,6.28,0,0,1-1.89,2.74C102.57,100.38,100.16,103.77,100.3,107.15Z" transform="translate(-95.89 -85.06)"/><path class="cls-2" d="M104.19,117.82l.19.4-1.79.47-.66-.48.12-1.08s0,1.21.31,1.24.32-.31,1-.34.33-.62.33-.62l-.14-2.19Z" transform="translate(-95.89 -85.06)"/><path class="cls-2" d="M101.88,117.52s-.21.78-.21.86.39.47.39.47l-2.77.71-.54-1.94a13.37,13.37,0,0,1,.89,1.38l1.56-.52.47-1.55Z" transform="translate(-95.89 -85.06)"/><path class="cls-3" d="M101.67,118.39l.36.46-2.9.76-.68.76,7.41-2.24-.56-1.89a9.2,9.2,0,0,1-.66,1.93c-.08,0-1,.26-2.08.54l-.62-.49.12-1.06-.45-2.77c0,.07.27,3.15.27,3.15Z" transform="translate(-95.89 -85.06)"/><path class="cls-3" d="M146.37,116.36a25.91,25.91,0,0,1-.11-4.35c.22-.78,1.43-3.06,1-4.77s-2-6.4-2-6.4,2.29,6,2.44,7-.67,3.64-.9,4.48A37.93,37.93,0,0,0,146.37,116.36Z" transform="translate(-95.89 -85.06)"/><path class="cls-19" d="M147.26,116.79a6.64,6.64,0,0,1-.17-4.07c.64-2.13,1.09-4.2,1.25-3.61a20.38,20.38,0,0,1,.22,5.38C148.29,115.48,147.42,117.29,147.26,116.79Z" transform="translate(-95.89 -85.06)"/><path class="cls-3" d="M147.1,115.53a4,4,0,0,1-.1-2.47c.39-1.28.66-2.54.76-2.18a12.61,12.61,0,0,1,.14,3.25C147.73,114.74,147.2,115.84,147.1,115.53Z" transform="translate(-95.89 -85.06)"/><path class="cls-19" d="M108.42,95.48a4.8,4.8,0,0,1,1.84-2.33c1.37-.86,2.61-1.79,2.41-1.37a14.76,14.76,0,0,1-2.45,3.08C109.61,95.26,108.27,95.83,108.42,95.48Z" transform="translate(-95.89 -85.06)"/><path class="cls-19" d="M108.92,94.7A3,3,0,0,1,110,93.29c.82-.52,1.57-1.08,1.45-.83A8.61,8.61,0,0,1,110,94.32C109.64,94.58,108.83,94.93,108.92,94.7Z" transform="translate(-95.89 -85.06)"/><path class="cls-3" d="M109,131.36s5.7,4.17,10.66,4.54,5.85.11,7.82-.83a54.73,54.73,0,0,1,7.49-2.16s-6.66,1.36-8.69,1.9-7.17.86-7.85.55S109,131.36,109,131.36Z" transform="translate(-95.89 -85.06)"/><path class="cls-2" d="M108,130.9s9.45,4.39,11,4.56a31,31,0,0,0,7.55-.73l9-2s-9.54,1.8-11.69,1.87-4.7.67-5.4.37Z" transform="translate(-95.89 -85.06)"/><path class="cls-3" d="M139.86,128.44a30.13,30.13,0,0,1-2.72,2.34,3.21,3.21,0,0,1,1-1.94c.94-1,1.82-1.17,2.4-2.19a35.06,35.06,0,0,1,1.92-3.64,13.48,13.48,0,0,0,1.6-3.24,20.81,20.81,0,0,1-1,3.61C142.57,124.14,139.86,128.44,139.86,128.44Z" transform="translate(-95.89 -85.06)"/><path class="cls-2" d="M136.74,131.25a9.73,9.73,0,0,1,1.55-2.56,6.72,6.72,0,0,0,2.58-2.67c.78-1.62,3.29-6.41,3.29-6.41s-2.54,3.94-2.9,4.8-.4,2-1.62,2.74S136.66,130.35,136.74,131.25Z" transform="translate(-95.89 -85.06)"/><path class="cls-3" d="M139,129.11a14.91,14.91,0,0,0-1.35,1,2.93,2.93,0,0,1,1.16-1.54,10.29,10.29,0,0,0,1.79-1.76A7.84,7.84,0,0,1,139,129.11Z" transform="translate(-95.89 -85.06)"/><path class="cls-18" d="M102.72,117.35a13.69,13.69,0,0,1-.82-4.77c.1-2.34.63-3,.8-4.78s.25-2.38.25-2.38a32.41,32.41,0,0,1,0,4.16c-.17.62-.15,1.24.39,3.83A4.67,4.67,0,0,1,102.72,117.35Z" transform="translate(-95.89 -85.06)"/><path class="cls-20" d="M102.57,115.11a7.16,7.16,0,0,1-.36-2.63,15.94,15.94,0,0,1,.41-2.58A11.16,11.16,0,0,0,103,113a5.15,5.15,0,0,1-.23,2.9Z" transform="translate(-95.89 -85.06)"/><path class="cls-3" d="M143.76,110.73a1,1,0,0,1-.78-.42,8.94,8.94,0,0,1-1-3.58c0-.9,0-2.29,0-2.29a29.9,29.9,0,0,0,.61,3.48c.42,1.58.83,1.8,1.09,2s.3,0,.3,0l.36-.18Z" transform="translate(-95.89 -85.06)"/><path class="cls-3" d="M145.46,126.51a5.2,5.2,0,0,1,.8-2.28c.8-1.37,2.34-4.19,2.39-4.14A16.86,16.86,0,0,1,145.46,126.51Z" transform="translate(-95.89 -85.06)"/><path class="cls-19" d="M116.43,133.44l-1.36-.23-2.77-2,3.51-.54s0-.65,0-.7l1.17-.47.33.1.61.17-.39,1.69-.76.8,1.1-.29,1.15,2.35L116.82,133Z" transform="translate(-95.89 -85.06)"/><path class="cls-19" d="M115.43,136.47a4.7,4.7,0,0,1-.71-2.22,10.13,10.13,0,0,1,1.63-.17s.43.59.58.78,3.23,1.38,3.35,1.46-2.87-.35-2.87-.35-.63,1.19-.69,1.28-.37,0-.37,0A5.06,5.06,0,0,1,115.43,136.47Z" transform="translate(-95.89 -85.06)"/><path class="cls-3" d="M116.93,129.58s-.51,2.08-.6,2.17-3.2-.34-3.2-.34l3.24,1.27s0,.55,0,.63-1.29-.16-1.26-.1,1.28.95,1.27,1.36a12.81,12.81,0,0,1-.23,2.73c-.18-.1,1.72.65,1.84.65s-1.09-.64-1.24-1.16.07-3.38.26-3.23a20.11,20.11,0,0,0,2.09.8c-.06-.05-2.12-2-2.18-2.14s.48-2.59.48-2.59l-.4-.11Z" transform="translate(-95.89 -85.06)"/><path class="cls-2" d="M115.85,130.09c0,.08,0,.62,0,.62l-3.46.54,3-.69c.14,0,.08-.4.05-.5s.12-.2.35-.28a6.51,6.51,0,0,1,1-.14A5,5,0,0,0,115.85,130.09Z" transform="translate(-95.89 -85.06)"/><path class="cls-2" d="M112,133.7s1.45,1.8,2,1.89.85,0,.75-.3a2.25,2.25,0,0,0-1.29-.92,6.92,6.92,0,0,1-.78-.22,6.59,6.59,0,0,0,1.64.07,2.67,2.67,0,0,1,.71-.37c.2,0,0-.65,0-.65s1.07.88.94.89a11,11,0,0,0-1.35.21,19.12,19.12,0,0,0,.67,2s-1-.39-1.63-.67S112,133.7,112,133.7Z" transform="translate(-95.89 -85.06)"/><path class="cls-2" d="M117.78,132c-.11,0-.92.13-.92.13l.64-.7.43-1.51s0,.61.23.69,3,.55,3,.55-.58-.07-1.79-.12-1.44-.12-1.51.19-.06.26.49.4,3.72,1.18,2.82,1.16a27.62,27.62,0,0,1-2.87-.66c0,.08.74,2.09.79,2.2A21.15,21.15,0,0,0,117.78,132Z" transform="translate(-95.89 -85.06)"/><path class="cls-2" d="M116.89,133.62c.09-.2.34.06.68.21l1.72.7c-2.3-.8-2.19.1-2.19.1l3.19,1.7-3.47-1.51A2.66,2.66,0,0,1,116.89,133.62Z" transform="translate(-95.89 -85.06)"/><path class="cls-2" d="M119.46,136.24l-1.46.07c-.24,0-.42,0-.5.28s1.15.43,1.4.56-1.88-.43-1.88-.43l.4-.76Z" transform="translate(-95.89 -85.06)"/><path class="cls-3" d="M114.58,134.85l-1.51-.2a23.27,23.27,0,0,1-1.23-2.07l1.14,1.21.32.44.53-.34.6.11s-.39.3-.39.35A6.15,6.15,0,0,0,114.58,134.85Z" transform="translate(-95.89 -85.06)"/><path class="cls-3" d="M114.22,134a.77.77,0,0,0-1-.37.79.79,0,1,0,.68,1.42A.79.79,0,0,0,114.22,134Z" transform="translate(-95.89 -85.06)"/><path class="cls-4" d="M113.34,134.84a.54.54,0,0,0,.69-.33.54.54,0,0,0-.34-.69.54.54,0,1,0-.35,1Z" transform="translate(-95.89 -85.06)"/><path class="cls-5" d="M113,134.36l1-.26,0,.14-1.05.23Z" transform="translate(-95.89 -85.06)"/><path class="cls-6" d="M113.08,134.27l.79-.21a.34.34,0,0,0-.36-.21C113.23,133.85,112.92,134.27,113.08,134.27Z" transform="translate(-95.89 -85.06)"/><path class="cls-6" d="M113.13,134.52l.61-.15s-.13.47-.35.4S113,134.53,113.13,134.52Z" transform="translate(-95.89 -85.06)"/><path class="cls-7" d="M113.14,134.2s.31-.07.35-.17-.09-.16-.24,0S113,134.24,113.14,134.2Z" transform="translate(-95.89 -85.06)"/><path class="cls-3" d="M114.94,130.48l-1.52-.19s-2-1.07-1.62-1c2.44.42,1.54.15,1.54.15l.32.43.53-.33.6.11s-.39.3-.39.35S114.94,130.48,114.94,130.48Z" transform="translate(-95.89 -85.06)"/><path class="cls-3" d="M114.57,129.63a.78.78,0,0,0-1-.37.79.79,0,0,0-.37,1.05.79.79,0,0,0,1.42-.68Z" transform="translate(-95.89 -85.06)"/><path class="cls-4" d="M113.39,130.2a.52.52,0,0,0,.71.25.54.54,0,0,0,.25-.72.53.53,0,1,0-1,.47Z" transform="translate(-95.89 -85.06)"/><path class="cls-5" d="M113.47,129.6l.9.55-.07.12-.9-.57Z" transform="translate(-95.89 -85.06)"/><path class="cls-6" d="M113.61,129.62l.7.42a.35.35,0,0,0-.11-.4C114,129.42,113.5,129.5,113.61,129.62Z" transform="translate(-95.89 -85.06)"/><path class="cls-6" d="M113.46,129.83l.54.33s-.43.24-.54,0S113.36,129.74,113.46,129.83Z" transform="translate(-95.89 -85.06)"/><path class="cls-7" d="M113.69,129.62s.28.17.37.12,0-.17-.14-.19S113.61,129.55,113.69,129.62Z" transform="translate(-95.89 -85.06)"/><path class="cls-3" d="M120.57,136.56l-1.51-.2s-2-1.07-1.62-1c2.43.42,1.53.15,1.53.15l.32.43.53-.33.61.11s-.4.3-.4.35A4.26,4.26,0,0,0,120.57,136.56Z" transform="translate(-95.89 -85.06)"/><path class="cls-3" d="M120.22,135.7a.78.78,0,0,0-1-.37.79.79,0,0,0-.37,1,.78.78,0,0,0,1,.37A.8.8,0,0,0,120.22,135.7Z" transform="translate(-95.89 -85.06)"/><path class="cls-4" d="M119,136.27a.54.54,0,0,0,.72.25.55.55,0,0,0,.26-.72.53.53,0,0,0-.72-.25A.55.55,0,0,0,119,136.27Z" transform="translate(-95.89 -85.06)"/><path class="cls-5" d="M119.11,135.68l.9.54-.06.14-.91-.59Z" transform="translate(-95.89 -85.06)"/><path class="cls-6" d="M119.25,135.69l.7.42a.37.37,0,0,0-.11-.4C119.64,135.5,119.14,135.58,119.25,135.69Z" transform="translate(-95.89 -85.06)"/><path class="cls-6" d="M119.1,135.9l.54.33s-.43.24-.54,0S119,135.82,119.1,135.9Z" transform="translate(-95.89 -85.06)"/><path class="cls-7" d="M119.33,135.69s.27.17.37.12,0-.17-.15-.19S119.25,135.64,119.33,135.69Z" transform="translate(-95.89 -85.06)"/><path class="cls-3" d="M120.56,132.08l-1.51-.2s-1-.64-.7-.64A3.39,3.39,0,0,0,119,131l.32.43.53-.33.61.11s-.4.29-.4.34A4.26,4.26,0,0,0,120.56,132.08Z" transform="translate(-95.89 -85.06)"/><path class="cls-3" d="M120.21,131.23a.79.79,0,0,0-1-.38.81.81,0,0,0-.37,1.06.78.78,0,0,0,1,.37A.81.81,0,0,0,120.21,131.23Z" transform="translate(-95.89 -85.06)"/><path class="cls-4" d="M119,131.8a.52.52,0,0,0,.72.24.53.53,0,0,0-.47-1A.55.55,0,0,0,119,131.8Z" transform="translate(-95.89 -85.06)"/><path class="cls-5" d="M119.1,131.2l.9.55-.07.13-.91-.58Z" transform="translate(-95.89 -85.06)"/><path class="cls-6" d="M119.23,131.21l.7.43a.35.35,0,0,0-.11-.4C119.63,131,119.12,131.1,119.23,131.21Z" transform="translate(-95.89 -85.06)"/><path class="cls-6" d="M119.08,131.43l.55.33s-.43.24-.55,0S119,131.34,119.08,131.43Z" transform="translate(-95.89 -85.06)"/><path class="cls-7" d="M119.32,131.21s.27.18.37.13,0-.18-.15-.19S119.23,131.16,119.32,131.21Z" transform="translate(-95.89 -85.06)"/><path class="cls-19" d="M102.43,103.5l.24-1.39,2-2.83.55,3.58s.65,0,.7,0,.48,1.21.48,1.21l-.1.33-.17.62-1.7-.4-.81-.78.3,1.12-2.38,1.18,1.35-2.28Z" transform="translate(-95.89 -85.06)"/><path class="cls-19" d="M99.38,102.5a5,5,0,0,1,2.23-.74,9.77,9.77,0,0,1,.17,1.68s-.6.43-.79.58-1.39,3.28-1.47,3.42.35-2.92.35-2.92l-1.29-.71c-.1-.06,0-.37,0-.37A5.46,5.46,0,0,1,99.38,102.5Z" transform="translate(-95.89 -85.06)"/><path class="cls-3" d="M106.33,104a22.06,22.06,0,0,1-2.17-.62c-.09-.1.34-3.27.34-3.27l-1.27,3.31s-.56.06-.64,0,.16-1.31.1-1.28-1,1.32-1.37,1.29-2.84-.07-2.74-.25-.65,1.76-.66,1.89.64-1.12,1.17-1.27,3.41.08,3.26.26a19.39,19.39,0,0,0-.81,2.14c0-.07,2-2.16,2.15-2.23a24.22,24.22,0,0,1,2.61.49l.11-.42Z" transform="translate(-95.89 -85.06)"/><path class="cls-2" d="M105.81,102.92c-.09,0-.62,0-.62,0l-.54-3.53s.67,3,.69,3.11.39.07.5.06.21.12.29.36a7.92,7.92,0,0,1,.13,1A5,5,0,0,0,105.81,102.92Z" transform="translate(-95.89 -85.06)"/><path class="cls-2" d="M102.16,99s-1.81,1.49-1.89,2,0,.87.3.77a2.23,2.23,0,0,0,.93-1.31,6.21,6.21,0,0,1,.22-.78,7.3,7.3,0,0,0-.08,1.67,1.87,1.87,0,0,1,.37.73c0,.2.66.05.66.05s-.89,1.09-.9.95a10.88,10.88,0,0,0-.21-1.36,20.32,20.32,0,0,0-2,.68s.38-1,.67-1.66S102.16,99,102.16,99Z" transform="translate(-95.89 -85.06)"/><path class="cls-2" d="M103.86,104.89c0-.11-.12-.94-.12-.94l.7.64L106,105s-.6,0-.7.24-.55,3-.55,3,.07-.59.12-1.82.11-1.47-.19-1.55-.26-.06-.41.51-1.18,3.79-1.17,2.88a27.07,27.07,0,0,1,.68-2.93c-.09,0-2.12.75-2.22.81A21.74,21.74,0,0,0,103.86,104.89Z" transform="translate(-95.89 -85.06)"/><path class="cls-2" d="M102.26,104c.21.09-.07.34-.21.7s-.75,1.87-.71,1.76c.81-2.36-.1-2.25-.1-2.25l-1.71,3.26s1.47-3.42,1.53-3.54S102.05,103.9,102.26,104Z" transform="translate(-95.89 -85.06)"/><path class="cls-2" d="M99.6,106.6l-.06-1.49c0-.25,0-.43-.28-.52s-.43,1.18-.57,1.44a17.18,17.18,0,0,1,.43-1.92l.77.41Z" transform="translate(-95.89 -85.06)"/><path class="cls-3" d="M101,101.62l.19-1.55s2.34-1.51,2.08-1.27c-.76.72-1.21,1.17-1.21,1.17l-.45.32.34.53-.11.62s-.3-.41-.35-.39S101,101.62,101,101.62Z" transform="translate(-95.89 -85.06)"/><path class="cls-3" d="M101.88,101.26a.81.81,0,0,0,.37-1.07.79.79,0,0,0-1.06-.37.8.8,0,0,0-.37,1.07A.81.81,0,0,0,101.88,101.26Z" transform="translate(-95.89 -85.06)"/><path class="cls-4" d="M101,100.35a.55.55,0,0,0,.33.7.55.55,0,0,0,.36-1A.55.55,0,0,0,101,100.35Z" transform="translate(-95.89 -85.06)"/><path class="cls-5" d="M101.51,100l.26,1-.15,0-.23-1.06Z" transform="translate(-95.89 -85.06)"/><path class="cls-6" d="M101.6,100.09l.21.81s.2-.06.2-.37S101.6,99.93,101.6,100.09Z" transform="translate(-95.89 -85.06)"/><path class="cls-6" d="M101.34,100.14l.15.63s-.47-.13-.41-.37S101.32,100,101.34,100.14Z" transform="translate(-95.89 -85.06)"/><path class="cls-7" d="M101.67,100.15s.07.31.17.36.17-.08,0-.23S101.63,100.06,101.67,100.15Z" transform="translate(-95.89 -85.06)"/><path class="cls-3" d="M105.42,102l.2-1.55s1.08-2,1-1.66c-.42,2.48-.16,1.56-.16,1.56l-.44.32.33.53-.11.62s-.3-.4-.34-.39A6.37,6.37,0,0,0,105.42,102Z" transform="translate(-95.89 -85.06)"/><path class="cls-3" d="M106.27,101.62a.79.79,0,0,0,.37-1.07.78.78,0,0,0-1.06-.37.8.8,0,0,0-.37,1.06A.81.81,0,0,0,106.27,101.62Z" transform="translate(-95.89 -85.06)"/><path class="cls-4" d="M105.71,100.4a.56.56,0,0,0-.26.73.54.54,0,0,0,.73.26.55.55,0,0,0,.25-.73A.53.53,0,0,0,105.71,100.4Z" transform="translate(-95.89 -85.06)"/><path class="cls-5" d="M106.3,100.49l-.54.92-.14-.08.58-.92Z" transform="translate(-95.89 -85.06)"/><path class="cls-6" d="M106.29,100.63l-.42.71a.35.35,0,0,0,.4-.11C106.48,101,106.41,100.51,106.29,100.63Z" transform="translate(-95.89 -85.06)"/><path class="cls-6" d="M106.08,100.48l-.35.54s-.23-.43,0-.54S106.16,100.38,106.08,100.48Z" transform="translate(-95.89 -85.06)"/><path class="cls-7" d="M106.3,100.72s-.17.28-.14.38.19.06.2-.15S106.35,100.63,106.3,100.72Z" transform="translate(-95.89 -85.06)"/><path class="cls-3" d="M99.29,107.74l.2-1.55s1.08-2,1-1.66c-.42,2.48-.16,1.56-.16,1.56l-.44.32.33.53-.11.62s-.29-.41-.34-.39S99.29,107.74,99.29,107.74Z" transform="translate(-95.89 -85.06)"/><path class="cls-3" d="M100.16,107.36a.79.79,0,0,0,.37-1.06.79.79,0,1,0-.37,1.06Z" transform="translate(-95.89 -85.06)"/><path class="cls-4" d="M99.58,106.15a.56.56,0,0,0-.26.73.54.54,0,1,0,1-.47A.55.55,0,0,0,99.58,106.15Z" transform="translate(-95.89 -85.06)"/><path class="cls-5" d="M100.18,106.24l-.55.93-.13-.08.58-.91Z" transform="translate(-95.89 -85.06)"/><path class="cls-6" d="M100.17,106.39l-.42.71a.36.36,0,0,0,.41-.11C100.37,106.78,100.28,106.26,100.17,106.39Z" transform="translate(-95.89 -85.06)"/><path class="cls-6" d="M100,106.24l-.35.54s-.23-.43,0-.54S100,106.13,100,106.24Z" transform="translate(-95.89 -85.06)"/><path class="cls-7" d="M100.17,106.47s-.17.28-.14.37.19.07.2-.14S100.23,106.39,100.17,106.47Z" transform="translate(-95.89 -85.06)"/><path class="cls-3" d="M103.81,107.72l.2-1.54s.65-1,.64-.72a3.7,3.7,0,0,0,.22.63l-.44.32.33.53-.11.62s-.3-.41-.35-.39S103.81,107.72,103.81,107.72Z" transform="translate(-95.89 -85.06)"/><path class="cls-3" d="M104.66,107.35a.79.79,0,1,0-1.06-.37A.78.78,0,0,0,104.66,107.35Z" transform="translate(-95.89 -85.06)"/><path class="cls-4" d="M104.08,106.14a.55.55,0,1,0,.73.26A.55.55,0,0,0,104.08,106.14Z" transform="translate(-95.89 -85.06)"/><path class="cls-5" d="M104.68,106.23l-.54.92-.13-.07.58-.92Z" transform="translate(-95.89 -85.06)"/><path class="cls-6" d="M104.67,106.37l-.42.72a.36.36,0,0,0,.41-.11C104.87,106.77,104.8,106.25,104.67,106.37Z" transform="translate(-95.89 -85.06)"/><path class="cls-6" d="M104.46,106.23l-.34.54s-.23-.43,0-.54S104.55,106.11,104.46,106.23Z" transform="translate(-95.89 -85.06)"/><path class="cls-7" d="M104.67,106.46s-.17.27-.13.37.18.06.2-.15S104.74,106.37,104.67,106.46Z" transform="translate(-95.89 -85.06)"/><path class="cls-19" d="M144.81,119.09l.31-1.37,2.11-2.72.37,3.6s.66,0,.7.09.42,1.21.42,1.21l-.11.34-.21.6-1.67-.48-.78-.83.24,1.13-2.44,1,1.48-2.2Z" transform="translate(-95.89 -85.06)"/><path class="cls-19" d="M141.82,117.91a4.8,4.8,0,0,1,2.26-.61,10.7,10.7,0,0,1,.09,1.69s-.63.4-.81.54-1.57,3.21-1.65,3.35.5-2.92.5-2.92L141,119.2c-.09-.07,0-.38,0-.38A4.62,4.62,0,0,1,141.82,117.91Z" transform="translate(-95.89 -85.06)"/><path class="cls-3" d="M148.67,119.8s-2.06-.63-2.15-.73.5-3.24.5-3.24l-1.44,3.23s-.56,0-.64-.07.24-1.3.16-1.28-1,1.25-1.44,1.21a12.54,12.54,0,0,1-2.73-.38c.11-.17-.75,1.72-.76,1.85s.7-1.08,1.23-1.21,3.41.26,3.25.44a17.05,17.05,0,0,0-.91,2.09c0-.06,2.16-2,2.26-2.12s2.57.63,2.57.63l.14-.4Z" transform="translate(-95.89 -85.06)"/><path class="cls-2" d="M148.22,118.68l-.62-.08-.35-3.55s.51,3,.52,3.13.4.09.51.09.2.13.26.37a7.85,7.85,0,0,1,.08,1A5.94,5.94,0,0,0,148.22,118.68Z" transform="translate(-95.89 -85.06)"/><path class="cls-2" d="M144.77,114.56s-1.88,1.39-2,1.92-.08.86.26.78.87-.81,1-1.26.26-.77.26-.77a6.87,6.87,0,0,0-.16,1.66,2.1,2.1,0,0,1,.33.75c0,.19.66.08.66.08s-1,1-1,.91a9,9,0,0,0-.15-1.38,20.38,20.38,0,0,0-2.07.57s.45-1,.77-1.62S144.77,114.56,144.77,114.56Z" transform="translate(-95.89 -85.06)"/><path class="cls-2" d="M146.16,120.55c0-.11-.07-.94-.07-.94l.66.68,1.51.52s-.62,0-.72.2-.7,3-.7,3,.1-.58.22-1.81.19-1.47-.12-1.56-.26-.07-.43.49-1.38,3.73-1.32,2.81A22.85,22.85,0,0,1,146,121c-.09,0-2.16.63-2.26.68A26,26,0,0,0,146.16,120.55Z" transform="translate(-95.89 -85.06)"/><path class="cls-2" d="M144.61,119.56c.2.09-.08.33-.24.68l-.8,1.71c.93-2.31,0-2.25,0-2.25l-1.87,3.16s1.65-3.34,1.71-3.45S144.4,119.46,144.61,119.56Z" transform="translate(-95.89 -85.06)"/><path class="cls-2" d="M141.83,122s0-1.24,0-1.49,0-.43-.26-.53-.49,1.15-.64,1.4a18.88,18.88,0,0,1,.53-1.89l.74.44Z" transform="translate(-95.89 -85.06)"/><path class="cls-3" d="M143.49,117.13l.28-1.54s2.43-1.37,2.14-1.15l-1.28,1.1-.45.3.31.56-.14.6a2.92,2.92,0,0,0-.32-.42A6.9,6.9,0,0,0,143.49,117.13Z" transform="translate(-95.89 -85.06)"/><path class="cls-3" d="M144.37,116.81a.82.82,0,0,0,.43-1.06.8.8,0,1,0-.43,1.06Z" transform="translate(-95.89 -85.06)"/><path class="cls-4" d="M143.57,115.86a.55.55,0,0,0,.29.72.55.55,0,0,0,.42-1A.52.52,0,0,0,143.57,115.86Z" transform="translate(-95.89 -85.06)"/><path class="cls-5" d="M144.07,115.52l.2,1-.14,0-.18-1.08Z" transform="translate(-95.89 -85.06)"/><path class="cls-6" d="M144.16,115.64l.17.82s.21,0,.22-.36S144.16,115.47,144.16,115.64Z" transform="translate(-95.89 -85.06)"/><path class="cls-6" d="M143.9,115.67l.11.64s-.46-.16-.38-.38S143.89,115.53,143.9,115.67Z" transform="translate(-95.89 -85.06)"/><path class="cls-7" d="M144.22,115.7s.05.32.15.36.17-.07,0-.23S144.19,115.59,144.22,115.7Z" transform="translate(-95.89 -85.06)"/><path class="cls-3" d="M147.87,117.72l.29-1.53s1.18-2,1.1-1.6c-.55,2.45-.23,1.56-.23,1.56l-.46.3.31.55-.13.61a3.9,3.9,0,0,0-.32-.42C148.35,117.19,147.87,117.72,147.87,117.72Z" transform="translate(-95.89 -85.06)"/><path class="cls-3" d="M148.75,117.4a.81.81,0,0,0-.62-1.49.82.82,0,0,0-.43,1.06A.8.8,0,0,0,148.75,117.4Z" transform="translate(-95.89 -85.06)"/><path class="cls-4" d="M148.23,116.16a.55.55,0,0,0-.3.72.55.55,0,1,0,1-.42A.53.53,0,0,0,148.23,116.16Z" transform="translate(-95.89 -85.06)"/><path class="cls-5" d="M148.83,116.27l-.6.9-.12-.08.62-.89Z" transform="translate(-95.89 -85.06)"/><path class="cls-6" d="M148.81,116.42l-.46.7a.35.35,0,0,0,.41-.09C149,116.82,148.93,116.31,148.81,116.42Z" transform="translate(-95.89 -85.06)"/><path class="cls-6" d="M148.6,116.26l-.37.53s-.21-.44,0-.54S148.7,116.15,148.6,116.26Z" transform="translate(-95.89 -85.06)"/><path class="cls-7" d="M148.81,116.51s-.19.26-.15.36.17.06.2-.14S148.87,116.42,148.81,116.51Z" transform="translate(-95.89 -85.06)"/><path class="cls-3" d="M141.46,123.15l.28-1.54s1.19-2,1.11-1.6c-.55,2.46-.23,1.55-.23,1.55l-.46.3.31.56-.14.6a2.92,2.92,0,0,0-.32-.42A5.69,5.69,0,0,0,141.46,123.15Z" transform="translate(-95.89 -85.06)"/><path class="cls-3" d="M142.34,122.83a.82.82,0,0,0,.43-1.06.81.81,0,0,0-1.05-.43.81.81,0,0,0,.62,1.49Z" transform="translate(-95.89 -85.06)"/><path class="cls-4" d="M141.82,121.59a.55.55,0,0,0-.3.72.54.54,0,0,0,.72.29.55.55,0,0,0,.29-.71A.52.52,0,0,0,141.82,121.59Z" transform="translate(-95.89 -85.06)"/><path class="cls-5" d="M142.42,121.7l-.6.89-.13-.07.63-.89Z" transform="translate(-95.89 -85.06)"/><path class="cls-6" d="M142.4,121.85l-.46.69a.35.35,0,0,0,.41-.09C142.57,122.24,142.52,121.74,142.4,121.85Z" transform="translate(-95.89 -85.06)"/><path class="cls-6" d="M142.19,121.69l-.37.53s-.21-.45,0-.55S142.29,121.58,142.19,121.69Z" transform="translate(-95.89 -85.06)"/><path class="cls-7" d="M142.4,121.93s-.19.26-.15.36.17.07.2-.13S142.46,121.85,142.4,121.93Z" transform="translate(-95.89 -85.06)"/><path class="cls-3" d="M146,123.37l.29-1.53s.7-1,.67-.69a3.14,3.14,0,0,0,.19.64l-.46.29.31.56-.14.61a2.92,2.92,0,0,0-.32-.42S146,123.37,146,123.37Z" transform="translate(-95.89 -85.06)"/><path class="cls-3" d="M146.84,123.05a.81.81,0,0,0-.62-1.49.82.82,0,0,0-.43,1.06A.8.8,0,0,0,146.84,123.05Z" transform="translate(-95.89 -85.06)"/><path class="cls-4" d="M146.32,121.81a.55.55,0,0,0,.42,1,.56.56,0,0,0,.3-.72A.54.54,0,0,0,146.32,121.81Z" transform="translate(-95.89 -85.06)"/><path class="cls-5" d="M146.91,121.92l-.59.89-.12-.07.63-.89Z" transform="translate(-95.89 -85.06)"/><path class="cls-6" d="M146.9,122.07l-.45.69a.33.33,0,0,0,.4-.08C147.07,122.48,147,122,146.9,122.07Z" transform="translate(-95.89 -85.06)"/><path class="cls-6" d="M146.69,121.91l-.37.53s-.21-.44,0-.54S146.78,121.81,146.69,121.91Z" transform="translate(-95.89 -85.06)"/><path class="cls-7" d="M146.9,122.16s-.18.26-.15.36.18.06.2-.14S147,122.07,146.9,122.16Z" transform="translate(-95.89 -85.06)"/><path class="cls-8" d="M143.46,98a9.82,9.82,0,0,0-3.64,2.86,2.59,2.59,0,0,0-.71,2.37,1.87,1.87,0,0,0,1.22,1.08l.45.12-.06-.45c0-.11.3-.7,2.12-2a8,8,0,0,1,1.5-.87,7.36,7.36,0,0,1,2.92-.67h.2l.08-.18a2.3,2.3,0,0,0-1.22-2.52A3.54,3.54,0,0,0,143.46,98Zm-3.28,5.53a1,1,0,0,1-.47-.51,2.07,2.07,0,0,1,.62-1.7,9.19,9.19,0,0,1,3.4-2.67,2.88,2.88,0,0,1,2.28-.3,1.75,1.75,0,0,1,.94,1.4,7.9,7.9,0,0,0-2.9.72,7.72,7.72,0,0,0-1.62.93A7.15,7.15,0,0,0,140.18,103.54Z" transform="translate(-95.89 -85.06)"/><path class="cls-9" d="M147.23,100.1a8.12,8.12,0,0,0-4.61,1.59c-2.34,1.69-2.25,2.29-2.25,2.29s-2.12-.54-.31-2.87,4.91-3.74,6.09-3A1.91,1.91,0,0,1,147.23,100.1Z" transform="translate(-95.89 -85.06)"/><path class="cls-10" d="M147.25,99.55a2.28,2.28,0,0,0-.85-.84c-1.19-.7-4.29.71-6.1,3a2.64,2.64,0,0,0-.72,1.7c-.32-.42-.43-1.15.49-2.35,1.81-2.33,4.91-3.75,6.09-3A2.15,2.15,0,0,1,147.25,99.55Z" transform="translate(-95.89 -85.06)"/><path class="cls-11" d="M143.36,100.87a16.51,16.51,0,0,0-3.07,2.63c-.19.21-.7-.37-.1-1.24s2.65-3,4.63-3.1S145,99.81,143.36,100.87Z" transform="translate(-95.89 -85.06)"/><path class="cls-8" d="M141,99.6a6.13,6.13,0,0,0-.27,2.16c.12.75.15,1.38.15,1.38h.39a11.57,11.57,0,0,0-.15-1.43,5.84,5.84,0,0,1,.26-2Z" transform="translate(-95.89 -85.06)"/><path class="cls-8" d="M143.64,98a1.43,1.43,0,0,0-.21.67,2.09,2.09,0,0,1-.05.32,4.53,4.53,0,0,0-.07,1.16,3.92,3.92,0,0,1-.19,1.34l.37.18a4,4,0,0,0,.21-1.5,5.76,5.76,0,0,1,.06-1.07,2.08,2.08,0,0,0,.05-.36,1.12,1.12,0,0,1,.14-.46Z" transform="translate(-95.89 -85.06)"/><path class="cls-8" d="M146.14,98s.11.88.11,1.37a2,2,0,0,1-.27.92l.33.24a2.53,2.53,0,0,0,.32-1.14c0-.52-.11-1.39-.12-1.43Z" transform="translate(-95.89 -85.06)"/><path class="cls-8" d="M146.31,101.37a9.83,9.83,0,0,0-4.57.64c-1.05.44-1.66,1-1.79,1.69a2,2,0,0,0,.51,1.55l.34.33.16-.42c.08-.07.6-.46,2.83-.68a8.24,8.24,0,0,1,1.72,0,7.24,7.24,0,0,1,2.86.89l.17.11.17-.11a2.3,2.3,0,0,0,.2-2.79C148.43,101.73,147.07,101.46,146.31,101.37Zm-5.57,3.13a1,1,0,0,1-.17-.67c.09-.42.57-.83,1.38-1.16a9.24,9.24,0,0,1,4.27-.61,2.89,2.89,0,0,1,2.13.89,1.77,1.77,0,0,1,.11,1.69,8.16,8.16,0,0,0-2.86-.84,8.8,8.8,0,0,0-1.85,0A7.44,7.44,0,0,0,140.74,104.5Z" transform="translate(-95.89 -85.06)"/><path class="cls-9" d="M148.55,105.07a8.07,8.07,0,0,0-4.78-.94c-2.86.29-3.08.86-3.08.86s-1.57-1.54,1.16-2.64,6.11-.77,6.8.42A1.91,1.91,0,0,1,148.55,105.07Z" transform="translate(-95.89 -85.06)"/><path class="cls-10" d="M148.83,104.6a2.31,2.31,0,0,0-.32-1.15c-.69-1.2-4.06-1.54-6.79-.42a2.77,2.77,0,0,0-1.48,1.1c-.07-.53.2-1.21,1.6-1.78,2.72-1.11,6.11-.77,6.8.42A2.1,2.1,0,0,1,148.83,104.6Z" transform="translate(-95.89 -85.06)"/><path class="cls-11" d="M144.81,103.8a15.81,15.81,0,0,0-4,.73c-.28.08-.44-.68.53-1.13s3.75-1.23,5.55-.35S146.77,103.71,144.81,103.8Z" transform="translate(-95.89 -85.06)"/><path class="cls-8" d="M143.43,101.52a6,6,0,0,0-1.3,1.73c-.28.71-.56,1.27-.56,1.27l.33.21a10.92,10.92,0,0,0,.58-1.33,5.84,5.84,0,0,1,1.21-1.57Z" transform="translate(-95.89 -85.06)"/><path class="cls-8" d="M146.51,101.41a1.28,1.28,0,0,0-.52.47l-.2.26a5,5,0,0,0-.64,1,3.67,3.67,0,0,1-.82,1.06l.23.34a4.1,4.1,0,0,0,.93-1.21,3.85,3.85,0,0,1,.59-.89c.07-.1.14-.18.22-.28a1,1,0,0,1,.34-.34Z" transform="translate(-95.89 -85.06)"/><path class="cls-8" d="M148.66,102.66s-.34.81-.58,1.25a2.51,2.51,0,0,1-.69.67l.18.37a2.54,2.54,0,0,0,.84-.83c.25-.46.6-1.25.61-1.29Z" transform="translate(-95.89 -85.06)"/><path class="cls-8" d="M131.7,134.87a9.91,9.91,0,0,0-1.91-4.23,2.56,2.56,0,0,0-2.11-1.26,1.91,1.91,0,0,0-1.33.94l-.22.42.44,0c.1.06.61.46,1.45,2.54a8.35,8.35,0,0,1,.48,1.67,7.49,7.49,0,0,1,0,3l-.05.2.16.14a2.27,2.27,0,0,0,2.71-.61C132,137,131.84,135.62,131.7,134.87Zm-4.56-4.51a1,1,0,0,1,.58-.34c.44,0,.95.31,1.51,1A9.49,9.49,0,0,1,131,135a2.9,2.9,0,0,1-.25,2.3,1.71,1.71,0,0,1-1.57.59,8.1,8.1,0,0,0,0-3,8.81,8.81,0,0,0-.52-1.8A7.71,7.71,0,0,0,127.14,130.36Z" transform="translate(-95.89 -85.06)"/><path class="cls-9" d="M128.8,138.08a8.24,8.24,0,0,0-.45-4.88c-1.08-2.69-1.68-2.74-1.68-2.74s1-2,2.84.38,2.46,5.68,1.51,6.68A1.94,1.94,0,0,1,128.8,138.08Z" transform="translate(-95.89 -85.06)"/><path class="cls-10" d="M129.32,138.23a2.36,2.36,0,0,0,1-.64c.94-1,.31-4.36-1.52-6.67a2.77,2.77,0,0,0-1.46-1.12c.48-.22,1.21-.16,2.15,1,1.82,2.32,2.46,5.68,1.51,6.68A2.18,2.18,0,0,1,129.32,138.23Z" transform="translate(-95.89 -85.06)"/><path class="cls-11" d="M129,134.1a16.52,16.52,0,0,0-1.82-3.62c-.16-.23.53-.6,1.22.2s2.22,3.28,1.89,5.27S129.6,136,129,134.1Z" transform="translate(-95.89 -85.06)"/><path class="cls-8" d="M130.74,132.13a6,6,0,0,0-2-.77,11.05,11.05,0,0,1-1.36-.18l-.1.38a11.25,11.25,0,0,0,1.43.19,5.33,5.33,0,0,1,1.83.72Z" transform="translate(-95.89 -85.06)"/><path class="cls-8" d="M131.71,135.05a1.38,1.38,0,0,0-.6-.35l-.29-.13a4.56,4.56,0,0,0-1.11-.33,3.5,3.5,0,0,1-1.25-.5l-.24.32a3.87,3.87,0,0,0,1.4.56,4.18,4.18,0,0,1,1,.31l.34.14a1,1,0,0,1,.41.23Z" transform="translate(-95.89 -85.06)"/><path class="cls-8" d="M131.13,137.51s-.87-.1-1.35-.21a1.83,1.83,0,0,1-.82-.49l-.31.28a2.34,2.34,0,0,0,1,.58c.51.11,1.37.21,1.41.22Z" transform="translate(-95.89 -85.06)"/><path class="cls-8" d="M127.79,136.88a10.08,10.08,0,0,0,.44-4.63A2.61,2.61,0,0,0,127,130.1a1.81,1.81,0,0,0-1.61.15l-.41.25.38.26c.06.09.3.69,0,2.93a9.71,9.71,0,0,1-.42,1.69,7.84,7.84,0,0,1-1.53,2.59l-.15.13.08.2a2.26,2.26,0,0,0,2.64.84C127,138.86,127.53,137.59,127.79,136.88Zm-1.71-6.2a1,1,0,0,1,.68,0c.4.19.67.74.81,1.62a9.46,9.46,0,0,1-.42,4.33,2.93,2.93,0,0,1-1.37,1.87,1.71,1.71,0,0,1-1.65-.29,8.21,8.21,0,0,0,1.49-2.61,8.54,8.54,0,0,0,.44-1.81A7.93,7.93,0,0,0,126.08,130.68Z" transform="translate(-95.89 -85.06)"/><path class="cls-9" d="M123.68,138.2a8.12,8.12,0,0,0,2-4.46c.39-2.86-.1-3.22-.1-3.22s1.85-1.16,2.28,1.76-.69,6.16-2,6.54A1.9,1.9,0,0,1,123.68,138.2Z" transform="translate(-95.89 -85.06)"/><path class="cls-10" d="M124.07,138.59a2.34,2.34,0,0,0,1.19-.05c1.32-.39,2.44-3.62,2-6.55a2.72,2.72,0,0,0-.71-1.69c.53,0,1.13.47,1.35,2,.43,2.92-.69,6.16-2,6.54A2.07,2.07,0,0,1,124.07,138.59Z" transform="translate(-95.89 -85.06)"/><path class="cls-11" d="M125.79,134.84a15.06,15.06,0,0,0,.22-4.05c0-.28.76-.26,1,.78s.31,4-1,5.52S125.42,136.78,125.79,134.84Z" transform="translate(-95.89 -85.06)"/><path class="cls-8" d="M128.32,134a6,6,0,0,0-1.37-1.68,11.51,11.51,0,0,1-1.09-.84l-.28.28s.5.44,1.14.88A6.09,6.09,0,0,1,128,134.2Z" transform="translate(-95.89 -85.06)"/><path class="cls-8" d="M127.71,137.05a1.32,1.32,0,0,0-.33-.62,2.73,2.73,0,0,1-.2-.25,4.77,4.77,0,0,0-.78-.85,3.29,3.29,0,0,1-.84-1.06l-.37.15a3.93,3.93,0,0,0,.94,1.19,4.52,4.52,0,0,1,.72.78l.22.29a.93.93,0,0,1,.24.42Z" transform="translate(-95.89 -85.06)"/><path class="cls-8" d="M126,138.87a13.72,13.72,0,0,1-1.07-.87,2.11,2.11,0,0,1-.48-.83l-.39.09a2.55,2.55,0,0,0,.6,1,14.15,14.15,0,0,0,1.11.89Z" transform="translate(-95.89 -85.06)"/><path class="cls-8" d="M101.5,107.7A10.37,10.37,0,0,0,97.13,110a2.71,2.71,0,0,0-1.22,2.33A2,2,0,0,0,97,113.66l.45.21,0-.47c.06-.11.44-.68,2.61-1.69a9.57,9.57,0,0,1,1.73-.6A8,8,0,0,1,105,111l.21.05.13-.17a2.41,2.41,0,0,0-.77-2.86C103.75,107.32,102.3,107.51,101.5,107.7ZM97,112.82a1.13,1.13,0,0,1-.39-.62c-.06-.46.27-1,1-1.65a9.85,9.85,0,0,1,4.09-2.12,3.09,3.09,0,0,1,2.45.15,1.88,1.88,0,0,1,.7,1.65,8.54,8.54,0,0,0-3.18.17,9.29,9.29,0,0,0-1.86.64A7.77,7.77,0,0,0,97,112.82Z" transform="translate(-95.89 -85.06)"/><path class="cls-9" d="M105,110.64a8.52,8.52,0,0,0-5.13.73c-2.78,1.29-2.81,1.94-2.81,1.94s-2.1-1,.25-3.07,5.87-2.92,7-2A2.08,2.08,0,0,1,105,110.64Z" transform="translate(-95.89 -85.06)"/><path class="cls-10" d="M105.17,110.07a2.51,2.51,0,0,0-.73-1c-1.11-1-4.62-.11-7,2a2.82,2.82,0,0,0-1.09,1.63c-.26-.51-.24-1.29,1-2.36,2.35-2.07,5.87-2.92,7-2A2.25,2.25,0,0,1,105.17,110.07Z" transform="translate(-95.89 -85.06)"/><path class="cls-11" d="M100.83,110.67a17.5,17.5,0,0,0-3.73,2.13c-.24.18-.66-.53.15-1.31s3.35-2.55,5.45-2.3S102.78,109.89,100.83,110.67Z" transform="translate(-95.89 -85.06)"/><path class="cls-8" d="M98.65,108.86a6.92,6.92,0,0,0-.71,2.21,13.73,13.73,0,0,1-.12,1.47l.4.09a13.39,13.39,0,0,0,.13-1.54,5.94,5.94,0,0,1,.66-2Z" transform="translate(-95.89 -85.06)"/><path class="cls-8" d="M101.71,107.67a1.52,1.52,0,0,0-.36.66,2,2,0,0,1-.11.32,5.66,5.66,0,0,0-.31,1.21,4,4,0,0,1-.45,1.35l.34.24a4.27,4.27,0,0,0,.52-1.53,4.25,4.25,0,0,1,.28-1.11,2.42,2.42,0,0,0,.12-.35A1.13,1.13,0,0,1,102,108Z" transform="translate(-95.89 -85.06)"/><path class="cls-8" d="M104.32,108.17s-.07.94-.15,1.46a2.09,2.09,0,0,1-.47.92l.31.31a2.54,2.54,0,0,0,.56-1.13c.09-.54.15-1.47.17-1.51Z" transform="translate(-95.89 -85.06)"/><path class="cls-8" d="M103.82,111.79a10.31,10.31,0,0,0-4.91-.24A2.72,2.72,0,0,0,96.7,113a2,2,0,0,0,.24,1.72l.29.43.26-.4c.09-.06.72-.36,3.08-.15a8,8,0,0,1,1.81.36,7.65,7.65,0,0,1,2.82,1.5l.16.15.2-.09a2.43,2.43,0,0,0,.75-2.87C106,112.57,104.61,112,103.82,111.79Zm-6.45,2.15a1,1,0,0,1,0-.73c.17-.43.75-.75,1.67-.94a9.75,9.75,0,0,1,4.59.22,3.14,3.14,0,0,1,2.06,1.37,1.82,1.82,0,0,1-.22,1.78,8.56,8.56,0,0,0-2.84-1.45,10.73,10.73,0,0,0-1.94-.38A7.83,7.83,0,0,0,97.37,113.94Z" transform="translate(-95.89 -85.06)"/><path class="cls-9" d="M105.44,116.11a8.51,8.51,0,0,0-4.82-1.94c-3.05-.28-3.39.27-3.39.27s-1.32-1.92,1.74-2.53,6.54.41,7,1.81A2.09,2.09,0,0,1,105.44,116.11Z" transform="translate(-95.89 -85.06)"/><path class="cls-10" d="M105.83,115.68a2.44,2.44,0,0,0-.11-1.28c-.48-1.39-4-2.41-7-1.81a2.83,2.83,0,0,0-1.76.86c0-.57.45-1.24,2-1.55,3.07-.61,6.54.41,7,1.81A2.26,2.26,0,0,1,105.83,115.68Z" transform="translate(-95.89 -85.06)"/><path class="cls-11" d="M101.78,114a17.56,17.56,0,0,0-4.28,0c-.3,0-.31-.79.77-1.06s4.16-.54,5.87.74S103.85,114.32,101.78,114Z" transform="translate(-95.89 -85.06)"/><path class="cls-8" d="M100.78,111.37a6.55,6.55,0,0,0-1.71,1.56c-.42.69-.83,1.2-.83,1.21l.3.29a12.08,12.08,0,0,0,.88-1.27,6.32,6.32,0,0,1,1.56-1.41Z" transform="translate(-95.89 -85.06)"/><path class="cls-8" d="M104,111.85a1.48,1.48,0,0,0-.63.4l-.25.22a4.88,4.88,0,0,0-.87.89,3.43,3.43,0,0,1-1.07.94l.19.4a4.39,4.39,0,0,0,1.2-1.07,4.68,4.68,0,0,1,.79-.81,3.58,3.58,0,0,0,.28-.26.93.93,0,0,1,.44-.28Z" transform="translate(-95.89 -85.06)"/><path class="cls-8" d="M106,113.6s-.53.78-.86,1.19a2.22,2.22,0,0,1-.85.55l.11.42a2.49,2.49,0,0,0,1-.69c.34-.42.86-1.2.88-1.23Z" transform="translate(-95.89 -85.06)"/><path class="cls-21" d="M130.69,115h-2.4v3.09H125V115h-7.91v-2.28l6.93-9.33h3.57l-6.43,8.84h4v-2.75h3.21v2.75h2.4Z" transform="translate(-95.89 -85.06)"/></svg>