<?xml version="1.0" encoding="utf-8"?>
<!-- Generator: Adobe Illustrator 23.0.5, SVG Export Plug-In . SVG Version: 6.00 Build 0)  -->
<svg version="1.1" id="Слой_1" xmlns="http://www.w3.org/2000/svg" xmlns:xlink="http://www.w3.org/1999/xlink" x="0px" y="0px"
	 viewBox="0 0 157 143" style="enable-background:new 0 0 157 143;" xml:space="preserve">
<style type="text/css">
	.st0{opacity:0.5;fill:#3D1901;enable-background:new    ;}
	.st1{fill:#3D1900;}
	.st2{fill:#9F5E26;}
	.st3{fill:#E6B554;}
	.st4{opacity:0.5;}
	.st5{opacity:0.5;fill:#632A02;enable-background:new    ;}
	.st6{opacity:0.36;fill:#602C08;enable-background:new    ;}
	.st7{opacity:0.36;}
	.st8{opacity:0.72;fill:#602C08;enable-background:new    ;}
	.st9{fill:#512303;}
	.st10{fill:#6D717E;}
	.st11{fill:#242833;}
	.st12{opacity:0.39;fill:#FFFFFF;enable-background:new    ;}
	.st13{fill:#FFFFFF;}
	.st14{fill:#593C12;}
	.st15{fill:#D39D3B;}
	.st16{fill:#91671E;}
	.st17{fill:#F5C15E;}
	.st18{fill:#723609;}
	.st19{opacity:0.38;fill:#9F5E26;enable-background:new    ;}
	.st20{opacity:0.3;}
	.st21{opacity:0.3;fill:#260503;enable-background:new    ;}
	.st22{opacity:0.25;fill:#512303;enable-background:new    ;}
	.st23{opacity:0.39;fill:#512303;enable-background:new    ;}
	.st24{opacity:0.5;fill:#512303;enable-background:new    ;}
	.st25{fill:#FFE800;}
</style>
<path class="st0" d="M23.3,117.4L21,24l118.7,1.2c0,0-0.1-9.2-1.8-10.2c-1.7-1.1-121,1-121,1l2.9,102L23.3,117.4z"/>
<path class="st1" d="M138.5,13.3H14.7v106.2h123.8V13.3z"/>
<path class="st2" d="M148.8,21.8l-9.1,117.7c0,0-12.1,1-12.4,0c-0.3-1,3.3-121,3.3-121l7.5-3.5l0.7,6l3.9-8.2l7.9,3.1L148.8,21.8z"
	/>
<path class="st3" d="M139.4,24.4l4.5-9l6.2,2.4l0.6-2.1l-7.8-3.1L139,21L139.4,24.4z"/>
<path class="st3" d="M131.7,21.3l6.8-3.4l-0.4-2.7l-7.5,3.5c0,0-3.6,120.1-3.3,121c0,0.2,0.5,0.3,1.1,0.4
	C128.8,126.9,131.7,21.3,131.7,21.3z"/>
<g class="st4">
	<path class="st5" d="M148.6,15l-1.9,6l-9.1,117.7c0,0-6.7,0.5-10.2,0.4c0,0.2,0,0.4,0,0.4c0.3,1,12.4,0,12.4,0l9.1-117.7l1.9-6
		L148.6,15z"/>
	<path class="st5" d="M137.5,26l2-6.2L139,21l-0.7-5.9l-1.9,0.9L137.5,26z"/>
</g>
<path class="st5" d="M134.5,102.4c-0.2-2.3,1.1-41.1,1.4-43c0.2-1.6,0.4-6.9,0.6-8.9l0.9-26.3c0,0-2.4,32.5-2.7,35.1
	c-0.3,2.6-2.1,49.1-2.4,51.3c-0.2,2.1-2.8,25.5-3.1,27.7c0.1,0,0.5-1.9,0.7-2.6c0.6-1.7,2.2-12.2,2.4-14.4
	C132.7,118.9,134.7,104.6,134.5,102.4z"/>
<path class="st5" d="M146.2,16.8c0,0-3.1,10.9-3.4,14.6c-0.3,3.7-0.6,22.6-0.6,26.3c-0.1,3.7,0.2,42.8-0.4,46.7
	c-0.6,4-1.8,15.4-1.8,15.4s2.7-16.5,3-19.1c0.2-2.6,0-45.4,0.3-49.5c0.3-4.1,1.3-19.9,1.9-23.1s1.8-12.7,1.8-12.7L146.2,16.8z"/>
<path class="st5" d="M145.8,19.3c0,0-2.6,10.2-2.8,11.8c-0.2,1.7-0.1,20.6-0.1,20.3c0-0.4,0.8-20.2,1.3-21.8
	C144.7,28,145.8,19.3,145.8,19.3z"/>
<path class="st3" d="M146,23.1c0,0-1.1,6.2-1.9,9.4c-0.9,3.2-0.7,20.2-0.8,22.5c0,2.3-0.1,43.3-0.1,43.3s0.6-39.9,0.6-41.9
	c0-2-0.2-6.2,0.2-7.6C144.4,47.3,146,23.1,146,23.1z"/>
<path class="st5" d="M143,90.4c0,0-0.8,14.7-2,21.9c-1.2,7.2-0.6,5.4-1.4,9.5c-0.8,4.1-1.5,8.7-1.6,10.3c-0.1,1.6-0.4,5.2-0.4,5.2
	s1.2-8.8,1.7-10.7c0.6-1.9,2.5-16.3,2.8-20C142.3,102.8,143,90.4,143,90.4z"/>
<path class="st5" d="M139.4,97.3c0,0-2.3,14.7-2.4,18.6c-0.1,3.9-2.5,21-2.5,21s0.9-4.4,1.2-6.5c0.2-2.1,1.6-12.2,1.8-14.2
	C137.7,114.3,138.4,104.6,139.4,97.3z"/>
<path class="st3" d="M134.5,137l1.2-6c0,0,1.5-12.3,1.6-12.7c0.1-0.5,0.9-10.6,0.9-10.6l1.1-10.8c0,0-1.1,15.6-1.4,18.3
	c-0.2,2.6-2.2,17.2-2.2,17.2L134.5,137z"/>
<path class="st5" d="M134.1,17.5c0,0-1.6,27.3-2,34.3c-0.4,7-1.8,48.4-1.8,48.4s3.8-71.4,3.9-71.7C134.6,21.6,134.1,17.5,134.1,17.5
	z"/>
<path class="st3" d="M134.9,27.7c-0.4,4.7-4.5,71.8-4.5,71.8s3.7-70.9,3.9-73.3c0.1-2.5-0.1-9.2-0.1-9.2S135.4,23,134.9,27.7z"/>
<path class="st2" d="M147.6,117.8v7.1l-3,1.2l6.3,1.3v8.3L7.7,128.5l-2.2-6.9l4.7-0.4l-6-1v-4.8L147.6,117.8z"/>
<g class="st4">
	<path class="st5" d="M146.4,123.4l-6.2,2.9l4.6-0.2l-0.1,0l3-1.2v-7.1h-1.2V123.4z"/>
	<path class="st5" d="M149.7,127.1v7.1L7.2,127l0.5,1.4l143.3,7.2v-8.3L149.7,127.1z"/>
	<path class="st5" d="M4.3,120.1l4.6-0.4l-4.7-0.8v1.3l0.1,0L4.3,120.1z"/>
</g>
<path class="st3" d="M5.3,116.7l142.3,2.3v-1.2L4.2,115.5v4.8l1.1,0.2V116.7z"/>
<path class="st3" d="M139.2,126.3l11.8,2.2v-1.1l-6.2-1.3L139.2,126.3z"/>
<path class="st3" d="M6.6,122.9l7.2-1.8l-5.9,0.3l-2.4,0.2l2.2,6.9l0.7,0L6.6,122.9z"/>
<path class="st5" d="M14.8,122c0,0,12.4-3.8,19.7-3.3c7.2,0.5,16.2,1.5,23.1,2.5c7,1,23.8,4.8,31.7,4.6c7.9-0.2,25.2,0.7,25.2,0.7
	s-28,1.1-33,0.9c-5.1-0.2-29-5.2-36.9-5.8c-7.9-0.6-1.6,1.2-8,1.6c-6.4,0.4-25.1,0.1-25.1,0.1L14.8,122z"/>
<path class="st5" d="M19.6,122c0,0,10.8-3,14-2.9c3.2,0.1,12.3,1.8,11.5,1.7c-0.7-0.1-1.9,0-5.1,0.7C36.8,122.1,19.6,122,19.6,122z"
	/>
<path class="st3" d="M26.6,123.8c0,0,2.2-0.5,8.9-1.6c6.7-1.1,11.9,0.2,16.2,0.9c4.3,0.7,24.9,4.3,24.9,4.3s-19-1.9-22.7-2.5
	c-3.8-0.6-11.4-2.5-14.4-2.1C36.5,123.1,26.6,123.8,26.6,123.8z"/>
<path class="st5" d="M138.5,124.9c0,0-23.9,0.8-35.9-1c-12-1.8-4.1-0.7-11-2c-7-1.3-14.6-2.4-17.2-2.4c-2.6-0.1-8.5,0.2-8.5,0.2
	s14.6,1.3,17.9,2.5c3.3,1.2,22.4,3.6,28.5,3.5C118.3,125.6,138.5,124.9,138.5,124.9z"/>
<path class="st5" d="M147.1,129c0,0-32.7-2.5-40.9-1c-8.2,1.6-41.2-0.5-41.2-0.5s10,1.6,14.6,1.7c4.6,0.1,22,0.9,26.3,0.7
	C110.1,129.9,131.1,128.1,147.1,129z"/>
<path class="st3" d="M64.9,127.4l13.5,1.9c0,0,22.2,0.6,23.1,0.6c1,0,23.1-1,23.1-1l23.6-0.8c0,0-33.7,2.6-39.5,2.9
	c-5.8,0.2-33.1-0.9-33.1-0.9L64.9,127.4z"/>
<path class="st5" d="M146.2,119.3c0,0-16.3-0.4-24.9,0.6c-8.5,1-17.9,0.5-17.9,0.5s29.2,2.2,29.7,2.2
	C141.5,121.9,146.2,119.3,146.2,119.3z"/>
<path class="st3" d="M134.3,124.3c-5.8,0.2-34.8-3.8-34.8-3.8s33.4,2,36.4,1.7c3-0.3,10.9-2.9,10.9-2.9S140.1,124.2,134.3,124.3z"/>
<path class="st2" d="M24,132.1l-7.7,3.1L3,4.8h7.2l0.4,2.3l1.4-2.3h2.6l1.9,5.4l0.4-8.4h2.5L24,132.1z"/>
<path class="st3" d="M17.4,12.1l1.1-9.3h1.1l0-1.1h-2.5L16.6,10L17.4,12.1z"/>
<path class="st3" d="M4.5,5.9h6l0.4,3.7l1.8-4l2.4,0.2l0.6,1.5l-0.9-2.5h-2.6l-1.4,2.3l-0.4-2.3H3l13.2,130.4l1.2-0.5L4.5,5.9z"/>
<g class="st4">
	<path class="st5" d="M16.8,12.2l-0.1-2.4v0.3l-1.9-5.4h-0.5L16.8,12.2z"/>
	<path class="st5" d="M10.6,8.3l0.1-1.4l-0.1,0.2l-0.4-2.3H9.6L10.6,8.3z"/>
	<path class="st5" d="M19.5,1.7h-0.9L23,130.8l-7,2.8l0.2,1.6l7.7-3.1L19.5,1.7z"/>
</g>
<path class="st5" d="M18.6,115.2c0,0-2.4-12.2-2.5-16.3c-0.1-4.1,0-39.1,0.1-43.1s1-27.9,0.6-32.3C16.5,19.2,16.2,11,16.2,11
	s1.5,14,1.5,16.8c0.1,2.8-1,60.8-0.9,65.3c0.1,4.5,0.9,6.4,1.3,9.9c0.4,3.5,1,14,1,14L18.6,115.2z"/>
<path class="st5" d="M18.4,112.6c0,0-2-11.4-2.1-13.2c-0.1-1.8,0.2-7,0.2-6.6c0,0.4,0.5,6.7,0.8,8.4C17.8,103,18.4,112.6,18.4,112.6
	z"/>
<path class="st3" d="M18.8,108.5c0,0-0.7-6.8-1.3-10.5c-0.7-3.6-0.4-36.6-0.2-39.1c0.1-2.5,0.7-28.4,0.7-28.4s0,24.9-0.1,27.1
	c-0.1,2.2-0.6,36.6-0.3,38.2C17.8,97.4,18.8,108.5,18.8,108.5z"/>
<path class="st5" d="M11,8.7c0,0,0.9,8.2,1.7,11.3c0.8,3.1,2.4,31.6,2.4,31.6s-0.1-18-0.4-19.7c-0.2-1.7-1.2-10.2-1.5-11.8
	C13,18.4,11.6,14.8,11,8.7z"/>
<path class="st3" d="M15.1,51.6l-0.3-19.3c0,0-1.3-10.3-1.3-10.6c0-0.4-1.5-8.7-1.5-8.7l-1.2-4.7c0,0,2.2,8.5,2.6,10.7
	c0.4,2.2,1.8,14.4,1.8,14.4L15.1,51.6z"/>
<path class="st5" d="M7.5,14.7c0,0,3.4,67,6.1,81c2.6,14.1,5.8,37.7,5.8,37.7S12.5,32.8,12.3,32C9.9,18.2,7.5,14.7,7.5,14.7z"/>
<path class="st3" d="M13.1,29.9c1.5,9.6,6.1,102.1,6.1,102.1s-6.8-99.7-7.8-104.6c-0.9-5-4.1-13.6-4.1-13.6S11.6,20.4,13.1,29.9z"/>
<path class="st6" d="M6.2,18.1l-1.5-0.2l0.6,5.3l14.6-0.5l-0.1-4.1C19.8,18.6,6.3,18.1,6.2,18.1z"/>
<path class="st6" d="M130.4,25.2l0.1,0.6c0,0-0.1,3.1-0.2,3.6c-0.1,0.5,18,0,18,0l0.5-3.6C148.8,25.8,130.6,25.2,130.4,25.2z"/>
<g class="st7">
	<path class="st6" d="M22.8,115.8l0.7,13.5h2.3l-0.5-13.5H22.8z"/>
	<path class="st6" d="M127.3,134.8v2.5H140l0.4-1.9C140.4,135.3,127.4,134.8,127.3,134.8z"/>
</g>
<path class="st8" d="M3.4,4.1l2.3,15.4l8-5L10.6,8L3.4,4.1z"/>
<path class="st2" d="M153,3.9V13l-3.2,1.6l6.7,1.6v10.6L4.3,17.6L2,8.8l4.9-0.5L0.6,7.1V1L153,3.9z"/>
<g class="st4">
	<path class="st5" d="M151.7,11l-6.6,3.8l4.9-0.3l-0.2,0l3.2-1.6V3.8h-1.3V11z"/>
	<path class="st5" d="M155.3,15.8v9L3.8,15.7l0.5,1.9l152.3,9.1V16.1L155.3,15.8z"/>
	<path class="st5" d="M0.7,6.8l4.9-0.5l-5.1-1v1.7h0.2L0.7,6.8z"/>
</g>
<path class="st3" d="M1.7,2.6L153,5.5V3.9L0.6,1v6.1l1.2,0.2V2.6z"/>
<path class="st3" d="M144.1,14.8l12.5,2.7v-1.3l-6.6-1.7L144.1,14.8z"/>
<path class="st3" d="M3.1,10.4l7.6-2.2L4.5,8.6L2,8.8l2.3,8.8l0.7,0L3.1,10.4z"/>
<path class="st5" d="M11.8,9.3c0,0,13.2-4.8,20.9-4.2c7.7,0.6,17.2,1.9,24.6,3.2c7.4,1.3,25.3,6.1,33.7,5.9
	c8.4-0.3,26.9,0.9,26.9,0.9s-29.7,1.4-35.1,1.1c-5.4-0.3-30.8-6.6-39.2-7.4c-8.4-0.8-1.7,1.5-8.5,2c-6.8,0.5-26.6,0.1-26.6,0.1
	L11.8,9.3z"/>
<path class="st5" d="M16.9,9.3c0,0,11.5-3.8,14.9-3.7c3.4,0.2,13,2.3,12.3,2.1c-0.7-0.2-2,0-5.4,0.8C35.2,9.5,16.9,9.3,16.9,9.3z"/>
<path class="st3" d="M24.4,11.6c0,0,2.4-0.7,9.5-2C41,8.2,46.4,9.8,51,10.7c4.6,0.9,26.5,5.4,26.5,5.4S57.3,13.7,53.3,13
	c-4-0.8-12.1-3.2-15.3-2.7C34.9,10.8,24.4,11.6,24.4,11.6z"/>
<path class="st5" d="M143.3,13c0,0-25.4,1-38.2-1.3c-12.8-2.3-4.4-0.8-11.7-2.5c-7.4-1.7-15.5-3-18.3-3.1c-2.8-0.1-9,0.2-9,0.2
	s15.5,1.7,19,3.2c3.5,1.5,23.8,4.6,30.3,4.5C121.8,14,143.3,13,143.3,13z"/>
<path class="st5" d="M152.5,18.3c0,0-34.8-3.2-43.5-1.2c-8.7,2-43.8-0.6-43.8-0.6s10.6,2.1,15.5,2.2c4.9,0.1,23.4,1.1,28,1
	C113.2,19.4,135.5,17.1,152.5,18.3z"/>
<path class="st3" d="M65,16.3l14.4,2.5c0,0,23.6,0.8,24.6,0.8c1.1,0,24.6-1.3,24.6-1.3l25-1c0,0-35.8,3.4-41.9,3.7
	c-6.1,0.3-35.1-1.1-35.1-1.1L65,16.3z"/>
<path class="st5" d="M151.5,5.9c0,0-17.3-0.6-26.4,0.7S106,7.3,106,7.3s31.1,2.9,31.6,2.8C146.6,9.2,151.5,5.9,151.5,5.9z"/>
<path class="st3" d="M138.9,12.3c-6.1,0.2-37-4.8-37-4.8s35.5,2.6,38.7,2.2c3.2-0.4,11.5-3.7,11.5-3.7S145,12.1,138.9,12.3z"/>
<path class="st9" d="M21.4,125.6l0.1-3.8c0,0-1.8-5.3-1.8-4.4c0,6.1-0.2,3.8-0.2,3.8l0.9,1l-1,1.2v1.5c0,0,0.9-0.8,1-0.8
	C20.6,124.1,21.4,125.6,21.4,125.6z"/>
<path class="st9" d="M19.5,124.4c-0.9-0.6-1.1-1.8-0.5-2.7c0.6-0.9,1.8-1.1,2.7-0.5c0.9,0.6,1.1,1.8,0.5,2.7
	C21.6,124.8,20.4,125,19.5,124.4z"/>
<path class="st10" d="M21.4,121.7c0.6,0.4,0.7,1.3,0.3,1.9c-0.4,0.6-1.2,0.7-1.9,0.3c-0.6-0.4-0.7-1.2-0.3-1.9
	C20,121.4,20.8,121.3,21.4,121.7z"/>
<path class="st11" d="M19.9,121.7l0.9,2.4l0.3-0.1l-1-2.4L19.9,121.7z"/>
<path class="st12" d="M19.9,122l0.7,1.9c0,0-0.5,0.2-0.9-0.4C19.3,122.9,19.7,121.7,19.9,122z"/>
<path class="st12" d="M20.5,121.8l0.6,1.4c0,0,0.7-1,0.3-1.3C20.9,121.6,20.3,121.5,20.5,121.8z"/>
<path class="st13" d="M19.9,122.3c0,0,0.3,0.7,0.2,1c-0.1,0.2-0.5,0.1-0.4-0.4C19.7,122.3,19.8,122,19.9,122.3z"/>
<path class="st9" d="M131.3,125.9l3.6,1.2c0,0,2.8-0.5,2.2-0.7c-0.3-0.1-1.2-1.1-1.2-1.1l-1.2,0.6l-0.8-1.3l-1.5-0.4
	c0,0,0.6,1.1,0.5,1.2C133,125.4,131.3,125.9,131.3,125.9z"/>
<path class="st9" d="M133,124.3c0.8-0.7,2.1-0.6,2.7,0.3c0.7,0.8,0.6,2.1-0.3,2.8c-0.8,0.7-2.1,0.6-2.7-0.3
	C132.1,126.2,132.2,125,133,124.3z"/>
<path class="st10" d="M135.1,126.9c-0.6,0.5-1.4,0.4-1.9-0.2c-0.5-0.6-0.4-1.4,0.2-1.9c0.6-0.5,1.4-0.4,1.9,0.2
	C135.7,125.6,135.7,126.4,135.1,126.9z"/>
<path class="st11" d="M135.5,125.4l-2.6,0.3l0,0.4l2.6-0.4L135.5,125.4z"/>
<path class="st12" d="M135.2,125.3l-2,0.2c0,0,0-0.5,0.7-0.8C134.5,124.5,135.6,125.2,135.2,125.3z"/>
<path class="st12" d="M135.3,126l-1.6,0.2c0,0,0.7,1,1.2,0.6C135.4,126.5,135.6,125.9,135.3,126z"/>
<path class="st13" d="M135,125.2c0,0-0.8,0.1-0.9-0.1c-0.2-0.2,0.1-0.5,0.5-0.3C135,125,135.2,125.2,135,125.2z"/>
<path class="st9" d="M145.3,18.2l-3.7-0.9c0,0-5.5,0.7-4.6,0.9c6,1.2,3.7,1,3.7,1l1.1-0.7l0.9,1.2l1.5,0.3c0,0-0.7-1-0.6-1.1
	C143.6,18.8,145.3,18.2,145.3,18.2z"/>
<path class="st9" d="M143.7,19.9c-0.8,0.7-2,0.7-2.7-0.1c-0.7-0.8-0.7-2,0.1-2.7c0.8-0.7,2-0.7,2.7,0.1
	C144.5,17.9,144.4,19.1,143.7,19.9z"/>
<path class="st10" d="M141.4,17.5c0.5-0.5,1.4-0.5,1.9,0c0.5,0.5,0.5,1.4,0,1.9c-0.5,0.5-1.4,0.5-1.9,0
	C140.9,18.9,140.9,18,141.4,17.5z"/>
<path class="st11" d="M141.1,19l2.6-0.5l0-0.4l-2.6,0.5L141.1,19z"/>
<path class="st12" d="M141.4,19.1l2-0.4c0,0,0.1,0.5-0.6,0.8C142.2,19.9,141.1,19.2,141.4,19.1z"/>
<path class="st12" d="M141.3,18.4l1.5-0.3c0,0-0.8-0.9-1.2-0.5C141.2,18,141,18.5,141.3,18.4z"/>
<path class="st13" d="M141.6,19.1c0,0,0.8-0.1,0.9,0c0.2,0.2,0,0.5-0.5,0.3C141.6,19.3,141.4,19.2,141.6,19.1z"/>
<path class="st9" d="M147.8,7.2L144,7.1c0,0-5.2,1.9-4.4,1.9c6.1-0.1,3.8,0.2,3.8,0.2l0.9-1l1.2,1l1.5,0c0,0-0.8-0.9-0.8-1
	C146.3,8.1,147.8,7.2,147.8,7.2z"/>
<path class="st9" d="M146.6,9.1c-0.6,0.9-1.8,1.1-2.7,0.5c-0.9-0.6-1.1-1.8-0.5-2.7s1.8-1.1,2.7-0.5C146.9,7,147.2,8.3,146.6,9.1z"
	/>
<path class="st10" d="M143.9,7.3c0.4-0.6,1.2-0.8,1.8-0.4s0.8,1.2,0.4,1.8c-0.4,0.6-1.2,0.8-1.8,0.4C143.6,8.7,143.5,7.9,143.9,7.3z
	"/>
<path class="st11" d="M143.9,8.8l2.4-1l-0.1-0.3l-2.4,1.1L143.9,8.8z"/>
<path class="st12" d="M144.2,8.8l1.9-0.7c0,0,0.2,0.5-0.4,1C145.1,9.4,143.9,9,144.2,8.8z"/>
<path class="st12" d="M144,8.2l1.4-0.6c0,0-0.9-0.7-1.3-0.3C143.7,7.8,143.6,8.4,144,8.2z"/>
<path class="st13" d="M144.4,8.8c0,0,0.7-0.3,0.9-0.2c0.2,0.1,0.1,0.5-0.4,0.4C144.4,9,144.2,8.9,144.4,8.8z"/>
<path class="st9" d="M7.2,7.5l3.7,1.2c0,0,2.8-0.5,2.2-0.7c-0.3-0.1-1.2-1.1-1.2-1.1l-1.2,0.6L9.9,6.2L8.4,5.8c0,0,0.6,1.1,0.5,1.2
	C8.9,7.1,7.2,7.5,7.2,7.5z"/>
<path class="st9" d="M8.9,6c0.8-0.7,2.1-0.6,2.7,0.3c0.7,0.8,0.6,2.1-0.3,2.7c-0.8,0.7-2.1,0.6-2.7-0.3C7.9,7.9,8,6.7,8.9,6z"/>
<path class="st10" d="M11,8.5C10.4,9,9.6,8.9,9.1,8.4C8.6,7.8,8.7,6.9,9.3,6.5c0.6-0.5,1.4-0.4,1.9,0.2C11.6,7.2,11.5,8,11,8.5z"/>
<path class="st11" d="M11.4,7.1L8.8,7.4l0,0.4l2.6-0.4L11.4,7.1z"/>
<path class="st12" d="M11.1,7L9,7.2c0,0,0-0.5,0.7-0.8C10.4,6.1,11.4,6.8,11.1,7z"/>
<path class="st12" d="M11.2,7.6L9.6,7.8c0,0,0.7,1,1.2,0.6C11.2,8.1,11.5,7.5,11.2,7.6z"/>
<path class="st13" d="M10.9,6.9c0,0-0.8,0.1-0.9-0.1C9.8,6.6,10,6.3,10.5,6.5C10.9,6.7,11.1,6.8,10.9,6.9z"/>
<path class="st9" d="M9.6,14l3.7,1.2c0,0,2.8-0.5,2.2-0.7c-0.3-0.1-1.2-1.1-1.2-1.1L13.2,14l-0.8-1.3l-1.5-0.4c0,0,0.6,1.1,0.5,1.2
	C11.3,13.5,9.6,14,9.6,14z"/>
<path class="st9" d="M11.3,12.4c0.8-0.7,2.1-0.6,2.7,0.3c0.7,0.8,0.6,2.1-0.3,2.7c-0.8,0.7-2.1,0.6-2.7-0.3
	C10.3,14.4,10.5,13.2,11.3,12.4z"/>
<path class="st10" d="M13.4,15c-0.6,0.5-1.4,0.4-1.9-0.2c-0.5-0.6-0.4-1.4,0.2-1.9c0.6-0.5,1.4-0.4,1.9,0.2C14,13.7,14,14.5,13.4,15
	z"/>
<path class="st11" d="M13.8,13.6l-2.6,0.3v0.4l2.7-0.4L13.8,13.6z"/>
<path class="st12" d="M13.5,13.4l-2,0.2c0,0,0-0.5,0.7-0.8C12.8,12.6,13.9,13.3,13.5,13.4z"/>
<path class="st12" d="M13.6,14.1L12,14.3c0,0,0.7,1,1.2,0.6C13.7,14.6,13.9,14,13.6,14.1z"/>
<path class="st13" d="M13.3,13.3c0,0-0.8,0.1-0.9-0.1c-0.2-0.2,0.1-0.5,0.5-0.3C13.3,13.2,13.6,13.3,13.3,13.3z"/>
<path class="st14" d="M138.3,117.7c-2.7,0.4-5.7,0.2-8.3-0.7c-2-0.7-3.1-1.7-3.4-2.9c-0.4-1.5,0.7-2.8,0.8-2.8l0.6-0.6l0.3,0.7
	c0.2,0.1,1.1,0.8,5.2,1c1.1,0,2.1,0,3.1-0.2c3.1-0.5,5.1-1.9,5.1-1.9l0.3-0.2l0.3,0.2c0.7,0.4,1.9,2.6,0.6,5
	C142.1,116.9,139.7,117.5,138.3,117.7z M127.9,112.6c-0.2,0.3-0.3,0.8-0.2,1.2c0.2,0.8,1.1,1.4,2.6,2c2.4,0.8,5.3,1.1,7.8,0.7
	c1.9-0.3,3.4-1,3.8-1.8c0.7-1.4,0.4-2.5,0-3c-0.8,0.5-2.6,1.4-5.1,1.8c-1.1,0.2-2.2,0.2-3.3,0.2
	C130.3,113.5,128.7,113.1,127.9,112.6z"/>
<path class="st15" d="M142.1,110.9c0,0-3.4,2.4-8.6,2.2c-5.2-0.2-5.7-1.3-5.7-1.3s-2.7,2.9,2.4,4.7c5,1.7,11.1,0.8,12.3-1.4
	C143.6,112.8,142.4,111,142.1,110.9z"/>
<path class="st16" d="M142.6,111.7c0,0.6-0.1,1.3-0.5,2.1c-1.1,2.2-7.2,3.1-12.3,1.4c-1.6-0.5-2.4-1.2-2.8-1.8
	c-0.1,1,0.5,2.2,3.1,3.1c5,1.7,11.1,0.8,12.3-1.4C143.1,113.6,142.9,112.4,142.6,111.7z"/>
<path class="st17" d="M135.4,113.5c-3.5,0-6.6-0.8-7.2-1c-0.5-0.1-0.7,1.3,1.1,2c1.8,0.7,6.9,1.9,10.1,0.1
	C142.5,112.9,139,113.5,135.4,113.5z"/>
<path class="st14" d="M133.1,117.7c-0.1-0.1-1.9-1.7-2.5-3c-0.6-1.3-1.1-2.2-1.1-2.2l0.6-0.4c0,0,0.6,1,1.2,2.3
	c0.5,1.2,2.3,2.7,2.3,2.7L133.1,117.7z"/>
<path class="st14" d="M138.7,117.7c0,0-0.5-0.2-1-0.8c-0.1-0.1-0.2-0.3-0.4-0.4c-0.3-0.4-0.7-0.8-1.2-1.7c-0.6-1.1-1.6-1.8-1.6-1.8
	l0.4-0.6c0,0,1.1,0.8,1.8,2.1c0.5,0.8,0.8,1.2,1.2,1.6c0.1,0.2,0.3,0.3,0.4,0.5c0.3,0.4,0.7,0.6,0.7,0.6L138.7,117.7z"/>
<path class="st14" d="M142.5,115.2c0,0-0.7-1.4-1.2-2.2c-0.4-0.7-1.3-1.1-1.3-1.1l0.3-0.7c0,0,1.1,0.5,1.6,1.4
	c0.5,0.8,1.2,2.2,1.2,2.3L142.5,115.2z"/>
<path class="st14" d="M142.4,109.3c-2.8,1.8-6.2,2.9-9.6,3.2c-2.5,0.2-4.2-0.3-5.2-1.6c-1.2-1.5-0.5-3.5-0.5-3.5l0.4-1l0.7,0.7
	c0.2,0.1,1.6,0.3,6.2-1.4c1.2-0.5,2.3-1,3.4-1.7c3.2-2.1,4.7-4.5,4.8-4.5l0.2-0.4l0.5,0.1c0.9,0.1,3.3,1.9,3.1,5.3
	C146.3,106.5,143.9,108.3,142.4,109.3z M128.5,108.5c0,0.4,0,1,0.4,1.5c0.6,0.7,1.9,1.1,3.8,0.9c3.1-0.2,6.4-1.3,9-3
	c2-1.3,3.3-2.7,3.3-3.8c0.1-1.9-0.8-3-1.4-3.4c-0.6,0.9-2.2,2.7-4.8,4.4c-1.1,0.7-2.4,1.3-3.6,1.8
	C131.5,108.4,129.6,108.7,128.5,108.5z"/>
<path class="st15" d="M143.3,99.8c0,0-2.6,4.3-8.5,6.5c-5.9,2.2-6.9,1.3-6.9,1.3s-1.6,4.5,4.8,4.1c6.4-0.5,12.7-4.4,12.9-7.4
	C145.9,101.2,143.7,99.9,143.3,99.8z"/>
<path class="st16" d="M144.3,100.4c0.3,0.7,0.6,1.5,0.5,2.6c-0.2,3-6.5,6.9-12.9,7.4c-2,0.1-3.2-0.2-4-0.7c0.4,1.1,1.5,2.2,4.8,1.9
	c6.4-0.5,12.7-4.4,12.9-7.4C145.8,102.3,145,101.1,144.3,100.4z"/>
<path class="st17" d="M137.2,106c-3.9,1.7-7.7,2.3-8.5,2.4c-0.6,0.1-0.2,1.7,2.1,1.7c2.3-0.1,8.5-1.2,11.2-4.7
	C144.7,101.9,141.1,104.2,137.2,106z"/>
<path class="st14" d="M136.7,111.8c-0.1,0-2.9-0.9-4.2-2.1c-1.2-1.1-2.3-1.9-2.3-1.9l0.5-0.7c0,0,1.2,0.8,2.4,2
	c1.2,1.1,3.8,1.9,3.9,1.9L136.7,111.8z"/>
<path class="st14" d="M142.8,109c-0.1,0-0.7,0-1.5-0.4c-0.2-0.1-0.4-0.2-0.6-0.3c-0.5-0.2-1.2-0.6-2.2-1.3c-1.3-1-2.6-1.3-2.6-1.3
	l0.1-0.9c0.1,0,1.5,0.4,3,1.4c0.9,0.7,1.5,1,2,1.2c0.2,0.1,0.5,0.2,0.7,0.4c0.6,0.3,1,0.3,1,0.3L142.8,109z"/>
<path class="st14" d="M145.8,104.4c0,0-1.5-1.3-2.4-1.9c-0.8-0.6-2-0.6-2-0.6V101c0.1,0,1.4,0.1,2.5,0.8c0.9,0.6,2.4,1.9,2.4,1.9
	L145.8,104.4z"/>
<path class="st14" d="M32.3,120.8c-0.1,2.7-1.1,5.6-2.5,8c-1.1,1.8-2.2,2.7-3.5,2.8c-1.6,0-2.6-1.3-2.6-1.4l-0.5-0.7l0.8-0.2
	c0.2-0.1,1-1,2-4.9c0.3-1,0.4-2,0.5-3.1c0.2-3.2-0.7-5.4-0.7-5.4l-0.1-0.4l0.2-0.3c0.5-0.6,2.9-1.3,5,0.5
	C32.3,116.9,32.4,119.4,32.3,120.8z M25.2,129.9c0.3,0.2,0.7,0.5,1.2,0.5c0.8,0,1.6-0.8,2.5-2.1c1.3-2.2,2.2-5,2.3-7.5
	c0.1-1.9-0.3-3.5-1-4.1c-1.2-1-2.4-0.9-2.9-0.7c0.3,0.9,0.8,2.8,0.7,5.4c-0.1,1.1-0.2,2.2-0.5,3.3C26.5,127.8,25.8,129.2,25.2,129.9
	z"/>
<path class="st15" d="M26.4,115.7c0,0,1.6,3.8,0.3,8.8c-1.3,5-2.4,5.3-2.4,5.3s2.3,3.2,5-1.3c2.7-4.6,3.1-10.7,1.2-12.3
	C28.6,114.6,26.7,115.4,26.4,115.7z"/>
<path class="st16" d="M27.3,115.3c0.6,0.1,1.3,0.4,2,0.9c1.9,1.6,1.5,7.7-1.2,12.3c-0.8,1.4-1.6,2.1-2.4,2.3c0.9,0.3,2.2,0,3.6-2.4
	c2.7-4.6,3.1-10.7,1.2-12.3C29.3,115.2,28.1,115.2,27.3,115.3z"/>
<path class="st17" d="M27.6,122.8c-0.7,3.5-2.2,6.3-2.5,6.9c-0.2,0.5,1.1,1,2.1-0.6c1.1-1.6,3.3-6.4,2.2-9.8
	C28.5,115.7,28.3,119.3,27.6,122.8z"/>
<path class="st14" d="M31.2,125.9c-0.1,0.1-2,1.6-3.5,1.8c-1.3,0.3-2.4,0.6-2.4,0.6l-0.3-0.7c0,0,1.1-0.4,2.5-0.7
	c1.3-0.2,3.1-1.7,3.1-1.7L31.2,125.9z"/>
<path class="st14" d="M32.3,120.4c0,0-0.3,0.5-1,0.8c-0.2,0.1-0.3,0.2-0.5,0.3c-0.4,0.2-0.9,0.6-1.9,0.8c-1.3,0.4-2.1,1.2-2.1,1.2
	l-0.5-0.5c0,0,1-0.9,2.4-1.3c0.9-0.3,1.3-0.6,1.8-0.8c0.2-0.1,0.4-0.2,0.6-0.3c0.5-0.2,0.7-0.5,0.7-0.5L32.3,120.4z"/>
<path class="st14" d="M30.7,116.2c0,0-1.5,0.4-2.4,0.7c-0.7,0.3-1.4,1.1-1.4,1.1l-0.6-0.4c0,0,0.7-1,1.7-1.3
	c0.9-0.3,2.4-0.7,2.5-0.7L30.7,116.2z"/>
<path class="st14" d="M37.6,120.8c-0.1,2.7-1.1,5.6-2.5,8c-1.1,1.8-2.2,2.7-3.5,2.8c-1.6,0-2.6-1.3-2.6-1.4l-0.5-0.7l0.8-0.2
	c0.2-0.1,1-1,2-4.9c0.3-1,0.4-2,0.5-3.1c0.2-3.2-0.7-5.4-0.7-5.4l-0.1-0.4l0.2-0.3c0.5-0.6,2.9-1.3,5,0.5
	C37.6,116.9,37.7,119.4,37.6,120.8z M30.4,129.9c0.3,0.2,0.7,0.5,1.2,0.5c0.8,0,1.6-0.8,2.5-2.1c1.3-2.2,2.2-5,2.3-7.5
	c0.1-1.9-0.3-3.5-1-4.1c-1.2-1-2.4-0.9-2.9-0.7c0.3,0.9,0.8,2.8,0.7,5.4c-0.1,1.1-0.2,2.2-0.5,3.3C31.8,127.8,31,129.2,30.4,129.9z"
	/>
<path class="st15" d="M31.7,115.7c0,0,1.6,3.8,0.3,8.8c-1.3,5-2.4,5.3-2.4,5.3s2.3,3.2,5-1.3c2.7-4.6,3.1-10.7,1.2-12.3
	C33.9,114.6,31.9,115.4,31.7,115.7z"/>
<path class="st16" d="M32.6,115.3c0.6,0.1,1.3,0.4,2,0.9c1.9,1.6,1.5,7.7-1.2,12.3c-0.8,1.4-1.6,2.1-2.4,2.3c0.9,0.3,2.2,0,3.6-2.4
	c2.7-4.6,3.1-10.7,1.2-12.3C34.6,115.2,33.4,115.2,32.6,115.3z"/>
<path class="st17" d="M32.9,122.8c-0.7,3.5-2.2,6.3-2.5,6.9c-0.2,0.5,1.1,1,2.1-0.6c1.1-1.6,3.3-6.4,2.2-9.8
	C33.8,115.7,33.6,119.3,32.9,122.8z"/>
<path class="st14" d="M36.5,125.9c-0.1,0.1-2,1.6-3.5,1.8c-1.3,0.3-2.4,0.6-2.4,0.6l-0.3-0.7c0,0,1.1-0.4,2.5-0.7
	c1.3-0.2,3.1-1.7,3.1-1.7L36.5,125.9z"/>
<path class="st14" d="M37.6,120.4c0,0-0.3,0.5-1,0.8c-0.2,0.1-0.3,0.2-0.5,0.3c-0.4,0.2-0.9,0.6-1.9,0.8c-1.3,0.4-2.1,1.2-2.1,1.2
	l-0.5-0.5c0,0,1-0.9,2.4-1.3c0.9-0.3,1.3-0.6,1.8-0.8c0.2-0.1,0.4-0.2,0.6-0.3c0.5-0.2,0.7-0.5,0.7-0.5L37.6,120.4z"/>
<path class="st14" d="M36,116.2c0,0-1.5,0.4-2.4,0.7c-0.7,0.3-1.4,1.1-1.4,1.1l-0.6-0.4c0,0,0.7-1,1.7-1.3c0.9-0.3,2.4-0.7,2.5-0.7
	L36,116.2z"/>
<path class="st14" d="M16.7,35.1c-2.9,0.5-6.1,0.2-9-0.8c-2.1-0.7-3.3-1.8-3.7-3.1c-0.4-1.7,0.8-3,0.9-3l0.6-0.7L6,28.3
	c0.2,0.1,1.2,0.8,5.6,1.1c1.1,0.1,2.2,0,3.4-0.2c3.4-0.5,5.4-2,5.5-2l0.3-0.2l0.4,0.2c0.7,0.4,2,2.7,0.6,5.4
	C20.8,34.2,18.2,34.9,16.7,35.1z M5.5,29.6c-0.2,0.4-0.4,0.8-0.2,1.3c0.2,0.8,1.2,1.6,2.8,2.1c2.6,0.9,5.7,1.2,8.4,0.7
	c2.1-0.3,3.6-1.1,4-1.9c0.8-1.5,0.4-2.7,0-3.3C19.7,29,17.8,30,15,30.4c-1.2,0.2-2.4,0.2-3.6,0.2C8.1,30.5,6.4,30,5.5,29.6z"/>
<path class="st15" d="M20.7,27.7c0,0-3.6,2.6-9.2,2.3c-5.6-0.3-6.1-1.3-6.1-1.3s-2.9,3.1,2.5,5c5.4,1.9,11.9,0.9,13.2-1.5
	C22.3,29.8,21.1,27.9,20.7,27.7z"/>
<path class="st16" d="M21.3,28.6c0,0.7-0.1,1.4-0.5,2.3c-1.2,2.4-7.8,3.4-13.2,1.5c-1.7-0.6-2.6-1.3-3-2c-0.1,1,0.5,2.3,3.3,3.3
	c5.4,1.9,11.9,0.9,13.2-1.5C21.9,30.7,21.7,29.4,21.3,28.6z"/>
<path class="st17" d="M13.5,30.6c-3.8,0-7.1-0.9-7.8-1c-0.5-0.1-0.8,1.4,1.2,2.1c1.9,0.8,7.4,2,10.8,0.1
	C21.2,29.9,17.4,30.5,13.5,30.6z"/>
<path class="st14" d="M11.1,35.1C11,35,9,33.4,8.4,31.9c-0.6-1.3-1.2-2.4-1.2-2.4l0.6-0.4c0,0,0.7,1.1,1.3,2.5
	c0.6,1.3,2.5,2.9,2.5,2.9L11.1,35.1z"/>
<path class="st14" d="M17.1,35c-0.1,0-0.6-0.2-1.1-0.9c-0.1-0.2-0.2-0.3-0.4-0.5c-0.4-0.4-0.8-0.9-1.3-1.8c-0.7-1.2-1.7-2-1.7-2
	l0.4-0.7c0,0,1.1,0.8,1.9,2.2c0.5,0.9,0.9,1.3,1.2,1.7c0.2,0.2,0.3,0.4,0.5,0.5c0.4,0.5,0.7,0.6,0.7,0.6L17.1,35z"/>
<path class="st14" d="M21.2,32.4c0,0-0.8-1.6-1.3-2.4c-0.5-0.7-1.4-1.2-1.4-1.2l0.3-0.7c0,0,1.2,0.6,1.7,1.5
	c0.5,0.8,1.3,2.4,1.3,2.4L21.2,32.4z"/>
<path class="st14" d="M16.1,29.6c-2.9,0.5-6.1,0.2-9-0.8C5,28,3.8,27,3.5,25.7c-0.4-1.7,0.8-3,0.9-3L5,22l0.4,0.8
	c0.2,0.1,1.2,0.8,5.6,1.1c1.1,0.1,2.2,0,3.4-0.2c3.4-0.5,5.4-2,5.5-2l0.3-0.2l0.4,0.2c0.7,0.4,2,2.7,0.6,5.4
	C20.2,28.7,17.6,29.3,16.1,29.6z M4.9,24c-0.2,0.4-0.4,0.8-0.2,1.3c0.2,0.8,1.2,1.6,2.8,2.1c2.6,0.9,5.7,1.2,8.4,0.7
	c2.1-0.3,3.6-1.1,4-1.9c0.8-1.5,0.4-2.7,0-3.3c-0.8,0.5-2.8,1.5-5.5,1.9c-1.2,0.2-2.4,0.2-3.6,0.2C7.5,25,5.8,24.5,4.9,24z"/>
<path class="st15" d="M20.1,22.1c0,0-3.6,2.6-9.2,2.3c-5.6-0.3-6.1-1.3-6.1-1.3s-2.9,3.2,2.5,5c5.4,1.9,11.9,0.9,13.2-1.5
	C21.7,24.2,20.5,22.4,20.1,22.1z"/>
<path class="st16" d="M20.7,23c0,0.7-0.1,1.4-0.5,2.3c-1.2,2.4-7.8,3.4-13.2,1.5c-1.7-0.6-2.6-1.3-3-2c-0.1,1,0.5,2.3,3.3,3.3
	c5.4,1.9,11.9,0.9,13.2-1.5C21.2,25.1,21.1,23.8,20.7,23z"/>
<path class="st17" d="M12.9,25c-3.8,0-7.1-0.9-7.8-1c-0.5-0.1-0.8,1.4,1.2,2.1c1.9,0.8,7.4,2,10.8,0.1C20.5,24.4,16.8,25,12.9,25z"
	/>
<path class="st14" d="M10.5,29.6c-0.1-0.1-2.1-1.8-2.7-3.2c-0.6-1.3-1.2-2.4-1.2-2.4l0.6-0.4c0,0,0.7,1.1,1.3,2.5
	c0.6,1.3,2.5,2.9,2.5,2.9L10.5,29.6z"/>
<path class="st14" d="M16.5,29.5c-0.1,0-0.6-0.2-1.1-0.9c-0.1-0.2-0.2-0.3-0.4-0.5c-0.4-0.4-0.8-0.9-1.3-1.8c-0.7-1.2-1.7-2-1.7-2
	l0.4-0.7c0,0,1.1,0.8,1.9,2.2c0.5,0.9,0.9,1.3,1.2,1.7c0.2,0.2,0.3,0.4,0.5,0.5c0.4,0.5,0.7,0.6,0.7,0.6L16.5,29.5z"/>
<path class="st14" d="M20.6,26.8c0,0-0.8-1.6-1.3-2.4c-0.5-0.7-1.4-1.2-1.4-1.2l0.3-0.7c0,0,1.2,0.6,1.7,1.5
	c0.5,0.8,1.3,2.4,1.3,2.4L20.6,26.8z"/>
<path class="st14" d="M143.6,49c-3.4,0.5-7.2,0.2-10.5-1c-2.5-0.8-3.9-2.1-4.3-3.6c-0.5-1.9,0.9-3.5,1-3.6l0.7-0.8l0.4,0.9
	c0.2,0.2,1.4,1,6.5,1.2c1.3,0.1,2.6,0,3.9-0.2c3.9-0.6,6.4-2.3,6.4-2.4l0.4-0.3l0.4,0.2c0.8,0.5,2.3,3.2,0.8,6.3
	C148.4,48,145.4,48.8,143.6,49z M130.6,42.6c-0.2,0.4-0.4,1-0.3,1.6c0.2,1,1.4,1.8,3.3,2.5c3,1.1,6.7,1.4,9.8,0.9
	c2.4-0.4,4.2-1.3,4.7-2.3c0.9-1.8,0.4-3.2,0.1-3.8c-1,0.6-3.2,1.7-6.4,2.3c-1.4,0.2-2.8,0.3-4.2,0.2
	C133.5,43.6,131.6,43.1,130.6,42.6z"/>
<path class="st15" d="M148.3,40.4c0,0-4.2,3-10.8,2.7c-6.5-0.3-7.1-1.6-7.1-1.6s-3.4,3.7,2.9,5.9c6.3,2.2,14,1,15.4-1.8
	C150.2,42.8,148.7,40.6,148.3,40.4z"/>
<path class="st16" d="M149,41.4c0,0.8-0.1,1.7-0.6,2.6c-1.4,2.8-9.1,3.9-15.4,1.8c-2-0.7-3-1.5-3.5-2.3c-0.1,1.2,0.6,2.7,3.8,3.9
	c6.3,2.2,14,1,15.4-1.8C149.7,43.8,149.4,42.3,149,41.4z"/>
<path class="st17" d="M140,43.7c-4.5,0-8.3-1-9.1-1.2c-0.6-0.1-0.9,1.6,1.3,2.5c2.2,0.9,8.7,2.3,12.7,0.1
	C148.8,42.9,144.4,43.7,140,43.7z"/>
<path class="st14" d="M137.1,49c-0.1-0.1-2.4-2.1-3.2-3.8c-0.7-1.6-1.4-2.8-1.4-2.8l0.7-0.5c0,0,0.8,1.3,1.5,2.9
	c0.7,1.5,2.9,3.4,2.9,3.4L137.1,49z"/>
<path class="st14" d="M144.1,48.9c-0.1,0-0.7-0.2-1.2-1c-0.1-0.2-0.3-0.4-0.5-0.6c-0.4-0.5-0.9-1-1.6-2.2c-0.8-1.4-2-2.3-2-2.3
	l0.5-0.8c0.1,0,1.3,1,2.2,2.6c0.6,1,1,1.5,1.4,2c0.2,0.2,0.4,0.4,0.5,0.6c0.4,0.5,0.8,0.7,0.8,0.7L144.1,48.9z"/>
<path class="st14" d="M148.9,45.8c0,0-0.9-1.8-1.5-2.8c-0.5-0.8-1.7-1.4-1.7-1.4l0.4-0.8c0.1,0,1.4,0.7,2,1.8c0.6,1,1.5,2.8,1.5,2.9
	L148.9,45.8z"/>
<path class="st14" d="M142.9,42.6c-3.4,0.5-7.2,0.2-10.5-1c-2.5-0.8-3.9-2.1-4.3-3.6c-0.5-1.9,0.9-3.5,1-3.6l0.7-0.8l0.4,0.9
	c0.2,0.2,1.4,1,6.5,1.2c1.3,0.1,2.6,0,3.9-0.2c3.9-0.6,6.4-2.3,6.4-2.4l0.4-0.3l0.4,0.2c0.8,0.5,2.3,3.2,0.8,6.3
	C147.7,41.5,144.7,42.3,142.9,42.6z M129.9,36.1c-0.2,0.4-0.4,1-0.3,1.6c0.2,1,1.4,1.8,3.3,2.5c3,1.1,6.7,1.4,9.8,0.9
	c2.4-0.4,4.2-1.3,4.7-2.3c0.9-1.8,0.4-3.2,0.1-3.8c-1,0.6-3.2,1.7-6.4,2.3c-1.4,0.2-2.8,0.3-4.2,0.2
	C132.8,37.2,130.9,36.6,129.9,36.1z"/>
<path class="st15" d="M147.6,33.9c0,0-4.2,3-10.8,2.7c-6.5-0.3-7.1-1.6-7.1-1.6s-3.4,3.7,2.9,5.9c6.3,2.2,14,1,15.4-1.8
	C149.5,36.3,148,34.1,147.6,33.9z"/>
<path class="st16" d="M148.3,34.9c0,0.8-0.1,1.7-0.6,2.6c-1.4,2.8-9.1,3.9-15.4,1.8c-2-0.7-3-1.5-3.5-2.3c-0.1,1.2,0.6,2.7,3.8,3.9
	c6.3,2.2,14,1,15.4-1.8C149,37.3,148.7,35.9,148.3,34.9z"/>
<path class="st17" d="M139.2,37.2c-4.5,0-8.3-1-9.1-1.2c-0.6-0.1-0.9,1.6,1.3,2.5c2.2,0.9,8.7,2.3,12.7,0.1
	C148.1,36.5,143.7,37.2,139.2,37.2z"/>
<path class="st14" d="M136.4,42.6c-0.1-0.1-2.4-2.1-3.2-3.8c-0.7-1.6-1.4-2.8-1.4-2.8l0.7-0.5c0,0,0.8,1.3,1.5,2.9
	c0.7,1.5,2.9,3.4,2.9,3.4L136.4,42.6z"/>
<path class="st14" d="M143.4,42.4c-0.1,0-0.7-0.2-1.2-1c-0.1-0.2-0.3-0.4-0.5-0.6c-0.4-0.5-0.9-1-1.6-2.2c-0.8-1.4-2-2.3-2-2.3
	l0.5-0.8c0.1,0,1.3,1,2.2,2.6c0.6,1,1,1.5,1.4,2c0.2,0.2,0.4,0.4,0.5,0.6c0.4,0.5,0.8,0.7,0.8,0.7L143.4,42.4z"/>
<path class="st14" d="M148.1,39.3c0,0-0.9-1.8-1.5-2.8c-0.5-0.8-1.7-1.4-1.7-1.4l0.4-0.8c0.1,0,1.4,0.7,2,1.8c0.6,1,1.5,2.8,1.5,2.9
	L148.1,39.3z"/>
</svg>