<svg width="734" height="734" viewBox="0 0 734 734" fill="none" xmlns="http://www.w3.org/2000/svg">
<mask id="mask0" mask-type="alpha" maskUnits="userSpaceOnUse" x="0" y="0" width="734" height="734">
<path opacity="0.43" d="M407.824 292.566L536.708 137.891L426.841 306.523L592.738 192.07L441.008 325.041L631.77 259.669L449.895 346.695L651.425 335.059L452.792 369.955L649.78 413.094L449.092 393.013L627.486 487.671L439.412 414.192L585.55 553.452L424.263 432.096L527.424 605.363L404.821 445.253L457.268 639.857L382.44 452.575L380.539 654.181L359.208 453.559L302.742 647.185L336.348 448.339L229.709 619.425L315.642 437.25L166.936 573.234L299.049 421.012L118.948 511.859L287.103 400.772L89.3007 439.461L281.454 378.087L80.1698 362.227L281.766 354.737L92.2558 285.171L288.47 332.148L124.907 214.396L301.127 312.378L175.334 154.903L318.562 296.899L240.012 111.104L339.525 286.52L314.117 86.6215L362.663 282.33L392.042 82.8834L385.989 284.551L468.208 100.379L407.824 292.566Z" fill="url(#paint0_radial)"/>
</mask>
<g mask="url(#mask0)">
<path opacity="0.83" d="M407.824 292.566L536.708 137.891L426.841 306.523L592.738 192.07L441.008 325.041L631.77 259.669L449.895 346.695L651.425 335.059L452.792 369.955L649.78 413.094L449.092 393.013L627.486 487.671L439.412 414.192L585.55 553.452L424.263 432.096L527.424 605.363L404.821 445.253L457.268 639.857L382.44 452.575L380.539 654.181L359.208 453.559L302.742 647.185L336.348 448.339L229.709 619.425L315.642 437.25L166.936 573.234L299.049 421.012L118.948 511.859L287.103 400.772L89.3007 439.461L281.454 378.087L80.1698 362.227L281.766 354.737L92.2558 285.171L288.47 332.148L124.907 214.396L301.127 312.378L175.334 154.903L318.562 296.899L240.012 111.104L339.525 286.52L314.117 86.6215L362.663 282.33L392.042 82.8834L385.989 284.551L468.208 100.379L407.824 292.566Z" fill="#FDFFAE"/>
</g>
<mask id="mask1" mask-type="alpha" maskUnits="userSpaceOnUse" x="0" y="0" width="734" height="734">
<path opacity="0.43" d="M418.256 297.03L567.979 161.736L435.128 313.37L615.482 223.567L446.692 333.787L644.849 295.862L452.341 356.472L653.597 373.273L452.029 379.821L641.231 450.226L445.045 402.308L608.3 520.898L432.49 421.798L557.313 580.186L414.775 437.175L492.561 623.323L393.812 447.554L418.176 647.703L370.674 451.744L340.456 650.882L347.348 449.523L264.392 633.107L325.617 441.228L195.994 595.316L306.701 426.992L140.068 540.857L292.432 408.753L101.418 473.081L283.648 386.82L82.1455 397.515L281.031 363.663L84.0707 319.583L284.73 340.605L107.027 244.932L294.691 319.528L149.14 179.533L309.84 301.625L207.546 127.725L329.281 288.467L277.88 93.6132L351.56 281.425L354.683 79.9506L375.072 280.544L432.377 87.2259L397.932 285.764L505.308 115.266L418.256 297.03Z" fill="url(#paint1_radial)"/>
</mask>
<g mask="url(#mask1)">
<path opacity="0.43" d="M418.256 297.03L567.979 161.736L435.128 313.37L615.482 223.567L446.692 333.787L644.849 295.862L452.341 356.472L653.597 373.273L452.029 379.821L641.231 450.226L445.045 402.308L608.3 520.898L432.49 421.798L557.313 580.186L414.775 437.175L492.561 623.323L393.812 447.554L418.176 647.703L370.674 451.744L340.456 650.882L347.348 449.523L264.392 633.107L325.617 441.228L195.994 595.316L306.701 426.992L140.068 540.857L292.432 408.753L101.418 473.081L283.648 386.82L82.1455 397.515L281.031 363.663L84.0707 319.583L284.73 340.605L107.027 244.932L294.691 319.528L149.14 179.533L309.84 301.625L207.546 127.725L329.281 288.467L277.88 93.6132L351.56 281.425L354.683 79.9506L375.072 280.544L432.377 87.2259L397.932 285.764L505.308 115.266L418.256 297.03Z" fill="#76FFEE"/>
</g>
<mask id="mask2" mask-type="alpha" maskUnits="userSpaceOnUse" x="25" y="26" width="684" height="682">
<path opacity="0.43" d="M382.149 266.622L463.059 39.882L409.238 274.453L548.248 77.6127L432.762 289.403L619.891 137.412L451.653 310.048L673 213.942L464.485 334.965L703.297 302.217L469.832 362.373L709 395.12L467.693 390.137L689.04 486.243L458.069 416.477L645.198 568.468L441.673 439.258L580.683 636.098L419.574 456.699L500.485 683.795L393.911 467.378L410.307 708L366.109 470.937L316.921 706.932L338.307 467.022L227.455 680.948L313 455.632L148.327 631.827L291.257 437.834L85.2376 562.772L275.574 414.697L43.1782 479.836L266.307 388.357H25L264.525 360.237L32.4851 295.454L270.584 332.829L64.5644 207.89L283.772 308.268L119.099 132.073L303.02 287.979L192.168 74.0532L327.257 273.741L278.069 37.7463L354.347 266.622L370.743 26L382.149 266.622Z" fill="url(#paint2_radial)"/>
</mask>
<g mask="url(#mask2)">
<path opacity="0.83" d="M382.149 266.622L463.059 39.882L409.238 274.453L548.248 77.6127L432.762 289.403L619.891 137.412L451.653 310.048L673 213.942L464.485 334.965L703.297 302.217L469.832 362.373L709 395.12L467.693 390.137L689.04 486.243L458.069 416.477L645.198 568.468L441.673 439.258L580.683 636.098L419.574 456.699L500.485 683.795L393.911 467.378L410.307 708L366.109 470.937L316.921 706.932L338.307 467.022L227.455 680.948L313 455.632L148.327 631.827L291.257 437.834L85.2376 562.772L275.574 414.697L43.1782 479.836L266.307 388.357H25L264.525 360.237L32.4851 295.454L270.584 332.829L64.5644 207.89L283.772 308.268L119.099 132.073L303.02 287.979L192.168 74.0532L327.257 273.741L278.069 37.7463L354.347 266.622L370.743 26L382.149 266.622Z" fill="#FDFFAE"/>
</g>
<mask id="mask3" mask-type="alpha" maskUnits="userSpaceOnUse" x="25" y="26" width="684" height="682">
<path opacity="0.43" d="M395.693 267.334L507.97 53.7641L421.356 278.724L586.743 103.597L442.743 296.878L649.475 172.651L458.426 320.015L691.178 255.944L467.693 346.355L709 347.423L469.119 374.475L701.158 440.326L463.059 401.527L668.366 527.889L449.515 426.088L613.475 602.995L430.267 446.377L540.049 661.015L406.03 460.615L454.149 696.61L378.941 467.734L361.475 708L351.139 467.378L269.158 693.762L324.05 459.191L183.97 655.675L300.525 444.597L112.683 595.52L281.634 423.596L59.9307 518.635L269.158 398.68L29.9901 430.359L263.812 371.271L25 337.1L266.307 343.507L45.3168 246.333L275.931 317.167L89.5149 164.109L292.327 294.386L154.386 96.834L314.426 277.301L234.941 49.8486L340.446 266.622L325.119 26L368.248 263.063L418.505 27.4238L395.693 267.334Z" fill="url(#paint3_radial)"/>
</mask>
<g mask="url(#mask3)">
<path opacity="0.43" d="M395.693 267.334L507.97 53.7641L421.356 278.724L586.743 103.597L442.743 296.878L649.475 172.651L458.426 320.015L691.178 255.944L467.693 346.355L709 347.423L469.119 374.475L701.158 440.326L463.059 401.527L668.366 527.889L449.515 426.088L613.475 602.995L430.267 446.377L540.049 661.015L406.03 460.615L454.149 696.61L378.941 467.734L361.475 708L351.139 467.378L269.158 693.762L324.05 459.191L183.97 655.675L300.525 444.597L112.683 595.52L281.634 423.596L59.9307 518.635L269.158 398.68L29.9901 430.359L263.812 371.271L25 337.1L266.307 343.507L45.3168 246.333L275.931 317.167L89.5149 164.109L292.327 294.386L154.386 96.834L314.426 277.301L234.941 49.8486L340.446 266.622L325.119 26L368.248 263.063L418.505 27.4238L395.693 267.334Z" fill="#FFF17A"/>
</g>
<circle cx="374" cy="352" r="203" fill="url(#paint4_radial)"/>
<circle cx="374" cy="352" r="266" fill="url(#paint5_radial)"/>
<circle cx="374" cy="352" r="150" fill="url(#paint6_radial)"/>
<defs>
<radialGradient id="paint0_radial" cx="0" cy="0" r="1" gradientUnits="userSpaceOnUse" gradientTransform="translate(366.954 366.993) rotate(20.1574) scale(285.833 285.332)">
<stop offset="0.2303" stop-color="white"/>
<stop offset="0.3051" stop-color="#F9F9F9"/>
<stop offset="0.4006" stop-color="#EAEAEA"/>
<stop offset="0.5074" stop-color="#CFCFCF"/>
<stop offset="0.6224" stop-color="#ABABAB"/>
<stop offset="0.7441" stop-color="#7C7C7C"/>
<stop offset="0.8713" stop-color="#424242"/>
<stop offset="1"/>
</radialGradient>
<radialGradient id="paint1_radial" cx="0" cy="0" r="1" gradientUnits="userSpaceOnUse" gradientTransform="translate(367.394 364.827) rotate(28.2549) scale(285.819 285.339)">
<stop offset="0.2303" stop-color="white"/>
<stop offset="0.3051" stop-color="#F9F9F9"/>
<stop offset="0.4006" stop-color="#EAEAEA"/>
<stop offset="0.5074" stop-color="#CFCFCF"/>
<stop offset="0.6224" stop-color="#ABABAB"/>
<stop offset="0.7441" stop-color="#7C7C7C"/>
<stop offset="0.8713" stop-color="#424242"/>
<stop offset="1"/>
</radialGradient>
<radialGradient id="paint2_radial" cx="0" cy="0" r="1" gradientUnits="userSpaceOnUse" gradientTransform="translate(366.945 367.011) scale(341.664 341.198)">
<stop offset="0.2303" stop-color="white"/>
<stop offset="0.3051" stop-color="#F9F9F9"/>
<stop offset="0.4006" stop-color="#EAEAEA"/>
<stop offset="0.5074" stop-color="#CFCFCF"/>
<stop offset="0.6224" stop-color="#ABABAB"/>
<stop offset="0.7441" stop-color="#7C7C7C"/>
<stop offset="0.8713" stop-color="#424242"/>
<stop offset="1"/>
</radialGradient>
<radialGradient id="paint3_radial" cx="0" cy="0" r="1" gradientUnits="userSpaceOnUse" gradientTransform="translate(366.548 364.399) rotate(8.10056) scale(341.65 341.203)">
<stop offset="0.2303" stop-color="white"/>
<stop offset="0.3051" stop-color="#F9F9F9"/>
<stop offset="0.4006" stop-color="#EAEAEA"/>
<stop offset="0.5074" stop-color="#CFCFCF"/>
<stop offset="0.6224" stop-color="#ABABAB"/>
<stop offset="0.7441" stop-color="#7C7C7C"/>
<stop offset="0.8713" stop-color="#424242"/>
<stop offset="1"/>
</radialGradient>
<radialGradient id="paint4_radial" cx="0" cy="0" r="1" gradientUnits="userSpaceOnUse" gradientTransform="translate(374 352) rotate(90) scale(203)">
<stop stop-color="#FF8126"/>
<stop offset="1" stop-color="#FF9B26" stop-opacity="0"/>
</radialGradient>
<radialGradient id="paint5_radial" cx="0" cy="0" r="1" gradientUnits="userSpaceOnUse" gradientTransform="translate(374 352) rotate(90) scale(266)">
<stop stop-color="#FF8744"/>
<stop offset="1" stop-color="#F4FF44" stop-opacity="0"/>
</radialGradient>
<radialGradient id="paint6_radial" cx="0" cy="0" r="1" gradientUnits="userSpaceOnUse" gradientTransform="translate(374 352) rotate(90) scale(150)">
<stop stop-color="#FF0F00"/>
<stop offset="1" stop-color="#FF7272" stop-opacity="0"/>
</radialGradient>
</defs>
</svg>
